<svg width="72" height="72" viewBox="0 0 72 72" fill="none" xmlns="http://www.w3.org/2000/svg">
<rect width="72" height="72" rx="36" fill="#FF6422"/>
<g clip-path="url(#clip0_2789_63136)">
<path d="M24.4478 50.0833H24.2748L24.1389 50.1902L15.6665 56.8463V19.3333C15.6665 18.9134 15.8333 18.5107 16.1303 18.2137C16.4272 17.9168 16.8299 17.75 17.2498 17.75H54.7498C55.1698 17.75 55.5725 17.9168 55.8694 18.2137C56.1664 18.5107 56.3332 18.9134 56.3332 19.3333V48.5C56.3332 48.9199 56.1664 49.3227 55.8694 49.6196C55.5725 49.9165 55.1698 50.0833 54.7498 50.0833H24.4478ZM52.6665 46.9167H53.1665V46.4167V21.4167V20.9167H52.6665H19.3332H18.8332V21.4167V49.3021V50.3307L19.6421 49.6953L23.179 46.9167H52.6665ZM34.1734 36.6056L34.5269 36.9591L34.8804 36.6057L43.3665 28.1216L45.6052 30.3604L34.5269 41.4387L27.13 34.0418L29.3705 31.8028L34.1734 36.6056Z" fill="white" stroke="#FF6422"/>
</g>
<defs>
<clipPath id="clip0_2789_63136">
<rect width="50" height="50" fill="white" transform="translate(11 11)"/>
</clipPath>
</defs>
</svg>
