<svg width="72" height="72" viewBox="0 0 72 72" fill="none" xmlns="http://www.w3.org/2000/svg">
<rect width="72" height="72" rx="36" fill="#FF6422"/>
<path d="M44.6988 9.48878C41.865 8.5236 38.8269 8 35.6665 8C20.2025 8 7.6665 20.536 7.6665 36C7.6665 51.464 20.2025 64 35.6665 64C51.1305 64 63.6665 51.464 63.6665 36C63.6665 32.6711 63.0856 29.4778 62.0196 26.5161" stroke="white" stroke-width="2"/>
<path d="M39.1665 18.2562C38.1917 18.0878 37.1894 18 36.1665 18C26.5015 18 18.6665 25.835 18.6665 35.5C18.6665 45.165 26.5015 53 36.1665 53C45.8315 53 53.6665 45.165 53.6665 35.5C53.6665 34.6512 53.6061 33.8165 53.4893 33" stroke="white" stroke-width="2"/>
<circle cx="36.6665" cy="35" r="5" fill="white"/>
<path d="M54.6665 18.5L57.6665 7L59.1665 13L65.6665 14.5L54.6665 18.5Z" fill="white"/>
<path d="M57.6665 7L58.6366 6.75746L56.6989 6.74758L57.6665 7ZM65.6665 14.5L66.0082 15.4398L65.8914 13.5256L65.6665 14.5ZM59.1665 13L58.1964 13.2425L58.9416 13.9744L59.1665 13ZM37.8525 35.7276L55.3525 19.2276L53.9805 17.7724L36.4805 34.2724L37.8525 35.7276ZM55.6341 18.7524L58.6341 7.25242L56.6989 6.74758L53.6989 18.2476L55.6341 18.7524ZM55.0082 19.4398L66.0082 15.4398L65.3248 13.5602L54.3248 17.5602L55.0082 19.4398ZM56.6964 7.24254L58.1964 13.2425L60.1366 12.7575L58.6366 6.75746L56.6964 7.24254ZM58.9416 13.9744L65.4416 15.4744L65.8914 13.5256L59.3914 12.0256L58.9416 13.9744Z" fill="white"/>
</svg>
