<svg width="73" height="72" viewBox="0 0 73 72" fill="none" xmlns="http://www.w3.org/2000/svg">
<rect x="0.666504" width="72" height="72" rx="36" fill="#FF6422"/>
<g clip-path="url(#clip0_2789_63131)">
<path d="M23.0312 41.7498H22.8583L22.7224 41.8567L14.25 48.5128V17.2498C14.25 16.8299 14.4168 16.4272 14.7137 16.1303C15.0107 15.8333 15.4134 15.6665 15.8333 15.6665H47.0833C47.5033 15.6665 47.906 15.8333 48.2029 16.1303C48.4999 16.4272 48.6667 16.8299 48.6667 17.2498V41.7498H23.0312ZM45 38.5832H45.5V38.0832V19.3332V18.8332H45H17.9167H17.4167V19.3332V40.9686V41.9972L18.2255 41.3618L21.7625 38.5832H45ZM53.8333 49.3019V28.1665H55.4167C55.8366 28.1665 56.2393 28.3333 56.5363 28.6303C56.8332 28.9272 57 29.3299 57 29.7498V56.8462L48.5276 50.19L48.3917 50.0832H48.2188H30.4167C29.9967 50.0832 29.594 49.9164 29.2971 49.6194C29.0001 49.3225 28.8333 48.9198 28.8333 48.4998V46.9165H49.4875L53.0245 49.6951L53.8333 50.3306V49.3019Z" fill="white" stroke="#FF6422"/>
</g>
<defs>
<clipPath id="clip0_2789_63131">
<rect width="50" height="50" fill="white" transform="translate(11.6665 11)"/>
</clipPath>
</defs>
</svg>
