<svg width="73" height="72" viewBox="0 0 73 72" fill="none" xmlns="http://www.w3.org/2000/svg">
<rect x="0.666504" width="72" height="72" rx="36" fill="#FF6422"/>
<g clip-path="url(#clip0_2789_63144)">
<path d="M26.5832 21.9168H27.0832V21.4168V15.1668C27.0832 14.7469 27.25 14.3442 27.5469 14.0472L27.1934 13.6937L27.5469 14.0472C27.8439 13.7503 28.2466 13.5835 28.6665 13.5835H45.3332C45.7531 13.5835 46.1558 13.7503 46.4528 14.0472C46.7497 14.3442 46.9165 14.7469 46.9165 15.1668V21.4168V21.9168H47.4165H55.7498C56.1698 21.9168 56.5725 22.0836 56.8694 22.3806C57.1664 22.6775 57.3332 23.0802 57.3332 23.5002V52.6668C57.3332 53.0868 57.1664 53.4895 56.8694 53.7864C56.5725 54.0833 56.1698 54.2502 55.7498 54.2502H18.2498C17.8299 54.2502 17.4272 54.0833 17.1303 53.7864C16.8333 53.4895 16.6665 53.0868 16.6665 52.6668V23.5002C16.6665 23.0802 16.8333 22.6775 17.1303 22.3806C17.4272 22.0836 17.8299 21.9168 18.2498 21.9168H26.5832ZM20.3332 43.8335H19.8332V44.3335V50.5835V51.0835H20.3332H53.6665H54.1665V50.5835V44.3335V43.8335H53.6665H20.3332ZM19.8332 40.1668V40.6668H20.3332H53.6665H54.1665V40.1668V25.5835V25.0835H53.6665H20.3332H19.8332V25.5835V40.1668ZM30.7498 16.7502H30.2498V17.2502V21.4168V21.9168H30.7498H43.2498H43.7498V21.4168V17.2502V16.7502H43.2498H30.7498ZM35.4165 34.4168H38.5832V37.5835H35.4165V34.4168Z" fill="white" stroke="#FF6422"/>
</g>
<defs>
<clipPath id="clip0_2789_63144">
<rect width="50" height="50" fill="white" transform="translate(12 11)"/>
</clipPath>
</defs>
</svg>
