<svg width="73" height="72" viewBox="0 0 73 72" fill="none" xmlns="http://www.w3.org/2000/svg">
<rect x="0.666748" width="72" height="72" rx="36" fill="#35C0B7"/>
<g clip-path="url(#clip0_2789_62994)">
<path d="M34.5834 51.0833H35.0834V50.5833V39.9354V39.7435L34.9551 39.6009L18.4167 21.2248V17.75H54.9167V21.2248L38.3784 39.6009L38.2501 39.7435V39.9354V50.5833V51.0833H38.7501H48.6667V54.25H24.6667V51.0833H34.5834ZM26.8993 25.9178L27.0482 26.0833H27.2709H46.0626H46.2853L46.4342 25.9178L50.1842 21.7511L50.9353 20.9167H49.8126H23.5209H22.3982L23.1493 21.7511L26.8993 25.9178ZM31.0209 29.25H29.898L30.6493 30.0846L36.2952 36.3554L36.6667 36.7681L37.0383 36.3554L42.6842 30.0846L43.4355 29.25H42.3126H31.0209Z" fill="white" stroke="#35C0B7"/>
</g>
<defs>
<clipPath id="clip0_2789_62994">
<rect width="50" height="50" fill="white" transform="translate(11.6667 11)"/>
</clipPath>
</defs>
</svg>
