<svg width="72" height="72" viewBox="0 0 72 72" fill="none" xmlns="http://www.w3.org/2000/svg">
<rect width="72" height="72" rx="36" fill="#35C0B7"/>
<g clip-path="url(#clip0_2789_62988)">
<path d="M22.3645 41.7498H22.1916L22.0556 41.8567L13.5833 48.5128V17.2498C13.5833 16.8299 13.7501 16.4272 14.047 16.1303C14.3439 15.8333 14.7467 15.6665 15.1666 15.6665H46.4166C46.8365 15.6665 47.2392 15.8333 47.5362 16.1303C47.8331 16.4272 47.9999 16.8299 47.9999 17.2498V41.7498H22.3645ZM44.3333 38.5832H44.8333V38.0832V19.3332V18.8332H44.3333H17.2499H16.7499V19.3332V40.9686V41.9972L17.5588 41.3618L21.0957 38.5832H44.3333ZM53.1666 49.3019V28.1665H54.7499C55.1698 28.1665 55.5726 28.3333 55.8695 28.6303C56.1664 28.9272 56.3333 29.3299 56.3333 29.7498V56.8462L47.8609 50.19L47.7249 50.0832H47.552H29.7499C29.33 50.0832 28.9273 49.9164 28.6303 49.6194C28.3334 49.3225 28.1666 48.9198 28.1666 48.4998V46.9165H48.8208L52.3577 49.6951L53.1666 50.3306V49.3019Z" fill="white" stroke="#35C0B7"/>
</g>
<defs>
<clipPath id="clip0_2789_62988">
<rect width="50" height="50" fill="white" transform="translate(11 11)"/>
</clipPath>
</defs>
</svg>
