<svg width="72" height="72" viewBox="0 0 72 72" fill="none" xmlns="http://www.w3.org/2000/svg">
<rect width="72" height="72" rx="36" fill="#35C0B7"/>
<g clip-path="url(#clip0_2789_62990)">
<path d="M48.1808 44.3444L48.5333 44.6989L48.8879 44.3464L49.2587 43.9776L49.2597 43.9766C49.6486 43.5878 50.1102 43.2793 50.6183 43.0689C51.1263 42.8584 51.6708 42.7501 52.2207 42.7501C52.7707 42.7501 53.3152 42.8584 53.8232 43.0689C54.3313 43.2793 54.7929 43.5878 55.1818 43.9766C55.5706 44.3655 55.8791 44.8271 56.0895 45.3352C56.3 45.8432 56.4083 46.3877 56.4083 46.9377C56.4083 47.4876 56.3 48.0321 56.0895 48.5402C55.8791 49.0482 55.5706 49.5098 55.1818 49.8987L48.5354 56.5431L41.8931 49.8987L41.8931 49.8987C41.1077 49.1134 40.6666 48.0483 40.6666 46.9377C40.6666 45.8271 41.1077 44.7619 41.8931 43.9766C42.6784 43.1913 43.7435 42.7501 44.8541 42.7501C45.9645 42.7501 47.0295 43.1912 47.8148 43.9763C47.8149 43.9764 47.815 43.9765 47.8151 43.9766L48.1808 44.3444ZM47.9999 25.5835V25.5837C48.001 28.6887 46.7981 31.6732 44.6442 33.9096C42.4913 36.1448 39.556 37.4587 36.4549 37.5753L35.9955 37.5835C29.3674 37.5811 23.9999 32.2121 23.9999 25.5835V25.5833C23.9988 22.4783 25.2017 19.4938 27.3557 17.2574C29.5085 15.0222 32.4439 13.7083 35.545 13.5917L36.0043 13.5835C42.6324 13.5859 47.9999 18.9549 47.9999 25.5835ZM26.8075 47.6411C24.4877 49.961 23.1351 53.0673 23.0095 56.3335H19.841C19.9653 52.3142 21.5842 48.4782 24.3912 45.5821C27.3135 42.567 31.2943 40.8072 35.491 40.675L35.4999 40.6749V43.8431C32.2338 43.9687 29.1274 45.3212 26.8075 47.6411ZM35.9999 16.7502C31.1196 16.7502 27.1666 20.7032 27.1666 25.5835C27.1666 30.4638 31.1196 34.4168 35.9999 34.4168C40.8802 34.4168 44.8333 30.4638 44.8333 25.5835C44.8333 20.7032 40.8802 16.7502 35.9999 16.7502Z" fill="white" stroke="#35C0B7"/>
</g>
<defs>
<clipPath id="clip0_2789_62990">
<rect width="50" height="50" fill="white" transform="translate(11 11)"/>
</clipPath>
</defs>
</svg>
