<svg width="95" height="25" viewBox="0 0 95 25" fill="none" xmlns="http://www.w3.org/2000/svg">
<g clip-path="url(#clip0_3831_34006)">
<path fill-rule="evenodd" clip-rule="evenodd" d="M0.587067 6.97796C1.29745 6.97796 1.79247 7.12826 2.09987 7.43533C2.44385 7.77894 2.59784 8.34652 2.59784 9.2754V20.8775C2.59784 22.483 2.26095 23.1991 0.272588 23.1991H0V23.9111H8.93581V23.2027L8.66617 23.1991C6.69669 23.1756 6.36451 22.4636 6.36451 20.8775V9.27481C6.36451 8.34888 6.51792 7.78366 6.8619 7.44063C7.17225 7.12885 7.67612 6.97737 8.40125 6.97737H8.93522V6.25537H0V6.97737H0.587067V6.97796Z" fill="black"/>
<path fill-rule="evenodd" clip-rule="evenodd" d="M29.1662 17.9925C29.1662 17.9925 29.0111 17.2681 28.9886 16.8626V11.5634C28.9538 8.47326 29.3757 6.93495 26.6711 6.94674V6.25244H32.8928V6.94674C30.1073 6.93554 30.4578 8.47385 30.4419 11.5634V23.9371L29.5562 23.9276L16.121 9.88249C16.121 9.88249 16.272 10.6057 16.2944 11.0118V19.6893C16.2183 22.855 16.6107 23.2375 18.6521 23.2003V23.9235H12.1661V23.2003C14.2105 23.2027 14.6123 22.931 14.6099 19.4312V19.6404V11.0884L14.5934 9.73102C14.6695 7.97405 14.0199 6.95499 12.0369 6.9715V6.27661H18.0084L29.1662 17.9925Z" fill="black"/>
<path fill-rule="evenodd" clip-rule="evenodd" d="M51.6884 5.91528H51.0028L50.971 6.14986C50.9244 6.49996 50.7863 7.0864 50.3869 7.0864C50.273 7.0864 49.9892 7.03277 49.6694 6.8866C48.2805 6.28542 46.4809 5.91528 44.9658 5.91528C42.0175 5.91528 39.3429 6.97029 37.4324 8.88698C35.6777 10.6481 34.7178 13.0451 34.7313 15.6355C34.7437 18.1168 35.7202 20.1579 37.7192 21.8783C39.7329 23.5993 41.9891 24.3331 45.2679 24.3331C47.9991 24.3331 49.5626 23.9412 51.9622 22.6545L52.3823 22.427V17.7974C52.3823 15.8241 52.6242 15.517 54.2314 15.4522L54.4928 15.4422V14.7544H46.6408V15.4422L46.9022 15.4522C48.6923 15.5217 49.0304 15.8424 49.0304 17.4738V21.764C47.7023 22.6392 46.737 22.9716 45.5198 22.9716C43.7185 22.9716 42.1154 22.2761 40.8846 21.0479C39.4432 19.6068 38.7399 17.508 38.7399 15.1363C38.7399 12.5813 39.4208 10.4017 40.8239 9.00133C41.9408 7.88561 43.4241 7.26616 45.1162 7.26616C46.6279 7.26616 48.3837 7.9139 49.588 8.86812C50.5674 9.6691 51.0754 10.4442 51.4589 11.7249L51.5173 11.9188H52.1876L51.6884 5.91528Z" fill="black"/>
<path fill-rule="evenodd" clip-rule="evenodd" d="M86.0799 23.8634C86.5165 23.7974 86.9797 23.8074 87.3278 23.488C88.8029 23.7143 90.298 23.3501 91.4574 22.5385C92.068 22.0464 92.6185 21.4752 93.064 20.8511C93.4557 20.3018 93.7649 19.7896 93.9649 19.1743C94.1142 18.7947 94.2322 18.3998 94.3213 17.9943C94.742 16.0823 94.5207 13.944 93.8977 12.1257C93.7838 11.788 93.6534 11.4609 93.5118 11.1491C92.7341 9.54363 91.6757 7.81142 90.046 6.7959C89.128 6.22419 88.2831 5.33952 87.7644 4.4236C87.4824 4.17017 87.2122 3.83422 86.8475 3.77351C86.9473 3.93795 87.057 4.09885 87.0841 4.29099L87.0629 4.3181C86.6759 4.3293 86.3726 4.12478 86.1077 3.87724L86.3997 3.6126C86.2894 3.55661 86.1631 3.53539 86.041 3.5071C84.9265 3.38039 84.0096 3.89433 83.0207 4.14188L83.0054 4.19669C83.6125 4.46663 83.7393 5.135 84.0928 5.58706C84.1801 5.48215 84.3294 5.55877 84.4515 5.54934C84.6279 5.55936 84.7937 5.68667 84.9648 5.64187C84.9701 5.49453 84.8869 5.37724 84.8604 5.24521C84.9648 5.19571 85.0917 5.23932 85.2085 5.24521C85.5283 5.43205 86.041 5.21221 86.2404 5.64187C85.8758 5.66486 85.5336 5.74148 85.1914 5.82458C85.2138 5.9625 85.3519 6.07213 85.3406 6.21063C85.048 6.08922 84.7382 6.0126 84.4125 5.97429L84.396 6.02321C84.8102 6.50828 85.379 6.7959 85.959 6.96623C86.7933 7.15896 87.5272 6.7623 88.3326 6.90022C90.3104 7.80493 91.9996 9.87428 92.7341 11.8381C92.7701 11.9324 92.805 12.0279 92.8374 12.1252C93.4528 13.9187 93.5696 16.123 92.953 17.9937C92.625 18.7717 92.2639 19.5061 91.6851 20.1385C91.4662 20.4078 91.2243 20.6477 90.9611 20.8505C90.1322 21.4953 89.1103 21.7799 88.0565 21.4911C87.9904 21.4458 87.8577 21.4346 87.8801 21.3196C87.9167 21.1658 87.9509 21.0102 87.981 20.8505C88.155 19.954 88.2364 19.011 88.1892 18.068C88.1881 18.0279 88.1869 17.9872 88.1857 17.9471C88.1273 16.578 87.8541 15.3474 87.3508 14.1633C87.0275 13.4837 86.644 12.7428 86.1608 12.078C85.5837 11.2853 84.868 10.6004 83.9488 10.2586C83.3853 10.1094 82.6897 10.0812 82.2649 10.5497C81.961 10.8155 81.8348 11.1733 81.8784 11.5658C81.4035 11.8664 80.8695 12.0285 80.2883 12.078C80.1461 12.0904 80.0004 12.1428 79.8523 12.1411C79.7119 12.1476 79.575 12.1417 79.4405 12.1252C78.7413 12.0391 78.0339 11.6619 77.4964 11.2316C77.4852 10.9446 77.4686 10.6747 77.4574 10.3711C77.1494 10.2114 76.894 9.90787 76.8727 9.54894L76.8999 9.52182C77.0775 9.57664 77.2309 9.66446 77.3913 9.75817C77.3194 9.32792 77.2362 8.90355 77.022 8.52811C76.8226 8.44501 76.6237 8.379 76.4367 8.27939C76.2213 8.13735 76.0827 7.87684 76.0508 7.64049C76.2438 7.82792 76.5801 7.76191 76.7293 7.95994C76.4691 7.19315 76.465 6.31613 76.039 5.61535C75.8237 5.09728 75.2602 4.85975 74.8737 4.4796C74.7245 4.29689 74.6643 4.04345 74.3941 4.01516C74.1728 3.96034 74.1563 3.7128 74.1179 3.5519C74.2554 3.5684 74.371 3.66211 74.4867 3.68392C74.1669 2.83579 73.8849 1.89159 73.0187 1.35112L72.87 1.44542C72.5331 1.49493 72.1738 1.51733 71.8375 1.52852C71.9868 1.30809 72.2511 1.21379 72.4612 1.11359C72.2181 0.932061 72.0181 0.888447 71.7142 0.838938C71.5378 1.01458 71.2186 1.10357 70.992 1.15308L70.9637 1.13069C70.9578 0.932061 70.913 0.689822 71.2121 0.639724C70.9248 0.501807 70.4486 0.557799 70.156 0.639724C70.074 0.854851 69.8368 1.04817 69.8539 1.30279C69.6834 1.47901 69.5618 1.71654 69.3842 1.84326C69.3789 1.41831 69.56 1.02695 69.6373 0.668604C69.3889 0.762317 69.1364 0.89493 68.8927 1.01045C68.5016 0.784124 68.0885 0.558388 67.669 0.386876C67.6313 0.370373 67.5475 0.35446 67.564 0.425776C67.9233 0.684518 67.7841 1.17076 67.8224 1.53913L67.5959 1.3523C67.4855 1.07116 67.1669 0.867228 67.1121 0.558388C66.7362 0.630294 66.4961 0.729311 66.148 0.878427L66.1002 0.906128C66.3592 0.906128 66.5799 1.10947 66.7067 1.31458C66.315 1.33579 65.9668 1.18196 65.5804 1.14247C65.542 1.10475 65.5084 1.05937 65.4476 1.06526C65.2547 1.13717 65.0883 1.2745 64.9184 1.40711C64.5372 1.78255 64.1502 2.1963 63.9685 2.69316C64.0959 2.71438 64.2558 2.70907 64.3496 2.78628C64.1401 2.913 63.9578 3.12872 63.7537 3.24954C63.6817 3.53657 63.6929 3.8631 63.6758 4.17665C63.5153 4.42007 63.3006 4.63402 63.1961 4.90573C62.8533 6.0126 62.7654 7.24383 62.815 8.501C62.704 8.6065 62.5601 8.6731 62.4562 8.75562L62.4675 9.88017H62.4946C62.5442 9.64383 62.8262 9.5118 62.9973 9.35149H63.0527C63.025 9.60493 62.992 9.85895 62.9867 10.1183L62.6669 10.3829C62.3459 10.6646 62.6167 11.089 62.5896 11.4426C62.612 11.5352 62.6273 11.6737 62.694 11.6961C62.733 11.5582 62.8539 11.4591 62.9318 11.3371C63.0693 11.3047 63.1908 11.1933 63.3177 11.178C63.2457 11.4538 63.153 11.7238 63.0415 11.9884C62.9884 12.0232 62.9265 12.0698 62.8734 12.1263C62.8167 12.187 62.7713 12.2548 62.7595 12.3303C63.0091 13.6369 63.3997 14.9277 63.8463 16.1578C63.5436 16.6711 63.3714 17.2752 63.1188 17.8051C63.0823 17.8788 63.0498 17.9548 63.0197 18.0314C62.766 18.6727 62.6887 19.39 62.373 20.0059C62.245 19.9187 62.107 19.8509 61.9648 19.7908C61.3677 19.5921 60.6773 19.7189 60.2419 20.1774C59.8549 20.1055 59.4572 20.1715 59.1533 20.376C58.9356 20.5381 58.7675 20.7355 58.6707 20.9654C58.6046 21.1257 58.5745 21.3002 58.5846 21.4906C58.3367 21.6609 58.204 21.9249 58.1214 22.1908C58.0057 22.786 58.2152 23.4061 58.5574 23.8646H86.0799V23.8634Z" fill="white"/>
<path fill-rule="evenodd" clip-rule="evenodd" d="M82.4247 11.461C82.4188 11.6042 82.3144 11.7651 82.4082 11.886C82.541 11.7368 82.7622 11.7421 82.9386 11.6767C83.4295 11.6325 83.8992 11.7863 84.357 11.8977C84.242 11.715 84.1641 11.5123 84.0372 11.3461C83.7823 11.2801 83.3965 11.4563 83.3528 11.0814C83.1976 10.9488 82.954 11.0437 82.7953 11.0532C82.6401 11.1645 82.5132 11.3013 82.4247 11.461Z" fill="white"/>
<path fill-rule="evenodd" clip-rule="evenodd" d="M65.5492 6.69866C65.5468 6.69631 65.5433 6.69395 65.5409 6.69336C65.5409 6.69336 65.5409 6.69631 65.5421 6.69866H65.5492Z" fill="white"/>
<path fill-rule="evenodd" clip-rule="evenodd" d="M67.5563 11.6013L67.8879 11.2819C67.9162 11.2819 67.9375 11.2878 67.954 11.3102L67.9262 11.922C68.0861 12.0711 68.285 12.1206 68.4944 12.1318C68.5115 11.9662 68.6384 11.8507 68.7104 11.7068C68.7712 11.5913 68.7328 11.4198 68.8538 11.3367L68.8915 11.3756C68.931 11.5571 68.9204 11.7617 69.0142 11.9214C69.0254 12.0092 69.0414 12.12 69.052 12.1972C69.2951 12.209 69.5152 12.1418 69.7034 12.054C69.6922 11.8448 69.7647 11.6732 69.7966 11.4799C69.8473 11.4133 69.7358 11.2925 69.8745 11.2984C69.9518 11.4634 70.0898 11.6343 70.1671 11.8106C70.4869 11.4852 70.6197 11.0609 70.697 10.62C70.6037 10.4921 70.4598 10.4921 70.3489 10.4102C69.4107 10.1067 68.2059 10.0454 67.3002 10.5145C67.2418 10.8905 67.3191 11.3043 67.5563 11.6013Z" fill="white"/>
<path fill-rule="evenodd" clip-rule="evenodd" d="M58.7816 21.9522C58.7479 22.3777 58.7816 22.7761 58.8081 23.1952C58.8972 23.3331 59.0576 23.4934 59.2163 23.5046L59.2452 23.2229C59.3107 22.8304 59.1013 22.4143 59.3225 22.0836C59.477 22.1331 59.6304 22.2103 59.7643 22.2822C59.8291 21.918 59.7365 21.4936 59.3885 21.2732L58.7816 21.9522Z" fill="white"/>
<path fill-rule="evenodd" clip-rule="evenodd" d="M60.1445 21.3575C59.9292 22.0023 59.7688 22.7991 60.0295 23.4775C60.1776 23.3791 60.3327 23.2848 60.4642 23.1469C60.4377 22.6276 60.3657 22.0736 60.6742 21.6434C60.9444 21.7265 61.1278 21.9858 61.2316 22.2398C61.4145 22.007 61.4752 21.6876 61.4033 21.3781C61.4145 21.1365 61.1372 21.1919 61.0051 21.0917C61.0499 20.8878 61.0435 20.6514 61.2593 20.5359L60.5969 20.6019C60.4265 20.8435 60.2389 21.0817 60.1445 21.3575Z" fill="white"/>
<path fill-rule="evenodd" clip-rule="evenodd" d="M61.5087 23.2619C61.537 23.3125 61.5087 23.3998 61.5641 23.411C61.6473 22.9483 62.0226 22.6477 62.2273 22.2399C62.3258 22.1019 62.3199 21.9086 62.4804 21.8037C62.6964 21.8037 62.851 21.9587 63.061 21.9752C63.1271 22.0247 63.0268 22.0683 63.0221 22.1232C62.9784 22.4992 62.8344 22.8104 62.8622 23.1958H62.8999C63.1926 22.8882 63.3914 22.5534 63.6068 22.2004L63.6445 21.8868C63.6941 21.5114 63.2858 21.2691 63.0209 21.1147L63.2581 20.8112L62.9271 20.6951C62.54 20.734 62.1919 20.8937 61.9217 21.1978C61.586 21.8149 61.5311 22.5122 61.5087 23.2619Z" fill="white"/>
<path fill-rule="evenodd" clip-rule="evenodd" d="M62.9944 19.9882C63.1212 20.0271 63.2369 19.9222 63.3631 19.9776C63.8717 20.1644 64.4022 20.3578 64.7827 20.7827L65.2359 21.935L65.4624 21.2242L65.3132 20.8375C65.1863 20.5617 64.8382 20.5841 64.6004 20.5729C64.5019 20.4627 64.6063 20.3354 64.6399 20.231C64.755 19.8397 64.2747 19.8609 64.0818 19.7024C64.0936 19.4648 63.8057 19.5473 63.6452 19.5249L63.5903 19.4589C63.5578 19.4094 63.4752 19.4094 63.4304 19.4477C63.4186 19.4318 63.3974 19.4206 63.4092 19.3923L63.2864 19.4206C63.1159 19.5697 62.9997 19.7625 62.9944 19.9882Z" fill="white"/>
<path fill-rule="evenodd" clip-rule="evenodd" d="M63.3141 18.7205C63.3306 18.7918 63.3749 18.8637 63.4297 18.9073C63.6787 18.8413 63.9153 18.6709 64.2027 18.7747C64.5732 19.1 64.9591 19.4419 65.4075 19.6193L65.5668 19.591C65.6665 19.6252 65.7762 19.6299 65.8429 19.7401C65.9043 19.8892 65.7503 19.9776 65.6995 20.0984C65.9485 20.2806 65.8488 20.6065 66.004 20.8263L66.4016 20.2971C66.3084 20.0649 66.407 19.6682 66.0423 19.6464C65.9214 19.5851 65.8382 19.4637 65.8435 19.3258C65.6069 19.1106 65.3142 19.0175 65.0759 18.7971C64.8829 18.6421 64.7673 18.4045 64.5183 18.3497C64.3478 18.2566 64.1608 18.2065 63.9619 18.1629C63.5902 18.1081 63.5578 18.5484 63.3141 18.7205Z" fill="white"/>
<path fill-rule="evenodd" clip-rule="evenodd" d="M63.844 17.6337L63.9107 17.7386C64.1862 17.7216 64.4358 17.6007 64.7066 17.606C64.8883 17.7168 65.1261 17.7115 65.3131 17.8047C65.4624 18.0086 65.6229 18.2402 65.8424 18.3787C66.2908 18.4441 66.5386 18.9245 66.6932 19.277V19.106C66.7593 18.8697 66.6873 18.5933 66.5988 18.3787C66.4885 18.2679 66.3286 18.1954 66.2129 18.0964C66.1905 18.0251 66.207 17.9915 66.2294 17.9255C66.0577 17.7434 65.804 17.6438 65.5946 17.5011C65.3019 17.0762 64.7385 17.1923 64.2912 17.0762L63.844 17.6337Z" fill="white"/>
<path fill-rule="evenodd" clip-rule="evenodd" d="M63.8351 13.5869C63.884 13.7584 63.9442 13.9735 63.9766 14.155C64.1312 13.8132 64.4361 13.6599 64.7063 13.3782C64.5512 13.2727 64.3589 13.2232 64.1878 13.1902V13.1802C64.0663 13.301 63.8787 13.4224 63.8351 13.5869Z" fill="white"/>
<path fill-rule="evenodd" clip-rule="evenodd" d="M64.8381 15.4016L65.0865 15.1481C65.3354 14.8947 65.5395 14.6018 65.5778 14.2764C65.4014 14.1715 65.1696 14.2428 64.9986 14.3036C64.9366 14.6631 64.844 15.0161 64.8381 15.4016Z" fill="white"/>
<path fill-rule="evenodd" clip-rule="evenodd" d="M65.0199 16.1796C65.4015 16.202 65.7708 16.278 66.0804 16.0647L66.3889 15.071C66.2904 15.0651 66.1902 15.0215 66.097 15.0545C65.8935 15.5071 65.4835 15.9533 65.0199 16.1796Z" fill="white"/>
<path fill-rule="evenodd" clip-rule="evenodd" d="M65.1319 12.6605C65.3803 13.0253 65.7943 13.4331 66.2196 13.5481C66.1701 13.0854 65.7731 12.7648 65.5684 12.3681L65.5566 12.2355C65.3968 12.0805 65.2033 11.9768 65.0376 11.8931C65.011 12.1589 65.083 12.4129 65.1319 12.6605Z" fill="white"/>
<path fill-rule="evenodd" clip-rule="evenodd" d="M66.4784 16.2238C66.771 16.2745 67.0853 16.2238 67.3555 16.1401C67.7483 16.0476 67.9636 15.6167 68.0958 15.2808H67.6044L67.0741 15.7988C66.8653 15.9096 66.6654 16.0758 66.4784 16.2238Z" fill="white"/>
<path fill-rule="evenodd" clip-rule="evenodd" d="M66.4188 12.1589C66.502 12.5892 66.6831 12.9805 66.9326 13.3507L66.9986 12.5285L66.4188 12.1589Z" fill="white"/>
<path fill-rule="evenodd" clip-rule="evenodd" d="M68.2288 14.3042C68.2619 14.0283 68.1468 13.7089 68.115 13.4277C67.9486 13.3169 67.7162 13.3281 67.5458 13.2185C67.5564 13.6541 67.8979 14.023 68.2288 14.3042Z" fill="white"/>
<path fill-rule="evenodd" clip-rule="evenodd" d="M67.7262 17.1074C68.0742 16.9966 68.4104 16.8752 68.7301 16.6984C68.9342 16.4072 69.2439 16.1408 69.2875 15.7996C69.0339 15.8709 68.8127 15.789 68.5762 15.9051C68.4328 16.1638 68.3438 16.4567 68.0683 16.6436C68.0247 16.8304 67.82 16.9583 67.7262 17.1074Z" fill="white"/>
<path fill-rule="evenodd" clip-rule="evenodd" d="M68.2667 17.7856L68.6808 18.3255C68.902 18.3974 69.178 18.375 69.3709 18.2483L69.2217 17.7573C68.9297 17.8687 68.5823 17.8345 68.2667 17.7856Z" fill="white"/>
<path fill-rule="evenodd" clip-rule="evenodd" d="M68.9576 13.8791L69.1175 14.6076C69.5033 14.2929 69.5817 13.8349 69.5723 13.3499C69.3511 13.6033 69.2219 13.7583 68.9576 13.8791Z" fill="white"/>
<path fill-rule="evenodd" clip-rule="evenodd" d="M70.045 15.1653C70.0509 15.2696 70.0787 15.3692 70.1394 15.4523C70.5694 15.6061 70.6137 16.1301 71.0118 16.3287C71.2708 16.4443 71.568 16.3004 71.7951 16.1961C71.6241 16.0034 71.43 15.8696 71.2654 15.6663C71.1492 15.6168 71.033 15.5449 71.0389 15.4016L70.045 15.1653Z" fill="white"/>
<path fill-rule="evenodd" clip-rule="evenodd" d="M70.3872 17.7687C70.5754 17.9839 70.829 18.0941 71.0938 18.1542C71.0502 18.0935 71.1222 18.1542 71.1328 18.1159L70.8007 17.3892C70.6355 17.3933 70.4645 17.4269 70.3099 17.4163C70.3206 17.5365 70.3489 17.6573 70.3872 17.7687Z" fill="white"/>
<path fill-rule="evenodd" clip-rule="evenodd" d="M70.9729 14.3703C70.8178 14.0119 70.7529 13.5763 70.7092 13.1797C70.5435 13.3777 70.3724 13.505 70.2179 13.7084C70.1459 14.1168 70.7293 14.217 70.9729 14.3703Z" fill="white"/>
<path fill-rule="evenodd" clip-rule="evenodd" d="M71.6462 13.996C71.845 14.2547 72.2809 14.1663 72.5251 14.0891C72.4083 13.8905 72.0344 13.775 71.9683 13.5598C71.9294 13.1797 71.8533 12.8101 71.7306 12.4624C71.5371 12.931 71.3041 13.4885 71.6462 13.996Z" fill="white"/>
<path fill-rule="evenodd" clip-rule="evenodd" d="M71.9939 15.1653C72.5467 15.5685 73.0872 16.0365 73.8601 15.8655C73.9156 15.8266 74.0094 15.8319 74.0206 15.7606C73.7935 15.6168 73.5515 15.5066 73.3191 15.3752L73.0547 14.9885H72.9332C72.6347 15.0881 72.3137 15.1259 71.9939 15.1653Z" fill="white"/>
<path fill-rule="evenodd" clip-rule="evenodd" d="M72.0056 19.6389H72.0434C72.3756 19.3742 72.7673 19.2858 73.1591 19.175C73.2647 19.2133 73.198 19.3294 73.2919 19.3742C73.5296 19.2746 73.817 19.297 74.0595 19.2139C74.3527 19.2257 74.5905 19.231 74.8271 19.3577C75.0141 19.6053 75.3681 19.5788 75.6118 19.7432L75.5729 19.3577C75.0595 18.756 74.2583 18.7118 73.5196 18.7236L73.5025 18.6458C73.3261 18.6458 73.1278 18.6847 72.962 18.7625C72.7248 18.7725 72.4983 18.8892 72.2711 18.9605C72.1655 19.1703 72.0829 19.4232 72.0056 19.6389Z" fill="white"/>
<path fill-rule="evenodd" clip-rule="evenodd" d="M72.4487 12.8597C72.664 13.1414 72.9837 13.3559 73.3482 13.2846C73.1612 13.1025 72.9453 12.9086 72.9341 12.6499C72.9896 12.1589 72.4487 12.1206 72.1838 11.866C72.2711 12.1978 72.2611 12.5668 72.4487 12.8597Z" fill="white"/>
<path fill-rule="evenodd" clip-rule="evenodd" d="M72.3927 20.6153H72.457C72.7502 20.432 73.1757 20.5706 73.463 20.3772C73.6229 20.2941 73.6335 20.5152 73.745 20.5759C74.0152 20.7415 74.0483 21.2372 74.4294 21.1222C74.8873 21.3592 74.7716 21.9173 74.7882 22.3252L75.2136 22.0605C75.1746 21.8454 75.2956 21.5849 75.1575 21.3981C75.0531 21.1617 74.7663 21.1393 74.6283 20.946C74.7941 20.6643 74.4188 20.5328 74.3409 20.3283L74.3634 20.3L74.9475 20.3772C75.1475 20.4986 75.2183 20.7197 75.2796 20.9236C75.7381 21.0008 75.8484 21.5189 76.0089 21.8501C76.1027 21.6238 76.1411 21.381 76.2355 21.1611C76.2408 20.9784 75.9977 20.9784 75.8768 20.8965C75.8425 20.6153 75.7163 20.3495 75.4685 20.1792C74.9599 20.0525 74.5132 19.7708 73.9557 19.7708L73.4913 19.9146C73.237 19.9753 72.9668 19.8981 72.7738 20.0737C72.4853 20.0955 72.4635 20.4108 72.3927 20.6153Z" fill="white"/>
<path fill-rule="evenodd" clip-rule="evenodd" d="M72.6842 18.3421L72.7898 18.3916C73.0152 18.2861 73.2424 18.1653 73.4801 18.0768C73.8495 17.9719 74.1368 18.3916 74.4466 18.1269C74.5622 18.0438 74.6608 18.1653 74.7498 18.2319C74.8826 18.4747 75.1918 18.4582 75.4236 18.5242C75.308 18.21 75.1646 17.7792 74.7611 17.7285C74.6012 17.6572 74.413 17.6643 74.2584 17.5694C73.8336 17.1008 73.5574 17.9548 73.0931 17.7456C72.9279 17.9289 72.7237 18.0992 72.6842 18.3421Z" fill="white"/>
<path fill-rule="evenodd" clip-rule="evenodd" d="M72.7898 21.0285C72.9662 21.1764 73.1478 21.431 73.4233 21.3974C73.7672 21.5577 73.6232 22.0092 73.8108 22.2467L74.009 22.0699L73.9925 22.0593L74.0208 22.0316L74.0326 22.0481C74.0875 21.8819 74.0096 21.5896 73.9158 21.3968C73.789 21.3096 73.6398 21.4027 73.5188 21.3196C73.5017 21.1434 73.3914 21.055 73.2646 20.9448C73.1761 20.8788 73.0599 20.9672 72.9608 20.9613L72.7898 21.0285Z" fill="white"/>
<path fill-rule="evenodd" clip-rule="evenodd" d="M73.4801 14.3042C73.6624 14.6084 74.0151 14.7958 74.297 15.005C74.5283 15.1105 74.832 15.137 75.0809 15.0822C74.8438 14.8895 74.6279 14.6691 74.4298 14.4363C74.3525 14.326 74.3354 14.1887 74.231 14.0891C73.9703 14.1392 73.6789 14.1339 73.4801 14.3042Z" fill="white"/>
<path fill-rule="evenodd" clip-rule="evenodd" d="M73.7845 12.3302C74.0394 12.6438 74.431 12.5177 74.7897 12.5283V12.4906L74.2376 12.0261C74.0824 12.0762 73.9179 12.2135 73.7845 12.3302Z" fill="white"/>
<path fill-rule="evenodd" clip-rule="evenodd" d="M63.6198 7.12826L63.9394 8.12138C63.9336 7.55852 64.1931 7.08995 64.1382 6.51648L64.3759 6.16284L63.8728 6.31726C63.7407 6.5707 63.631 6.82532 63.6198 7.12826Z" fill="white"/>
<path fill-rule="evenodd" clip-rule="evenodd" d="M63.8351 5.40747L64.2704 5.15344V4.50806C64.0881 4.61886 63.9879 4.80629 63.8457 4.9554L63.8351 5.40747Z" fill="white"/>
<path fill-rule="evenodd" clip-rule="evenodd" d="M72.791 6.4117C72.6854 6.54961 72.5261 6.58262 72.3939 6.61032C72.6252 6.18537 72.7361 5.59421 72.5532 5.11445C72.6754 5.07083 72.8081 5.04962 72.9238 4.98243L72.9119 4.97182L73.2164 4.706C73.6194 4.43017 73.4648 3.90679 73.6141 3.51544C73.4152 3.20601 73.3551 2.83115 73.0671 2.57123L73.0842 2.56121C72.8571 2.27418 72.4488 2.3066 72.1384 2.16338C71.7302 2.02546 71.4157 2.3066 71.123 2.4952C70.9962 2.51642 71.0735 2.68204 70.9354 2.67673C70.8581 2.88125 70.7637 3.10168 70.7088 3.32742C70.1619 3.24962 69.5719 3.31151 69.1353 3.61976C68.9028 3.44942 68.6213 3.41583 68.3505 3.33862C68.1523 3.30031 67.9257 3.37221 67.7829 3.26082C67.5735 3.02447 67.528 2.59363 67.1687 2.53351C67.0425 2.48931 67.0153 2.35198 67.0153 2.22998C66.7775 2.19167 66.5669 2.08204 66.335 2.03135C65.9828 1.87104 65.7014 2.12566 65.4359 2.29599C65.3202 2.34609 65.1875 2.362 65.0777 2.42919C64.8789 2.73744 64.6907 3.05218 64.5638 3.39343C64.6027 3.67457 64.7237 3.92329 64.8683 4.16023C64.9951 4.51917 65.3922 4.8003 65.7291 4.94412C65.5692 5.48989 65.5692 6.14117 65.7291 6.69283C65.7291 6.69283 65.7196 6.69932 65.7196 6.69814C65.7196 6.69932 65.7019 6.71346 65.7019 6.71346C65.6488 6.71346 65.5928 6.72407 65.5491 6.69814H65.5421C65.6193 7.22505 65.8677 7.68596 66.269 8.08144C66.4129 8.13212 66.3799 8.30246 66.4412 8.41326C66.479 8.46218 66.4843 8.56709 66.4678 8.6113C65.6075 8.5836 64.8393 8.79872 64.149 9.19008C63.9726 9.27849 64.0505 9.5219 64.034 9.69224C64.5196 9.37279 65.0441 9.13527 65.6235 9.03094C65.8719 9.01444 66.1533 8.95373 66.3911 9.01974L66.4188 9.4942C65.7621 9.83605 65.0441 10.0347 64.4806 10.5975C64.4918 10.7679 64.4594 10.9671 64.5089 11.1109L65.0116 10.7019C65.4966 10.3335 66.0046 10.0182 66.5628 9.81424C66.7121 9.99106 66.8672 10.1785 67.0661 10.2881C67.4024 10.073 67.767 9.91385 68.1535 9.81424C68.3582 9.69283 68.6827 9.80304 68.8155 9.5608L68.9099 9.05864C68.8928 9.04745 68.8827 9.02623 68.8544 9.03212C68.5954 8.88301 68.4243 8.62426 68.4461 8.32014C68.3582 8.36375 68.2591 8.39204 68.1535 8.39735C68.065 8.37495 67.983 8.35373 67.944 8.26474C67.9381 8.15393 67.8827 7.9889 67.993 7.90639C68.3517 7.68537 68.8161 7.67417 69.2692 7.70835C69.6055 7.75197 70.0923 7.73488 70.2073 8.1333C70.192 8.24882 70.202 8.37554 70.0864 8.45275C69.9648 8.51876 69.8273 8.44686 69.7158 8.39794C69.6285 8.66788 69.4792 8.972 69.1748 9.05923L69.2143 9.37986C69.2521 9.52367 69.2633 9.76002 69.4904 9.71051C70.015 9.83723 70.4781 10.1078 70.9366 10.4001C71.0912 10.2451 71.2127 10.0683 71.3225 9.90913C72.1396 10.1844 72.8471 10.7968 73.5203 11.3649L73.5486 10.9017C72.9078 10.3335 72.1951 9.93094 71.4552 9.61621C71.4835 9.46709 71.5166 9.32328 71.5213 9.16415C72.3998 9.21306 73.2323 9.48359 73.9569 9.90913L73.9451 9.51189C73.1834 9.10403 72.3497 8.8335 71.4381 8.8223C71.4051 8.77161 71.3944 8.70088 71.4003 8.65079C71.8423 8.57888 72.1561 8.12151 72.2623 7.72368C72.4877 7.46493 72.8146 7.18321 72.7373 6.79775C72.7473 6.76651 72.7585 6.73232 72.7698 6.69932C72.7993 6.60207 72.824 6.50128 72.791 6.4117Z" fill="white"/>
<path fill-rule="evenodd" clip-rule="evenodd" d="M73.5592 7.82921L74.0116 7.6854L74.0606 7.43196C74.1886 7.06241 73.9184 6.78658 73.7845 6.49365L73.5592 7.82921Z" fill="white"/>
<path fill-rule="evenodd" clip-rule="evenodd" d="M74.7008 9.57776C74.9161 9.8141 75.1261 10.1954 75.5078 10.0787C75.4794 9.9196 75.391 9.78758 75.3361 9.64377C75.2358 9.52707 75.2034 9.19642 75.0046 9.31312C74.8554 9.21351 74.8176 9.04731 74.7227 8.91528C74.6796 9.11921 74.7067 9.37324 74.7008 9.57776Z" fill="white"/>
<path fill-rule="evenodd" clip-rule="evenodd" d="M74.7788 11.1927C74.862 11.3094 74.8844 11.4585 74.9658 11.5628C75.115 11.6613 75.3362 11.6459 75.5179 11.6288C75.6836 11.5905 75.7886 11.7721 75.9432 11.6666C75.7509 11.5457 75.6353 11.3247 75.4518 11.1656C75.2359 10.9947 75.0053 11.1438 74.7788 11.1927Z" fill="white"/>
<path fill-rule="evenodd" clip-rule="evenodd" d="M75.0713 13.7585C75.4518 13.9848 75.9366 14.2058 76.4445 14.1286C76.4993 14.1003 76.5937 14.1062 76.6043 14.0396C76.2899 13.9288 75.9596 13.6147 75.6293 13.5487C75.4465 13.2675 75.2093 13.6206 74.9775 13.5982C74.9828 13.6648 75.0489 13.7149 75.0713 13.7585Z" fill="white"/>
<path fill-rule="evenodd" clip-rule="evenodd" d="M76.219 18.6287L76.3022 18.8061C76.3853 19.3801 76.7487 19.9088 76.5499 20.5377C76.7156 20.6532 76.7658 20.8459 76.8702 21.0004H76.8979C77.0247 20.5212 76.9368 20.0243 76.8702 19.544C76.9197 19.1084 76.4779 18.8544 76.219 18.6287Z" fill="white"/>
<path fill-rule="evenodd" clip-rule="evenodd" d="M76.314 12.9805C76.6012 13.2015 77.0595 13.2233 77.3899 13.1131C77.1805 12.9975 76.9492 12.8708 76.777 12.7158L76.314 12.9805Z" fill="white"/>
<path fill-rule="evenodd" clip-rule="evenodd" d="M77.6763 14.6742C77.648 14.9065 77.8031 15.0992 77.9689 15.2147C78.0296 15.0768 78.1287 14.9613 78.1393 14.8069C78.0904 14.5693 77.9577 14.3548 77.7424 14.1951C77.7035 14.3489 77.6598 14.4968 77.6763 14.6742Z" fill="white"/>
<path fill-rule="evenodd" clip-rule="evenodd" d="M77.6934 17.1887C77.6545 17.4475 77.9412 17.4817 78.0627 17.6249C78.1624 17.7457 77.9966 17.8288 77.9966 17.9443C78.206 18.2143 78.3275 18.5237 78.3275 18.8826C78.4107 18.5467 78.5375 18.2255 78.5829 17.8783C78.5605 17.6361 78.1747 17.6856 78.2349 17.4156C78.3446 17.1398 78.2125 16.8693 78.1405 16.6217C78.1181 16.5822 78.0686 16.505 78.0255 16.5274C77.9241 16.7538 77.6763 16.9129 77.6934 17.1887Z" fill="white"/>
<path fill-rule="evenodd" clip-rule="evenodd" d="M78.4498 15.876L78.7365 16.433C78.8639 16.4176 78.9453 16.295 79.045 16.2078C79.1228 15.9756 78.9182 15.8265 78.858 15.639C78.8073 15.5064 78.858 15.3302 78.7636 15.2141C78.6923 15.1705 78.6085 15.0986 78.5259 15.1198L78.4498 15.876Z" fill="white"/>
<path fill-rule="evenodd" clip-rule="evenodd" d="M78.8192 14.4097C79.0458 14.547 79.3048 14.7456 79.4258 14.9879C79.6199 15.5507 79.929 16.0582 80.155 16.604C80.2382 16.9847 80.3043 17.3242 80.4093 17.6996C80.4482 17.7975 80.4258 17.9908 80.581 17.9749C80.6247 17.5558 80.7079 17.1533 80.7132 16.7171C80.5757 16.5356 80.3922 16.4584 80.2217 16.347V16.3093C80.2441 16.215 80.3214 16.1048 80.4376 16.1224C80.4866 16.0659 80.6359 16.0116 80.5704 15.9126C80.283 15.6262 80.2996 15.1317 79.8405 15.0427C79.6812 14.9767 79.6417 14.8116 79.6264 14.6572C79.4104 14.4763 79.0894 14.4138 78.8192 14.4097Z" fill="white"/>
<path fill-rule="evenodd" clip-rule="evenodd" d="M79.0835 17.399C79.3654 17.6571 79.2669 18.0326 79.2439 18.3803C79.2003 18.5902 79.4651 18.4687 79.5483 18.579C79.7187 18.833 79.6196 19.2025 79.5583 19.4784C79.7081 19.2514 79.8792 19.0528 79.9948 18.8053C79.9889 18.711 80.1098 18.6674 80.1057 18.5518C80.1546 18.3915 79.9676 18.4634 79.8904 18.4458C79.8243 18.4292 79.7524 18.385 79.7736 18.2972C79.9175 18.0208 79.7854 17.6902 79.7299 17.4149C79.6639 17.188 79.7583 16.8856 79.6527 16.687C79.4763 16.9298 78.9513 16.9852 79.0835 17.399Z" fill="white"/>
<path fill-rule="evenodd" clip-rule="evenodd" d="M79.5974 13.4819C80.0893 13.9788 80.448 14.4774 80.9777 14.9577C80.9895 14.7438 80.9611 14.544 80.9499 14.3342C80.8721 14.1862 80.7287 14.0754 80.6072 13.9652C80.2162 13.9263 80.0115 13.3994 79.5974 13.4819Z" fill="white"/>
<path fill-rule="evenodd" clip-rule="evenodd" d="M80.8843 16.1112C80.8955 16.1608 80.9179 16.2044 80.9391 16.2545C81.1544 16.6081 81.3585 16.9712 81.5083 17.3519C81.4641 16.9446 81.7407 16.436 81.3756 16.1224C81.3261 15.9898 81.1603 16.034 81.0553 16.0446L80.8843 16.1112Z" fill="white"/>
<path fill-rule="evenodd" clip-rule="evenodd" d="M82.2095 20.141C82.3646 20.2112 82.5629 20.0844 82.7122 19.9972C82.8502 19.9636 82.9665 20.0408 83.0715 20.1127C83.1151 20.2005 83.0715 20.2831 83.0868 20.3662C83.419 20.4599 83.7441 20.5813 84.0373 20.774L84.13 20.6809C84.1524 20.4434 83.9654 20.2736 83.7884 20.141C83.6727 20.0732 83.5004 20.1127 83.419 20.0072C83.4739 19.92 83.4739 19.7874 83.468 19.6878C83.2851 19.6878 83.1694 19.6324 83.0202 19.544C82.9275 19.5169 82.8437 19.4396 82.7664 19.544C82.4909 19.732 82.4744 20.0072 82.2095 20.141Z" fill="white"/>
<path fill-rule="evenodd" clip-rule="evenodd" d="M82.5964 13.199C82.7339 13.1613 82.8784 13.1212 82.994 13.0228C83.3627 12.6863 83.8988 12.912 84.3288 12.9067C84.2468 12.7576 84.1301 12.6096 84.0257 12.4817C83.8711 12.421 83.7272 12.3491 83.5508 12.3491C83.1751 12.1293 82.922 12.4982 82.6342 12.6798C82.5575 12.8301 82.5192 13.0499 82.5964 13.199Z" fill="white"/>
<path fill-rule="evenodd" clip-rule="evenodd" d="M82.6072 14.3342C82.6072 14.3189 82.6072 14.3012 82.6237 14.2965C82.6732 14.3407 82.6178 14.445 82.701 14.4668C82.8443 14.3961 82.9771 14.2965 83.1093 14.2034C83.4798 14.2034 83.7005 13.845 84.0639 13.845C84.671 13.9546 85.274 14.076 85.8033 14.3737C85.7655 14.0153 85.4558 13.69 85.1419 13.5291C84.9643 13.4684 84.8262 13.5633 84.6994 13.6617C84.3288 13.8945 84.5229 13.3258 84.2633 13.314C83.9264 13.4201 83.5783 13.535 83.2037 13.5026C82.9824 13.5845 82.8272 13.7878 82.5794 13.7666C82.5682 13.9487 82.5405 14.1698 82.6072 14.3342Z" fill="white"/>
<path fill-rule="evenodd" clip-rule="evenodd" d="M82.8614 15.5654C82.9764 15.6862 83.1694 15.6638 83.3363 15.6862L83.816 15.4994C83.8219 15.411 83.6726 15.388 83.7051 15.2901C83.8379 15.141 84.0208 15.2453 84.1854 15.184C84.4184 15.1516 84.6556 14.92 84.8863 15.0909C84.881 15.118 84.8981 15.1575 84.8763 15.184C84.8031 15.3556 84.9258 15.4599 85.058 15.5259C85.3288 15.5766 85.5825 15.8247 85.8533 15.7133C85.8262 15.4876 85.7654 15.2783 85.7094 15.0626C85.4834 15.0237 85.3235 14.8363 85.1135 14.7585C85.0191 14.8469 84.8981 14.9135 84.7819 14.9023C84.3565 14.8033 83.8485 14.5387 83.4183 14.8092C83.2632 14.996 82.987 14.9412 82.7776 15.0231C82.7894 15.2123 82.8106 15.3939 82.8614 15.5654Z" fill="white"/>
<path fill-rule="evenodd" clip-rule="evenodd" d="M83.0431 18.8437C83.0095 18.9374 82.9163 19.0924 83.0867 19.136C83.4406 19.1478 83.893 18.9657 84.1697 19.2409C84.2629 19.3134 84.2186 19.4614 84.2133 19.5557L84.6764 19.9423C84.7212 19.7101 84.8032 19.5002 84.8091 19.2515C84.7713 19.0753 84.6823 18.9038 84.5283 18.7883C84.224 18.7883 84.047 18.4329 83.7214 18.4782C83.5509 18.4388 83.4023 18.5902 83.2301 18.5902C83.1528 18.6674 83.1091 18.7617 83.0431 18.8437Z" fill="white"/>
<path fill-rule="evenodd" clip-rule="evenodd" d="M83.1759 16.2438C83.2473 16.3917 83.3311 16.6351 83.4686 16.6516C83.7943 16.5084 84.2686 16.4194 84.6338 16.5744C84.7554 16.5962 84.7554 16.7341 84.7282 16.8231C84.9153 16.9334 85.1424 17.0206 85.3407 17.1426L85.2858 16.8119C85.274 16.453 84.8215 16.4194 84.7937 16.0658C84.4238 15.945 84.0096 15.9066 83.6178 16.0004C83.4898 16.1165 83.3087 16.1 83.1535 16.1336C83.1435 16.1772 83.17 16.2043 83.1759 16.2438Z" fill="white"/>
<path fill-rule="evenodd" clip-rule="evenodd" d="M83.2703 18.0308C83.4856 17.9701 83.6224 17.7326 83.8548 17.7113C84.2081 17.7172 84.5231 17.8593 84.7431 18.1634C84.877 18.2512 84.8487 18.4781 85.0192 18.4781C84.9696 18.207 85.0581 17.9589 85.0475 17.683C84.8145 17.2976 84.2423 17.5946 84.0265 17.1426L83.6183 17.1697C83.3257 17.2416 83.4036 17.584 83.3635 17.8157C83.3304 17.8876 83.2644 17.9424 83.2703 18.0308Z" fill="white"/>
<path fill-rule="evenodd" clip-rule="evenodd" d="M85.2952 20.4434C85.4668 20.7852 85.8431 21.0451 85.8809 21.4371C85.9694 21.3316 86.0301 21.2108 86.0909 21.0952C86.085 20.9844 85.9576 20.9844 85.9074 20.8966C85.8579 20.7534 85.9357 20.6267 85.9576 20.4988C85.8862 20.2943 85.7145 20.1015 85.5217 19.9807L85.2952 20.4434Z" fill="white"/>
<path fill-rule="evenodd" clip-rule="evenodd" d="M85.9761 19.5722L86.373 20.1127C86.5435 19.8422 86.5435 19.4455 86.4774 19.119C86.4397 19.0583 86.3671 18.9592 86.268 19.0035C86.1182 19.1585 86.097 19.3948 85.9761 19.5722Z" fill="white"/>
<path fill-rule="evenodd" clip-rule="evenodd" d="M84.3571 4.47369C84.501 4.5456 84.639 4.61161 84.8095 4.62222C84.9263 4.5621 85.0755 4.5179 85.2188 4.55621C85.4229 4.68882 85.6712 4.52851 85.9078 4.53971C85.699 4.34167 85.4607 4.22026 85.2188 4.10474C84.9092 4.17016 84.6614 4.39 84.3571 4.47369Z" fill="white"/>
<path fill-rule="evenodd" clip-rule="evenodd" d="M86.5171 4.99234C86.8085 5.01945 87.0185 5.2782 87.2172 5.49509C87.4662 5.53281 87.6537 5.70904 87.8024 5.89175L87.7086 5.59882C87.6425 5.3059 87.4603 5.07957 87.2733 4.84912C87.0084 4.86562 86.7477 4.88743 86.5171 4.99234Z" fill="white"/>
<path fill-rule="evenodd" clip-rule="evenodd" d="M65.9102 2.57178L66.0701 2.58828C66.5014 2.80341 67.1971 2.91362 67.2354 3.53661C66.8006 3.70812 66.3805 3.94034 66.033 4.29221C65.768 4.02168 65.2317 4.17079 65.1438 3.69692C65.227 3.25016 65.3863 2.68848 65.9102 2.57178Z" fill="black"/>
<path fill-rule="evenodd" clip-rule="evenodd" d="M66.3255 5.36904C66.827 5.32543 67.3132 5.39556 67.833 5.35254C67.9599 5.40735 68.092 5.51816 68.1528 5.64488C68.1363 6.24016 67.954 6.80892 67.9262 7.42071C67.7003 7.5156 67.479 7.70243 67.4241 7.95057C67.2194 8.01069 67.0371 8.13328 66.8382 8.22581C66.7497 8.03898 66.7663 7.75725 66.922 7.60342C67.1368 7.29929 67.695 7.3712 67.6495 6.89143C67.7935 6.65922 67.6554 6.36157 67.6613 6.11875C67.6059 5.93721 67.551 6.17945 67.4625 6.17356C67.2861 6.21128 67.1038 6.22307 66.9498 6.13584C66.8329 6.01324 66.6896 5.91482 66.6565 5.7492C66.5019 5.67199 66.3202 5.55057 66.2429 5.39026L66.3255 5.36904Z" fill="black"/>
<path fill-rule="evenodd" clip-rule="evenodd" d="M66.9327 8.96553C67.1687 8.99795 67.4182 8.89363 67.6222 9.00915C67.578 9.08636 67.4624 9.11936 67.3686 9.14176L66.9988 9.31327C66.8608 9.27909 66.938 9.05866 66.9327 8.96553Z" fill="black"/>
<path fill-rule="evenodd" clip-rule="evenodd" d="M67.899 4.35894C68.1356 4.28173 68.3904 4.12259 68.644 4.1998C68.4618 4.38192 68.3184 4.61886 68.181 4.8387L67.4248 4.82279C67.5062 4.62475 67.7156 4.45913 67.899 4.35894Z" fill="black"/>
<path fill-rule="evenodd" clip-rule="evenodd" d="M70.1134 4.17722C70.4272 4.12241 70.4107 4.53026 70.6979 4.54736C70.7481 4.61337 70.82 4.67348 70.7917 4.7725C70.626 4.83851 70.3836 4.8061 70.1948 4.84971C69.9465 4.71179 70.1075 4.28154 69.7147 4.30924C69.6934 4.27683 69.6486 4.21022 69.704 4.18783C69.8261 4.1448 69.9848 4.16072 70.1134 4.17722Z" fill="black"/>
<path fill-rule="evenodd" clip-rule="evenodd" d="M69.9146 5.65619C70.0521 5.46228 70.2627 5.44696 70.461 5.40747L71.8912 5.43517C71.9519 5.48999 71.8363 5.53949 71.8363 5.60609C71.7478 5.68861 71.6204 5.71101 71.5431 5.78881C71.356 5.7947 71.3714 6.01395 71.2392 6.10825C71.0345 6.31218 70.7371 6.21906 70.4993 6.18546C70.4161 6.12476 70.3229 6.04165 70.284 5.94794L70.2179 6.01395C70.3011 6.32338 70.2787 6.66582 70.3388 6.97937L70.681 7.20629C70.6869 7.71375 71.2835 7.57583 71.5431 7.85756C71.4823 8.03909 71.3607 8.19351 71.2292 8.34852C71.0191 8.14401 70.7813 8.0108 70.5276 7.92357C70.5058 7.62534 70.1801 7.44971 69.9972 7.3C69.9477 6.75953 69.9364 6.20786 69.8491 5.68389L69.9146 5.65619Z" fill="black"/>
<path fill-rule="evenodd" clip-rule="evenodd" d="M70.4333 9.05856H71.0963L71.0131 9.4063L70.3501 9.12457C70.3348 9.06976 70.3944 9.05325 70.4333 9.05856Z" fill="black"/>
<path fill-rule="evenodd" clip-rule="evenodd" d="M71.6257 2.81004L72.1172 2.65503C72.3992 2.78705 72.6641 2.95326 72.9232 3.1401C73.1279 3.51613 73.0937 4.02241 73.0005 4.44147C72.8512 4.60768 72.5255 4.44147 72.4045 4.7061H72.3821C72.1992 4.18803 71.6812 3.72536 71.2003 3.48725C71.2776 3.2232 71.3608 2.96446 71.6257 2.81004Z" fill="black"/>
<path fill-rule="evenodd" clip-rule="evenodd" d="M83.1423 23.8246H86.0882C86.5243 23.7586 86.988 23.7692 87.3355 23.4486C88.8106 23.6755 90.3063 23.3112 91.4657 22.5008C92.0775 22.0069 92.6274 21.4364 93.0717 20.8134C93.4635 20.2641 93.7732 19.7507 93.9732 19.136C94.1219 18.7559 94.2399 18.3616 94.329 17.9555C94.7497 16.0441 94.529 13.9064 93.9072 12.0863C93.7915 11.7486 93.6623 11.4233 93.5201 11.1109C92.7425 9.50539 91.6851 7.77376 90.0543 6.75765C89.1357 6.18536 88.2914 5.30009 87.7727 4.38536C87.4907 4.13074 87.2199 3.79479 86.8559 3.73409C86.9556 3.8997 87.0653 4.05943 87.0936 4.25216L87.0712 4.27986C86.6853 4.29106 86.3809 4.08713 86.116 3.83782L86.4092 3.57377C86.2983 3.51896 86.1714 3.49597 86.0499 3.46945C84.9342 3.34273 84.0179 3.85491 83.0302 4.10363L83.0137 4.15845C83.6202 4.42839 83.7471 5.09558 84.1011 5.54882C84.1896 5.44332 84.3388 5.52053 84.4598 5.50933C84.6362 5.52053 84.802 5.64724 84.9725 5.60304C84.9784 5.45451 84.8964 5.33899 84.8681 5.20697C84.9725 5.15628 85.1006 5.20108 85.2162 5.20697C85.536 5.39381 86.0499 5.17279 86.2487 5.60304C85.8841 5.62603 85.5419 5.70206 85.1997 5.78516C85.2215 5.92308 85.3596 6.03388 85.349 6.1718C85.0557 6.04921 84.7471 5.97377 84.4209 5.93428L84.4055 5.9832C84.8197 6.46885 85.3873 6.75589 85.9673 6.9274C86.801 7.12013 87.535 6.72347 88.3403 6.86139C90.3187 7.7661 92.0073 9.83544 92.7425 11.7993C92.7784 11.8936 92.8127 11.9891 92.8457 12.0851C93.4611 13.8787 93.5773 16.0847 92.9614 17.9543C92.6333 18.7335 92.2722 19.4667 91.6934 20.1003C91.4745 20.3684 91.232 20.6083 90.9689 20.8122C90.1399 21.457 89.118 21.7405 88.0654 21.4511C87.9999 21.4081 87.866 21.3963 87.8878 21.2808C87.925 21.1276 87.9592 20.9708 87.9893 20.8122C88.1645 19.9146 88.2442 18.9716 88.1981 18.0297C88.1958 17.9891 88.1952 17.9484 88.1934 17.9083C88.1356 16.5398 87.8624 15.3085 87.3585 14.125C87.0364 13.4455 86.6523 12.7046 86.1691 12.0392C85.5926 11.2459 84.8763 10.5604 83.9571 10.2185C83.3936 10.0694 82.6974 10.0423 82.2732 10.5115C81.9688 10.7761 81.8425 11.1345 81.8861 11.5258C81.4112 11.8276 80.8772 11.9903 80.2961 12.0392C80.1539 12.0515 80.0075 12.1028 79.8606 12.1022C79.7196 12.1087 79.5821 12.1022 79.4494 12.0851C78.7484 11.9991 78.0416 11.6237 77.5041 11.1916C77.4929 10.9064 77.4758 10.6347 77.4651 10.3323C77.1566 10.172 76.9029 9.86786 76.8804 9.5101L76.9088 9.4824C77.0852 9.53721 77.2398 9.62562 77.3991 9.71992C77.3271 9.28967 77.2451 8.86472 77.0297 8.48987C76.8309 8.40676 76.6309 8.34134 76.4438 8.24115C76.2285 8.09793 76.0904 7.83859 76.0585 7.60107C76.2509 7.78967 76.5878 7.72307 76.7371 7.9217C76.478 7.1549 76.4721 6.27789 76.0467 5.57711C75.8314 5.05844 75.2679 4.82151 74.8815 4.44017C74.7322 4.25864 74.672 4.0052 74.4012 3.97691C74.1805 3.9221 74.1634 3.67338 74.1251 3.51424C74.2631 3.53016 74.3788 3.62446 74.4956 3.64627C74.1746 2.79637 73.8932 1.85393 73.0264 1.31346L72.8772 1.40659C72.5409 1.45727 72.1815 1.47849 71.8446 1.48969C71.9939 1.26867 72.2588 1.17555 72.4689 1.07535C72.2252 0.893818 72.0258 0.849613 71.7213 0.799515C71.5449 0.976921 71.2263 1.06415 70.9997 1.11366L70.9726 1.09244C70.9667 0.894407 70.9207 0.6504 71.2192 0.60148C70.9325 0.463563 70.4575 0.518376 70.1643 0.60148C70.0811 0.816607 69.8457 1.00934 69.861 1.26278C69.6911 1.44018 69.5695 1.67653 69.3919 1.80384C69.3872 1.37889 69.5672 0.986941 69.6451 0.629182C69.3967 0.722305 69.1441 0.854328 68.9016 0.971028C68.5093 0.744702 68.0963 0.518376 67.6774 0.348043C67.6384 0.33095 67.5552 0.314448 67.5717 0.385764C67.9305 0.645095 67.7918 1.13016 67.8302 1.5003L67.6036 1.31346C67.4933 1.03173 67.1741 0.827806 67.1198 0.518376C66.7439 0.590282 66.5038 0.689889 66.1557 0.839004L66.1073 0.866116C66.3663 0.866116 66.587 1.07004 66.7144 1.27397C66.3227 1.29637 65.9746 1.14136 65.5887 1.10364C65.5497 1.06474 65.5173 1.02054 65.4553 1.02643C65.2618 1.09834 65.0972 1.23625 64.9255 1.36887C64.545 1.74313 64.1579 2.15806 63.9762 2.65373C64.1036 2.67613 64.2635 2.67083 64.3573 2.74804C64.1485 2.87476 63.9656 3.08988 63.7608 3.2113C63.6894 3.49833 63.7 3.82367 63.6835 4.13841C63.5236 4.38065 63.3083 4.59577 63.2033 4.86571C62.861 5.97436 62.7725 7.20441 62.8227 8.46217C62.7118 8.56649 62.5678 8.63427 62.464 8.7162L62.4752 9.84134H62.5023C62.5531 9.60382 62.8345 9.47179 63.005 9.31207H63.0605C63.0333 9.56551 62.9997 9.81894 62.9944 10.0789L62.674 10.3435C62.3548 10.6246 62.625 11.0484 62.5967 11.4015C62.6197 11.4958 62.6351 11.6337 62.7029 11.6561C62.7407 11.5182 62.8622 11.4185 62.9389 11.2977C63.077 11.2635 63.1979 11.1539 63.3248 11.1374C63.2546 11.4127 63.1602 11.6832 63.0487 11.9478C62.9962 11.9826 62.9336 12.0303 62.8805 12.0857C62.8245 12.1464 62.7796 12.216 62.769 12.2908C63.0168 13.5981 63.4074 14.8883 63.8552 16.1183C63.5508 16.6305 63.3791 17.2352 63.126 17.7651C63.09 17.8394 63.0575 17.9142 63.0268 17.9914C62.7731 18.6333 62.6958 19.3494 62.3802 19.9665C62.2533 19.8775 62.1159 19.8115 61.9725 19.7507C61.3748 19.5527 60.6851 19.6794 60.2496 20.1368C59.8626 20.0649 59.4649 20.1309 59.1605 20.3348C58.9433 20.4987 58.7746 20.6955 58.6784 20.926C58.6135 21.0857 58.5822 21.2596 58.5929 21.45C58.3439 21.6209 58.2111 21.8855 58.1291 22.1502C58.0129 22.7466 58.2223 23.3661 58.5645 23.824L83.1423 23.8246Z" fill="white"/>
<path fill-rule="evenodd" clip-rule="evenodd" d="M93.9072 12.0868C93.7915 11.7491 93.6623 11.4237 93.5201 11.1114C92.7425 9.50588 91.6851 7.77425 90.0543 6.75814C89.1357 6.18584 88.2914 5.30058 87.7727 4.38585C87.4907 4.13123 87.2199 3.79528 86.8559 3.73457C86.9556 3.90019 87.0653 4.05992 87.0936 4.25265L87.0712 4.28035C86.6853 4.29155 86.3809 4.08762 86.116 3.83831L86.4092 3.57426C86.2983 3.51945 86.1714 3.49646 86.0499 3.46994C84.9342 3.34322 84.0179 3.8554 83.0302 4.10412L83.0137 4.15893C83.6202 4.42887 83.7471 5.09606 84.1011 5.5493C84.1896 5.4438 84.3388 5.52101 84.4598 5.50981C84.6362 5.52101 84.802 5.64773 84.9725 5.60353C84.9784 5.455 84.8964 5.33948 84.8681 5.20746C84.9725 5.15677 85.1006 5.20156 85.2162 5.20746C85.536 5.39429 86.0499 5.17327 86.2487 5.60353C85.8841 5.62651 85.5419 5.70255 85.1997 5.78565C85.2215 5.92357 85.3596 6.03437 85.349 6.17229C85.0557 6.0497 84.7471 5.97425 84.4209 5.93476L84.4055 5.98368C84.8197 6.46934 85.3873 6.75637 85.9673 6.92789C86.801 7.12062 87.535 6.72396 88.3403 6.86187C90.3187 7.76659 92.0073 9.83593 92.7425 11.7998C92.7784 11.8941 92.8127 11.9896 92.8457 12.0856C93.4611 13.8791 93.5773 16.0852 92.9613 17.9548C92.6333 18.7339 92.2722 19.4671 91.6934 20.1007C91.4745 20.3689 91.232 20.6088 90.9689 20.8127C90.1399 21.4575 89.118 21.741 88.0654 21.4516C87.9999 21.4086 87.866 21.3968 87.8878 21.2813C87.925 21.128 87.9592 20.9713 87.9893 20.8127C88.1645 19.9151 88.2442 18.9721 88.1981 18.0302C88.1958 17.9895 88.1952 17.9489 88.1934 17.9088C88.1356 16.5402 87.8624 15.309 87.3585 14.1255C87.0364 13.4459 86.6523 12.7051 86.1691 12.0397C85.5926 11.2463 84.8763 10.5609 83.9571 10.219C83.3936 10.0699 82.6974 10.0428 82.2732 10.512C81.9687 10.7766 81.8425 11.1349 81.8861 11.5263C81.4112 11.8281 80.8772 11.9907 80.2961 12.0397C80.1539 12.052 80.0075 12.1033 79.8606 12.1027C79.7196 12.1092 79.5821 12.1027 79.4494 12.0856C78.7484 11.9996 78.0416 11.6241 77.5041 11.1921C77.4929 10.9069 77.4758 10.6351 77.4651 10.3328C77.1566 10.1725 76.9029 9.86835 76.8804 9.51059L76.9088 9.48289C77.0852 9.5377 77.2398 9.62611 77.3991 9.72041C77.3271 9.29016 77.2451 8.86521 77.0297 8.49036C76.8309 8.40725 76.6309 8.34183 76.4438 8.24164C76.2285 8.09841 76.0904 7.83908 76.0585 7.60156C76.2509 7.79016 76.5878 7.72356 76.7371 7.92219C76.478 7.15539 76.4721 6.27838 76.0467 5.57759C75.8314 5.05893 75.2679 4.822 74.8815 4.44066C74.7322 4.25913 74.672 4.00569 74.4012 3.9774C74.1805 3.92259 74.1634 3.67387 74.1251 3.51473C74.2631 3.53064 74.3788 3.62495 74.4956 3.64675C74.1746 2.79685 73.8932 1.85442 73.0264 1.31395L72.8772 1.40707C72.5409 1.45776 72.1815 1.47898 71.8446 1.49018C71.9939 1.26916 72.2588 1.17603 72.4689 1.07584C72.2252 0.894306 72.0258 0.850102 71.7213 0.800003C71.5449 0.97741 71.2263 1.06464 70.9997 1.11415L70.9726 1.09293C70.9667 0.894895 70.9207 0.650888 71.2192 0.601968C70.9325 0.464051 70.4575 0.518865 70.1643 0.601968C70.0811 0.817096 69.8457 1.00983 69.861 1.26326C69.6911 1.44067 69.5695 1.67702 69.3919 1.80432C69.3872 1.37937 69.5672 0.987429 69.6451 0.62967C69.3967 0.722793 69.1441 0.854817 68.9016 0.971516C68.5093 0.74519 68.0963 0.518865 67.6774 0.348531C67.6384 0.331439 67.5552 0.314936 67.5717 0.386252C67.9305 0.645583 67.7918 1.13065 67.8302 1.50079L67.6036 1.31395C67.4933 1.03222 67.1741 0.828294 67.1198 0.518865C66.7439 0.59077 66.5038 0.690377 66.1557 0.839492L66.1073 0.866604C66.3663 0.866604 66.587 1.07053 66.7144 1.27446C66.3227 1.29686 65.9746 1.14185 65.5887 1.10413C65.5497 1.06523 65.5173 1.02102 65.4553 1.02692C65.2618 1.09882 65.0972 1.23674 64.9255 1.36935C64.545 1.74362 64.1579 2.15855 63.9762 2.65422C64.1036 2.67662 64.2635 2.67131 64.3573 2.74853C64.1485 2.87524 63.9656 3.09037 63.7608 3.21179C63.6894 3.49882 63.7 3.82416 63.6835 4.13889C63.5236 4.38113 63.3083 4.59626 63.2033 4.8662C62.861 5.97484 62.7725 7.2049 62.8227 8.46266C62.7118 8.56698 62.5678 8.63476 62.464 8.71668L62.4752 9.84183H62.5023C62.5531 9.6043 62.8345 9.47228 63.005 9.31256H63.0605C63.0333 9.56599 62.9997 9.81943 62.9944 10.0794L62.674 10.344C62.3548 10.6251 62.625 11.0489 62.5967 11.4019C62.6197 11.4962 62.6351 11.6342 62.7029 11.6566C62.7407 11.5186 62.8622 11.419 62.9389 11.2982C63.077 11.264 63.1979 11.1544 63.3248 11.1379C63.2546 11.4131 63.1602 11.6837 63.0487 11.9483C62.9962 11.9831 62.9336 12.0308 62.8805 12.0862C62.8245 12.1469 62.7796 12.2165 62.769 12.2913C63.0168 13.5986 63.4074 14.8888 63.8552 16.1188C63.5508 16.631 63.3791 17.2357 63.126 17.7656C63.09 17.8398 63.0575 17.9147 63.0268 17.9919C62.7731 18.6338 62.6958 19.3499 62.3802 19.967C62.2533 19.878 62.1159 19.8119 61.9725 19.7512C61.3748 19.5532 60.6851 19.6799 60.2496 20.1373C59.8626 20.0654 59.4649 20.1314 59.1605 20.3353C58.9433 20.4992 58.7746 20.696 58.6784 20.9265C58.6135 21.0862 58.5822 21.2601 58.5929 21.4504C58.3439 21.6214 58.2111 21.886 58.1291 22.1506C58.0129 22.7471 58.2223 23.3666 58.5645 23.8245H68.3217C68.1783 23.6542 68.0455 23.4166 67.9452 23.2127C67.7364 22.8974 67.8797 22.4512 67.8573 22.087C68.0561 21.6862 68.2579 21.2831 68.4851 20.8911C68.5311 20.8121 68.5771 20.7349 68.6243 20.6583L69.0722 20.4874C69.3093 20.4874 69.5088 20.3165 69.7347 20.3766C70.0386 20.6807 70.0386 20.0736 70.3318 20.0459C71.0163 19.9575 71.6954 20.0235 72.0812 20.6029C72.0812 20.6801 72.204 20.6801 72.1756 20.752C72.0871 20.7785 72.0039 20.7237 71.9107 20.7237C71.4912 20.6194 70.9991 20.3536 70.5855 20.5911C70.5696 20.6901 70.5484 20.7909 70.5283 20.8899C70.5077 20.9954 70.4888 21.0986 70.4799 21.1976C70.7502 21.2748 70.9767 21.4681 71.1809 21.6774C71.3189 21.4074 71.6116 21.286 71.8712 21.1976C72.0978 21.2471 72.3462 21.253 72.5344 21.3962C72.8825 21.7168 72.7108 22.2626 72.6783 22.6705C72.9922 22.8467 73.3403 22.9469 73.6601 23.1172C73.5108 23.251 73.3132 23.3053 73.1309 23.3719L72.601 23.2664C72.5403 23.2227 72.4347 23.2227 72.4128 23.1455C72.2364 23.3324 72.0211 23.5811 71.9107 23.8233H79.4747C79.375 23.597 79.2594 23.4208 79.1213 23.2115C78.9661 22.8803 79.0281 22.4277 79.011 22.0746L79.7178 20.999C80.1037 20.9937 80.5409 20.8499 80.9598 20.9218C80.9811 20.9123 81.0011 20.9017 81.0206 20.8893C81.1946 20.7691 81.2477 20.4897 81.5068 20.5245C81.9699 20.3984 82.3239 20.6082 82.672 20.8174C82.6602 20.8451 82.649 20.8693 82.6366 20.8893C82.4909 21.1222 82.2183 20.8622 82.0195 20.9324C81.9363 21.0208 82.0584 21.1251 82.0744 21.2253C82.1463 21.3237 82.0024 21.3125 81.9534 21.3296C81.8378 21.3461 81.7109 21.3184 81.6218 21.2253C81.6 21.197 81.6165 21.1646 81.5728 21.1593C81.4725 21.3237 81.3292 21.4734 81.2908 21.6609C81.4171 21.7829 81.5882 21.9037 81.6495 22.0587C81.7764 22.2408 81.5498 22.3781 81.5062 22.5385C81.4897 22.5709 81.4389 22.5709 81.423 22.5385C81.3062 22.4724 81.2076 22.3062 81.0802 22.3499C80.9693 22.8414 81.1185 23.3324 81.0525 23.8233C81.2678 23.874 81.5215 23.8121 81.7534 23.8233L81.8478 22.786C81.9463 22.1135 82.3452 21.5506 82.8142 21.0367C83.3211 20.6907 83.6479 21.3744 84.0226 21.6113C84.084 21.6225 84.0621 21.6886 84.0887 21.7269C84.0834 21.8377 83.9677 21.8813 83.8904 21.9149C83.658 21.9968 83.4869 21.7434 83.3435 21.5943C83.206 21.7434 83.1446 21.9414 82.9848 22.0581L83.0396 22.074C83.2231 22.2567 83.3984 22.4495 83.4385 22.6923C83.4161 22.9121 83.3057 23.1273 83.1063 23.2387C82.9582 22.984 82.8361 22.7029 82.7375 22.4436C82.7428 22.4554 82.731 22.4601 82.7204 22.4719C82.416 22.5538 82.3351 22.8956 82.2844 23.1721C82.3009 23.4426 82.0968 23.5528 82.1511 23.8227H86.0888C86.5249 23.7567 86.9886 23.7673 87.3361 23.4467C88.8112 23.6736 90.3069 23.3094 91.4662 22.499C92.0781 22.0051 92.628 21.4345 93.0723 20.8115C93.464 20.2622 93.7738 19.7489 93.9738 19.1341C94.1225 18.754 94.2405 18.3597 94.3296 17.9536C94.7497 16.044 94.529 13.9063 93.9072 12.0868Z" fill="black"/>
<path fill-rule="evenodd" clip-rule="evenodd" d="M68.5682 22.3247C68.7835 22.1867 69.1315 22.1531 69.1805 21.8337C69.0932 21.7671 69.0153 21.684 68.9156 21.6622L68.6891 21.7282C68.7057 21.5956 68.7776 21.4471 68.823 21.3038L69.5509 21.0669C69.4506 21.3975 69.4129 21.8113 69.3793 22.192C69.4453 22.7549 69.5285 23.3561 69.8157 23.8246H69.0312C68.9434 23.3066 68.4013 22.9305 68.5682 22.3247Z" fill="black"/>
<path fill-rule="evenodd" clip-rule="evenodd" d="M70.2639 21.6621H70.3075L70.8366 22.1425L70.9139 22.126C70.8708 22.6888 70.8425 23.2405 70.8366 23.8246H70.2633C70.1465 23.2788 69.9536 22.7047 69.976 22.1154C70.0751 21.9662 70.1412 21.7782 70.2639 21.6621Z" fill="black"/>
<path fill-rule="evenodd" clip-rule="evenodd" d="M71.4445 22.1926C71.5501 22.0552 71.5938 21.8224 71.8032 21.7959C71.9524 21.8 72.0904 21.8224 72.2019 21.9279C72.3948 22.1702 72.206 22.4802 72.1358 22.7224C72.058 23.092 71.9247 23.4774 71.8037 23.8252H71.2463L71.4445 22.1926Z" fill="black"/>
<path fill-rule="evenodd" clip-rule="evenodd" d="M79.821 22.021C79.9425 22.176 79.9808 22.3853 80.1631 22.5232C80.3235 22.3028 80.3619 21.9603 80.2846 21.6792L80.1248 21.5189C80.3294 21.47 80.5441 21.4529 80.7488 21.4146C80.6603 21.7069 80.4934 21.9715 80.5223 22.3134C80.5276 22.8102 80.6102 23.3071 80.6544 23.8246H80.0475C79.8269 23.3389 79.6057 22.8762 79.6222 22.3134C79.6883 22.2138 79.7325 22.0977 79.821 22.021Z" fill="black"/>
<path fill-rule="evenodd" clip-rule="evenodd" d="M82.4331 11.4234C82.4272 11.5666 82.3228 11.7257 82.416 11.8483C82.5499 11.6992 82.77 11.7045 82.947 11.6385C83.4385 11.5937 83.9075 11.7487 84.3654 11.8595C84.2498 11.6768 84.1725 11.4729 84.045 11.3079C83.7907 11.2413 83.4043 11.4181 83.3606 11.042C83.206 10.91 82.9635 11.0043 82.803 11.0149C82.6479 11.1252 82.5216 11.2631 82.4331 11.4234Z" fill="white"/>
<path fill-rule="evenodd" clip-rule="evenodd" d="M65.5567 6.6597C65.5544 6.65852 65.552 6.65617 65.5485 6.65381C65.5485 6.65617 65.5496 6.65735 65.5496 6.6597H65.5567Z" fill="white"/>
<path fill-rule="evenodd" clip-rule="evenodd" d="M67.5646 11.5635L67.8962 11.2441C67.9245 11.2441 67.9464 11.2494 67.9623 11.2706L67.9352 11.883C68.0951 12.0321 68.2927 12.081 68.5028 12.0928C68.5199 11.9278 68.6467 11.8111 68.7187 11.6678C68.7795 11.5523 68.7411 11.3814 68.8621 11.2995L68.901 11.3372C68.9388 11.5199 68.9282 11.7238 69.0226 11.883C69.0338 11.9714 69.0491 12.081 69.0597 12.1588C69.3034 12.17 69.5247 12.104 69.7117 12.015C69.7005 11.8057 69.7731 11.6348 69.8049 11.4427C69.8557 11.3761 69.7442 11.2541 69.8822 11.26C69.9601 11.4256 70.0976 11.5959 70.1755 11.7733C70.4952 11.448 70.6292 11.0236 70.7047 10.5816C70.6115 10.4555 70.4681 10.4555 70.3566 10.3724C69.4185 10.0694 68.2154 10.0087 67.3097 10.4773C67.249 10.8509 67.3263 11.2647 67.5646 11.5635Z" fill="white"/>
<path fill-rule="evenodd" clip-rule="evenodd" d="M58.7888 21.9144C58.7551 22.3393 58.7888 22.7378 58.8159 23.1574C58.9044 23.2953 59.0654 23.4556 59.2252 23.4657L59.2524 23.1839C59.3184 22.7926 59.109 22.3771 59.3302 22.0458C59.4848 22.0947 59.6393 22.1725 59.772 22.2439C59.8381 21.8802 59.7437 21.4547 59.3957 21.2336L58.7888 21.9144Z" fill="white"/>
<path fill-rule="evenodd" clip-rule="evenodd" d="M60.1527 21.3179C59.9374 21.9639 59.7776 22.759 60.0371 23.4392C60.1863 23.339 60.3403 23.2453 60.4724 23.1079C60.4453 22.5887 60.3733 22.0358 60.6824 21.6044C60.9526 21.6875 61.1354 21.9468 61.2392 22.1997C61.4227 21.9686 61.4828 21.648 61.4115 21.3403C61.4227 21.0969 61.1466 21.1529 61.0139 21.0533C61.0575 20.8488 61.0516 20.613 61.2675 20.4963L60.6057 20.5623C60.4347 20.8058 60.2471 21.0415 60.1527 21.3179Z" fill="white"/>
<path fill-rule="evenodd" clip-rule="evenodd" d="M61.517 23.2241C61.5447 23.273 61.517 23.362 61.573 23.3732C61.655 22.9094 62.0303 22.6094 62.2356 22.2003C62.3341 22.0642 62.3294 21.8697 62.4893 21.7654C62.7041 21.7654 62.8593 21.9198 63.0693 21.9363C63.1354 21.9864 63.0351 22.0306 63.0298 22.0854C62.9861 22.4614 62.8427 22.7715 62.8699 23.1581H62.9082C63.2009 22.8487 63.3997 22.5157 63.6151 22.1626L63.6528 21.8491C63.7036 21.4736 63.2953 21.2314 63.0286 21.0764L63.2664 20.7723L62.9348 20.6567C62.5483 20.695 62.2002 20.8554 61.93 21.1595C61.5937 21.776 61.5388 22.4738 61.517 23.2241Z" fill="white"/>
<path fill-rule="evenodd" clip-rule="evenodd" d="M63.0026 19.9506C63.1288 19.9883 63.2451 19.8846 63.3713 19.9388C63.8799 20.1268 64.4098 20.3196 64.7909 20.7439L65.244 21.8974L65.4706 21.1848L65.3213 20.7999C65.1939 20.5241 64.8464 20.5465 64.6086 20.5353C64.5095 20.4245 64.6139 20.2978 64.6475 20.1934C64.7632 19.8015 64.2829 19.8233 64.09 19.6636C64.1012 19.4272 63.8138 19.5086 63.6534 19.4873L63.5985 19.4213C63.5654 19.3706 63.4828 19.3706 63.438 19.4095C63.428 19.393 63.4055 19.3818 63.4168 19.3547L63.2958 19.3818C63.1235 19.531 63.0079 19.7237 63.0026 19.9506Z" fill="white"/>
<path fill-rule="evenodd" clip-rule="evenodd" d="M63.3218 18.6815C63.3389 18.7522 63.3825 18.8241 63.4374 18.8689C63.6864 18.8029 63.9248 18.6308 64.2109 18.7363C64.5815 19.0616 64.9673 19.4035 65.4152 19.5797L65.5756 19.5526C65.6742 19.585 65.7845 19.5903 65.8506 19.7017C65.9119 19.8508 65.7574 19.9381 65.7084 20.0595C65.9562 20.2422 65.8577 20.5669 66.0117 20.7874L66.4087 20.2587C66.3161 20.0265 66.4146 19.6298 66.0512 19.6074C65.9285 19.5467 65.8465 19.4259 65.8512 19.288C65.6146 19.0728 65.3219 18.9791 65.0847 18.7581C64.89 18.6043 64.775 18.3673 64.5272 18.3119C64.3555 18.2176 64.1679 18.1681 63.9696 18.1251C63.5985 18.0685 63.5655 18.51 63.3218 18.6815Z" fill="white"/>
<path fill-rule="evenodd" clip-rule="evenodd" d="M63.8528 17.5947L63.9189 17.7008C64.195 17.6837 64.4428 17.5628 64.7136 17.5676C64.8953 17.6778 65.1331 17.6719 65.3207 17.7662C65.47 17.9707 65.6305 18.2012 65.85 18.3391C66.2978 18.4051 66.5456 18.8866 66.7002 19.2385V19.0681C66.7663 18.8306 66.6943 18.5542 66.6076 18.3391C66.4967 18.2289 66.3356 18.1575 66.2205 18.0591C66.1981 17.9872 66.2146 17.953 66.237 17.8876C66.0653 17.7055 65.8116 17.6059 65.6016 17.4621C65.3089 17.0371 64.7467 17.1544 64.2988 17.0371L63.8528 17.5947Z" fill="white"/>
<path fill-rule="evenodd" clip-rule="evenodd" d="M63.8434 13.5486C63.8923 13.7201 63.9519 13.9347 63.9855 14.1174C64.1395 13.7755 64.4444 13.6205 64.7146 13.34C64.5595 13.2351 64.3666 13.185 64.1961 13.1526V13.1414C64.074 13.2616 63.8864 13.3836 63.8434 13.5486Z" fill="white"/>
<path fill-rule="evenodd" clip-rule="evenodd" d="M64.8464 15.364L65.0942 15.1105C65.3431 14.8559 65.5484 14.563 65.5855 14.2382C65.4092 14.1339 65.1773 14.2058 65.0069 14.2665C64.9461 14.6237 64.8517 14.9767 64.8464 15.364Z" fill="white"/>
<path fill-rule="evenodd" clip-rule="evenodd" d="M65.0281 16.1419C65.4091 16.1631 65.7795 16.2403 66.0886 16.0252L66.3983 15.0327C66.298 15.0268 66.1983 14.982 66.1051 15.0162C65.901 15.4676 65.4929 15.915 65.0281 16.1419Z" fill="white"/>
<path fill-rule="evenodd" clip-rule="evenodd" d="M65.1402 12.6228C65.3886 12.9864 65.8032 13.3937 66.2273 13.5104C66.1784 13.0465 65.7808 12.7265 65.5761 12.3304L65.5649 12.1978C65.4051 12.0434 65.2116 11.9379 65.0459 11.856C65.0193 12.1206 65.0913 12.3734 65.1402 12.6228Z" fill="white"/>
<path fill-rule="evenodd" clip-rule="evenodd" d="M66.4861 16.1855C66.7786 16.235 67.0936 16.1855 67.3638 16.1024C67.7554 16.008 67.9713 15.5784 68.1034 15.2424H67.6121L67.083 15.7605C66.8736 15.8701 66.6748 16.0358 66.4861 16.1855Z" fill="white"/>
<path fill-rule="evenodd" clip-rule="evenodd" d="M66.4265 12.1206C66.5097 12.5514 66.6925 12.9428 66.9409 13.3124L67.0063 12.4902L66.4265 12.1206Z" fill="white"/>
<path fill-rule="evenodd" clip-rule="evenodd" d="M68.2364 14.2658C68.27 13.99 68.1544 13.6694 68.122 13.3894C67.9562 13.2786 67.725 13.2892 67.5533 13.1802C67.5646 13.6146 67.9055 13.9847 68.2364 14.2658Z" fill="white"/>
<path fill-rule="evenodd" clip-rule="evenodd" d="M67.7345 17.0679C68.0819 16.9577 68.4187 16.8363 68.7396 16.66C68.9437 16.3671 69.2522 16.1031 69.297 15.7612C69.0416 15.8325 68.8222 15.7494 68.5845 15.8661C68.4411 16.1249 68.3521 16.4184 68.0766 16.6052C68.0324 16.7915 67.8283 16.9188 67.7345 17.0679Z" fill="white"/>
<path fill-rule="evenodd" clip-rule="evenodd" d="M68.275 17.7462L68.6891 18.2867C68.9103 18.358 69.1863 18.3368 69.3792 18.2101L69.2312 17.7197C68.938 17.8288 68.59 17.7969 68.275 17.7462Z" fill="white"/>
<path fill-rule="evenodd" clip-rule="evenodd" d="M68.9653 13.8415L69.1252 14.5688C69.5115 14.2553 69.5912 13.7973 69.58 13.3123C69.3594 13.5657 69.2314 13.7201 68.9653 13.8415Z" fill="white"/>
<path fill-rule="evenodd" clip-rule="evenodd" d="M70.0538 15.1257C70.0591 15.2312 70.0863 15.3303 70.1464 15.4128C70.577 15.5678 70.6213 16.0906 71.0194 16.2892C71.2778 16.4059 71.5768 16.2621 71.8021 16.1566C71.6317 15.9638 71.4388 15.8312 71.2731 15.6279C71.1574 15.5784 71.0401 15.5065 71.0465 15.3633L70.0538 15.1257Z" fill="white"/>
<path fill-rule="evenodd" clip-rule="evenodd" d="M70.3961 17.7302C70.5831 17.9442 70.8367 18.0556 71.1015 18.1151C71.0579 18.055 71.1298 18.1151 71.1405 18.0774L70.809 17.3489C70.6432 17.3548 70.4716 17.3884 70.3176 17.3772C70.33 17.4986 70.3566 17.6194 70.3961 17.7302Z" fill="white"/>
<path fill-rule="evenodd" clip-rule="evenodd" d="M70.9812 14.3325C70.826 13.9742 70.7623 13.5374 70.7169 13.1414C70.5524 13.34 70.3807 13.4673 70.2256 13.67C70.1536 14.0779 70.7382 14.1775 70.9812 14.3325Z" fill="white"/>
<path fill-rule="evenodd" clip-rule="evenodd" d="M71.6539 13.9564C71.8539 14.2169 72.2892 14.1285 72.5322 14.0507C72.416 13.8521 72.042 13.7354 71.976 13.522C71.9382 13.1413 71.8603 12.7705 71.7382 12.4246C71.5454 12.8925 71.3118 13.4501 71.6539 13.9564Z" fill="white"/>
<path fill-rule="evenodd" clip-rule="evenodd" d="M72.0021 15.1257C72.5543 15.5282 73.096 15.9974 73.8677 15.8259C73.9232 15.7882 74.0176 15.7923 74.0282 15.7216C73.8016 15.5783 73.5591 15.4669 73.3273 15.3349L73.0629 14.9495H72.9414C72.6428 15.0479 72.323 15.088 72.0021 15.1257Z" fill="white"/>
<path fill-rule="evenodd" clip-rule="evenodd" d="M72.0133 19.5992H72.0528C72.3838 19.3346 72.7756 19.2456 73.1674 19.136C73.273 19.1749 73.2063 19.291 73.3007 19.3346C73.5379 19.2362 73.8253 19.2574 74.0678 19.1749C74.3604 19.1855 74.5982 19.1908 74.8354 19.3175C75.0242 19.5662 75.3764 19.5379 75.6201 19.7041L75.5806 19.3175C75.0678 18.7163 74.2672 18.6727 73.5273 18.6839L73.5108 18.6067C73.3344 18.6067 73.1355 18.6444 72.9697 18.7222C72.7331 18.7334 72.506 18.8489 72.2794 18.9202C72.1738 19.1301 72.0906 19.3853 72.0133 19.5992Z" fill="white"/>
<path fill-rule="evenodd" clip-rule="evenodd" d="M72.457 12.8208C72.6717 13.1025 72.992 13.3182 73.3565 13.2463C73.1695 13.063 72.953 12.8703 72.9424 12.6115C72.9979 12.1206 72.457 12.0811 72.1921 11.8276C72.2806 12.1589 72.2688 12.5284 72.457 12.8208Z" fill="white"/>
<path fill-rule="evenodd" clip-rule="evenodd" d="M72.4004 20.5752H72.4665C72.7585 20.3937 73.1839 20.5322 73.4713 20.3389C73.6312 20.2558 73.6424 20.4768 73.7527 20.5375C74.0235 20.702 74.0572 21.1988 74.4377 21.0833C74.895 21.3202 74.7799 21.8772 74.7964 22.2851L75.2219 22.021C75.1829 21.8059 75.305 21.5466 75.1664 21.3591C75.0614 21.1222 74.774 21.1004 74.636 20.9077C74.8024 20.6259 74.4265 20.4927 74.3486 20.2888L74.3716 20.2617L74.9569 20.3389C75.1558 20.4597 75.2277 20.6808 75.2885 20.8853C75.7458 20.9625 75.8561 21.4806 76.0166 21.8112C76.111 21.5855 76.1494 21.342 76.2432 21.1216C76.2491 20.9395 76.006 20.9395 75.8844 20.857C75.852 20.5752 75.7245 20.3112 75.4761 20.1409C74.9681 20.0124 74.5215 19.7324 73.9639 19.7324L73.5002 19.8751C73.2453 19.9364 72.9751 19.8591 72.7815 20.0348C72.4936 20.0572 72.4724 20.3719 72.4004 20.5752Z" fill="white"/>
<path fill-rule="evenodd" clip-rule="evenodd" d="M72.6924 18.3032L72.798 18.3533C73.0246 18.2484 73.2505 18.127 73.4883 18.0386C73.8571 17.9343 74.1444 18.3533 74.4548 18.0881C74.5698 18.0062 74.6701 18.127 74.7574 18.1936C74.892 18.4359 75.2 18.4194 75.4324 18.4848C75.3162 18.1712 75.1722 17.741 74.7692 17.6909C74.6094 17.6196 74.4211 17.6254 74.2671 17.5311C73.8417 17.0626 73.5662 17.9178 73.1007 17.7086C72.9361 17.8895 72.7313 18.0616 72.6924 18.3032Z" fill="white"/>
<path fill-rule="evenodd" clip-rule="evenodd" d="M72.7981 20.9895C72.9745 21.1387 73.1567 21.3927 73.4334 21.3591C73.7749 21.5188 73.6315 21.9715 73.8185 22.209L74.0173 22.0322L74.0008 22.0204L74.0285 21.9933L74.0403 22.0086C74.0952 21.8442 74.0179 21.5518 73.9235 21.3579C73.7973 21.2701 73.6487 21.3638 73.5266 21.2807C73.51 21.1033 73.3997 21.0161 73.2729 20.9064C73.1845 20.8392 73.0682 20.9277 72.9686 20.9218L72.7981 20.9895Z" fill="white"/>
<path fill-rule="evenodd" clip-rule="evenodd" d="M73.4884 14.2658C73.6701 14.5687 74.0234 14.7567 74.3053 14.966C74.5377 15.0709 74.8403 15.0986 75.0893 15.0426C74.8515 14.8499 74.6357 14.6288 74.4381 14.3978C74.3602 14.287 74.3437 14.1485 74.2393 14.05C73.9797 14.1001 73.6866 14.0943 73.4884 14.2658Z" fill="white"/>
<path fill-rule="evenodd" clip-rule="evenodd" d="M73.7928 12.2921C74.0465 12.6062 74.4387 12.4795 74.7974 12.4907V12.4518L74.2453 11.9885C74.0907 12.0374 73.9256 12.1754 73.7928 12.2921Z" fill="white"/>
<path fill-rule="evenodd" clip-rule="evenodd" d="M63.6281 7.09003L63.9477 8.08315C63.9419 7.52029 64.2026 7.05054 64.1471 6.47766L64.3836 6.12402L63.8811 6.27903C63.749 6.53247 63.6387 6.7865 63.6281 7.09003Z" fill="white"/>
<path fill-rule="evenodd" clip-rule="evenodd" d="M63.8434 5.36914L64.2793 5.1157V4.46973C64.0958 4.57994 63.9973 4.76855 63.854 4.91589L63.8434 5.36914Z" fill="white"/>
<path fill-rule="evenodd" clip-rule="evenodd" d="M72.7993 6.37288C72.6943 6.51021 72.5344 6.54439 72.4016 6.57091C72.6341 6.14714 72.7444 5.55657 72.5621 5.07622C72.683 5.03261 72.8158 5.01021 72.9314 4.9442L72.9202 4.93241L73.2241 4.66777C73.6271 4.39194 73.4719 3.86856 73.6212 3.47662C73.4229 3.16837 73.3621 2.79293 73.0748 2.53359L73.0913 2.5224C72.8648 2.23536 72.4565 2.26896 72.1473 2.12574C71.7378 1.98782 71.4234 2.26896 71.1301 2.45638C71.0033 2.47878 71.0811 2.64381 70.9431 2.63792C70.8658 2.84184 70.7714 3.06287 70.7159 3.28919C70.1696 3.21198 69.579 3.27269 69.1429 3.58153C68.9099 3.41002 68.6296 3.3776 68.3588 3.30039C68.16 3.2609 67.934 3.33281 67.7906 3.22259C67.5812 2.98625 67.5357 2.5554 67.1764 2.49528C67.0496 2.45049 67.023 2.31257 67.023 2.19116C66.7852 2.15167 66.5746 2.04204 66.3439 1.99253C65.9905 1.83222 65.709 2.08684 65.4441 2.25717C65.3273 2.30609 65.1951 2.32318 65.0848 2.38919C64.8866 2.69862 64.6995 3.01277 64.5709 3.35461C64.6104 3.63575 64.7314 3.8833 64.8753 4.12141C65.0022 4.47976 65.3999 4.76149 65.7362 4.9053C65.5763 5.45107 65.5763 6.10117 65.7362 6.65284C65.7362 6.65284 65.7273 6.6605 65.7273 6.65873C65.7273 6.6605 65.7096 6.67523 65.7096 6.67523C65.6577 6.67523 65.5999 6.68525 65.5568 6.65873H65.5497C65.6288 7.18565 65.8766 7.64773 66.2778 8.04321C66.4218 8.09272 66.3881 8.26423 66.4483 8.37386C66.4873 8.42395 66.4932 8.52828 66.4767 8.57248C65.6146 8.54537 64.847 8.76049 64.1567 9.15185C63.9803 9.24026 64.0576 9.4825 64.0411 9.65401C64.5272 9.33338 65.0512 9.09704 65.6312 8.99153C65.8796 8.97621 66.1604 8.91433 66.3988 8.98034L66.4259 9.45597C65.7698 9.79841 65.0512 9.99644 64.4889 10.5593C64.4995 10.7296 64.4665 10.9277 64.516 11.0715L65.0193 10.6636C65.5049 10.2935 66.0129 9.97935 66.5699 9.77542C66.7197 9.95165 66.8743 10.1403 67.0732 10.2499C67.4095 10.0342 67.7747 9.87444 68.1611 9.77542C68.3653 9.65401 68.6916 9.76423 68.8237 9.52199L68.917 9.01983C68.9016 9.00863 68.8898 8.98623 68.8621 8.99153C68.6031 8.84242 68.4314 8.58368 68.4538 8.28073C68.3653 8.32435 68.2668 8.35264 68.1611 8.35676C68.0738 8.33554 67.99 8.31315 67.9517 8.22415C67.9464 8.11452 67.8903 7.94891 68.0018 7.86698C68.36 7.64596 68.8243 7.63476 69.2769 7.66777C69.6132 7.71256 70.0994 7.69547 70.2162 8.09272C70.1997 8.20883 70.2103 8.33613 70.094 8.41275C69.9725 8.47877 69.835 8.40686 69.7241 8.35676C69.6362 8.62788 69.4869 8.93083 69.1836 9.01924L69.2214 9.33869C69.2592 9.4825 69.271 9.71943 69.4975 9.66933C70.0221 9.79723 70.4864 10.0672 70.9443 10.3589C71.0994 10.2051 71.2204 10.0283 71.3301 9.86796C72.1485 10.145 72.8541 10.7568 73.5291 11.3255L73.5557 10.8617C72.9149 10.2929 72.2034 9.89094 71.4629 9.5768C71.4912 9.42768 71.5242 9.28387 71.5301 9.12356C72.4075 9.17366 73.2412 9.44419 73.964 9.86796L73.9528 9.4713C73.191 9.06285 72.3574 8.79291 71.447 8.7823C71.4127 8.73279 71.4021 8.66089 71.408 8.61138C71.8499 8.54006 72.1638 8.0827 72.2694 7.68427C72.4966 7.42553 72.8223 7.1438 72.745 6.75834C72.7544 6.72592 72.7656 6.69233 72.7774 6.65873C72.8064 6.56384 72.8311 6.46246 72.7993 6.37288Z" fill="white"/>
<path fill-rule="evenodd" clip-rule="evenodd" d="M73.5663 7.79078L74.0187 7.64697L74.0694 7.39412C74.1962 7.02398 73.9255 6.74815 73.7928 6.45581L73.5663 7.79078Z" fill="white"/>
<path fill-rule="evenodd" clip-rule="evenodd" d="M74.7091 9.53835C74.9244 9.77587 75.1344 10.156 75.5155 10.0405C75.4872 9.8802 75.3987 9.74758 75.3444 9.60436C75.2453 9.48884 75.2111 9.1576 75.0129 9.27371C74.8637 9.1747 74.8259 9.00908 74.731 8.87646C74.6879 9.08098 74.715 9.33442 74.7091 9.53835Z" fill="white"/>
<path fill-rule="evenodd" clip-rule="evenodd" d="M74.7864 11.1544C74.8695 11.27 74.8926 11.4197 74.974 11.5246C75.1232 11.623 75.3444 11.6065 75.5272 11.5906C75.6918 11.5517 75.7974 11.7332 75.9513 11.6289C75.7585 11.5075 75.6428 11.2871 75.4612 11.1262C75.2453 10.9564 75.0135 11.1055 74.7864 11.1544Z" fill="white"/>
<path fill-rule="evenodd" clip-rule="evenodd" d="M75.0796 13.7201C75.4606 13.9458 75.9443 14.1668 76.4528 14.0896C76.5076 14.0625 76.602 14.0678 76.6126 14.0018C76.2976 13.891 75.9673 13.5768 75.637 13.5108C75.4547 13.2297 75.217 13.5827 74.9852 13.5603C74.9905 13.6258 75.0566 13.6753 75.0796 13.7201Z" fill="white"/>
<path fill-rule="evenodd" clip-rule="evenodd" d="M76.2261 18.5903L76.3092 18.7666C76.393 19.3406 76.7558 19.8693 76.5576 20.4982C76.7233 20.6149 76.7729 20.8076 76.8784 20.962H76.9056C77.0324 20.4829 76.9445 19.986 76.8784 19.5057C76.928 19.0701 76.4856 18.8167 76.2261 18.5903Z" fill="white"/>
<path fill-rule="evenodd" clip-rule="evenodd" d="M76.3217 12.9421C76.6083 13.1631 77.0666 13.1844 77.3975 13.0747C77.1881 12.9592 76.9563 12.8313 76.7847 12.6775L76.3217 12.9421Z" fill="white"/>
<path fill-rule="evenodd" clip-rule="evenodd" d="M77.6845 14.6348C77.6574 14.867 77.8114 15.0597 77.9771 15.1764C78.0379 15.0391 78.1364 14.9218 78.1476 14.768C78.098 14.5311 77.9653 14.3153 77.75 14.155C77.7123 14.3094 77.6674 14.4586 77.6845 14.6348Z" fill="white"/>
<path fill-rule="evenodd" clip-rule="evenodd" d="M77.7011 17.1511C77.6616 17.4098 77.9488 17.4434 78.0697 17.5866C78.1694 17.708 78.0037 17.7911 78.0037 17.9067C78.2137 18.1766 78.3358 18.4843 78.3358 18.8438C78.4178 18.5078 78.5446 18.1878 78.5894 17.8406C78.567 17.5972 78.1812 17.6479 78.2414 17.3774C78.3523 17.1016 78.2196 16.8316 78.1476 16.5823C78.1264 16.5446 78.0756 16.4668 78.0326 16.4898C77.9323 16.7149 77.6846 16.8752 77.7011 17.1511Z" fill="white"/>
<path fill-rule="evenodd" clip-rule="evenodd" d="M78.4575 15.8378L78.7442 16.3948C78.871 16.3783 78.9536 16.2569 79.0527 16.1684C79.1299 15.9368 78.9253 15.7877 78.8657 15.5997C78.8156 15.4671 78.8657 15.2914 78.7713 15.1759C78.6994 15.1311 78.6174 15.0592 78.5348 15.0816L78.4575 15.8378Z" fill="white"/>
<path fill-rule="evenodd" clip-rule="evenodd" d="M78.8263 14.3701C79.0535 14.508 79.3125 14.7061 79.4346 14.9495C79.6275 15.5124 79.9367 16.0186 80.1627 16.565C80.2459 16.9457 80.312 17.2858 80.4164 17.6601C80.4559 17.7597 80.4335 17.9524 80.5887 17.9359C80.6317 17.5169 80.7149 17.1137 80.7208 16.6782C80.5828 16.496 80.4011 16.4194 80.2294 16.3092V16.2703C80.2518 16.1772 80.3297 16.0658 80.4447 16.0835C80.4937 16.0281 80.6435 15.9733 80.5775 15.8736C80.2901 15.5872 80.3067 15.0939 79.8494 15.0049C79.6889 14.9389 79.6505 14.7727 79.634 14.6194C79.4181 14.4361 79.0983 14.376 78.8263 14.3701Z" fill="white"/>
<path fill-rule="evenodd" clip-rule="evenodd" d="M79.0929 17.3603C79.3737 17.619 79.2752 17.9945 79.2527 18.3422C79.2091 18.552 79.4733 18.4294 79.5565 18.5408C79.7282 18.7943 79.6285 19.1644 79.5683 19.4396C79.7175 19.2127 79.888 19.0147 80.0036 18.766C79.9989 18.6728 80.1198 18.6281 80.1145 18.5119C80.1635 18.3522 79.9765 18.4241 79.8986 18.4076C79.8326 18.3911 79.7612 18.3469 79.7836 18.2585C79.9258 17.9827 79.7942 17.652 79.7388 17.3762C79.6727 17.1499 79.7671 16.8463 79.6609 16.6477C79.484 16.8917 78.959 16.9465 79.0929 17.3603Z" fill="white"/>
<path fill-rule="evenodd" clip-rule="evenodd" d="M79.6057 13.4442C80.0976 13.941 80.4563 14.4396 80.986 14.92C80.9972 14.7043 80.9694 14.5062 80.9588 14.2964C80.8816 14.1473 80.7376 14.0377 80.6155 13.9263C80.2239 13.8886 80.0198 13.3611 79.6057 13.4442Z" fill="white"/>
<path fill-rule="evenodd" clip-rule="evenodd" d="M80.8914 16.0724C80.9032 16.1231 80.9256 16.1667 80.948 16.2156C81.1627 16.5692 81.3674 16.9335 81.5166 17.3136C81.4718 16.9052 81.7478 16.3983 81.3827 16.0836C81.3337 15.9504 81.1692 15.9952 81.063 16.0058L80.8914 16.0724Z" fill="white"/>
<path fill-rule="evenodd" clip-rule="evenodd" d="M82.217 20.1013C82.3716 20.1733 82.5705 20.0465 82.7197 19.9581C82.8578 19.9251 82.9734 20.0029 83.0791 20.0742C83.1227 20.1621 83.0791 20.2452 83.0956 20.3283C83.4266 20.4214 83.7517 20.5434 84.0443 20.7361L84.1375 20.6424C84.16 20.4055 83.9729 20.234 83.7953 20.1013C83.6803 20.0353 83.508 20.0742 83.426 19.9693C83.4814 19.8809 83.4814 19.7483 83.4755 19.6493C83.2932 19.6493 83.177 19.5933 83.0289 19.5061C82.9345 19.4784 82.8513 19.4006 82.774 19.5061C82.4985 19.6929 82.482 19.9693 82.217 20.1013Z" fill="white"/>
<path fill-rule="evenodd" clip-rule="evenodd" d="M82.6047 13.1607C82.7422 13.1212 82.8861 13.0829 83.0017 12.9833C83.3721 12.6467 83.9071 12.8731 84.3383 12.8677C84.2551 12.7186 84.1383 12.5695 84.0339 12.4428C83.8788 12.3821 83.7355 12.3108 83.5591 12.3108C83.1834 12.0898 82.9303 12.4599 82.6425 12.6414C82.5646 12.7905 82.5269 13.011 82.6047 13.1607Z" fill="white"/>
<path fill-rule="evenodd" clip-rule="evenodd" d="M82.6141 14.2966C82.6141 14.2795 82.6141 14.2624 82.6306 14.2583C82.6814 14.3019 82.6253 14.408 82.7085 14.4292C82.8519 14.3573 82.9846 14.2583 83.1168 14.1646C83.4867 14.1646 83.708 13.8056 84.0715 13.8056C84.6798 13.9164 85.2816 14.0384 85.8108 14.3349C85.7731 13.9777 85.4627 13.6512 85.1488 13.4915C84.9712 13.4308 84.8332 13.5245 84.7069 13.6241C84.3376 13.8563 84.5305 13.2876 84.2715 13.2764C83.934 13.3807 83.5859 13.4974 83.2106 13.4632C82.9899 13.5469 82.8348 13.7502 82.5864 13.7278C82.5763 13.9111 82.5492 14.1322 82.6141 14.2966Z" fill="white"/>
<path fill-rule="evenodd" clip-rule="evenodd" d="M82.869 15.5259C82.9847 15.6485 83.1776 15.6261 83.344 15.6485L83.8243 15.4599C83.8296 15.3733 83.6809 15.3497 83.714 15.2507C83.8467 15.1016 84.0278 15.2071 84.1942 15.1464C84.4255 15.1128 84.6633 14.8823 84.8952 15.0521C84.8881 15.0804 84.9052 15.1181 84.8834 15.1464C84.812 15.3173 84.9329 15.4222 85.0657 15.4882C85.3365 15.5377 85.5896 15.7865 85.8604 15.6751C85.8333 15.4487 85.7731 15.2407 85.7176 15.0244C85.4911 14.9861 85.3306 14.7986 85.1211 14.7208C85.0279 14.8092 84.9052 14.8753 84.7896 14.8641C84.3641 14.7645 83.8555 14.4998 83.4254 14.7703C83.2708 14.9584 82.9947 14.903 82.7847 14.9855C82.7971 15.1729 82.8189 15.3556 82.869 15.5259Z" fill="white"/>
<path fill-rule="evenodd" clip-rule="evenodd" d="M83.0514 18.8054C83.0183 18.8991 82.9245 19.0529 83.0962 19.0977C83.4489 19.1083 83.9019 18.9262 84.178 19.202C84.2717 19.2739 84.2269 19.423 84.221 19.5167L84.6846 19.9028C84.7289 19.67 84.8126 19.4608 84.8185 19.2126C84.7796 19.0358 84.6911 18.8655 84.5366 18.7499C84.2322 18.7499 84.0565 18.3945 83.7297 18.4382C83.5592 18.4004 83.41 18.5519 83.2383 18.5519C83.1622 18.6285 83.1174 18.7228 83.0514 18.8054Z" fill="white"/>
<path fill-rule="evenodd" clip-rule="evenodd" d="M83.1835 16.2044C83.2549 16.3535 83.3387 16.5964 83.4762 16.6123C83.8019 16.4702 84.2774 16.3813 84.6415 16.5363C84.7624 16.5575 84.7624 16.6954 84.7359 16.7838C84.9229 16.894 85.1495 16.9824 85.3483 17.1033L85.2928 16.772C85.2816 16.4137 84.8297 16.3812 84.8013 16.0276C84.4314 15.9068 84.0172 15.8673 83.6254 15.9616C83.4986 16.0771 83.3157 16.0618 83.1623 16.0942C83.1511 16.1384 83.1776 16.1667 83.1835 16.2044Z" fill="white"/>
<path fill-rule="evenodd" clip-rule="evenodd" d="M83.2773 17.992C83.4926 17.9307 83.6312 17.6943 83.8631 17.6719C84.2158 17.6778 84.5308 17.8216 84.752 18.1258C84.8841 18.2124 84.8564 18.4387 85.028 18.4387C84.9773 18.1688 85.0658 17.9212 85.0546 17.6442C84.8239 17.2588 84.2494 17.557 84.0341 17.1038L83.6259 17.1315C83.3328 17.204 83.4106 17.5458 83.3723 17.778C83.3387 17.8487 83.2726 17.9042 83.2773 17.992Z" fill="white"/>
<path fill-rule="evenodd" clip-rule="evenodd" d="M85.3047 20.405C85.4752 20.7469 85.8515 21.0062 85.8892 21.3975C85.9771 21.2932 86.0385 21.1718 86.0986 21.0557C86.0927 20.9455 85.9659 20.9455 85.9169 20.8571C85.8662 20.7139 85.9435 20.5871 85.9659 20.4598C85.8939 20.2559 85.7223 20.0632 85.53 19.9412L85.3047 20.405Z" fill="white"/>
<path fill-rule="evenodd" clip-rule="evenodd" d="M85.9838 19.5332L86.3807 20.0743C86.5512 19.8043 86.5512 19.4065 86.4851 19.0811C86.4474 19.0198 86.3748 18.9208 86.2763 18.9656C86.1271 19.1195 86.1047 19.357 85.9838 19.5332Z" fill="white"/>
<path fill-rule="evenodd" clip-rule="evenodd" d="M84.3654 4.43547C84.5087 4.50737 84.6467 4.57338 84.819 4.58458C84.934 4.52387 85.0838 4.47908 85.2271 4.51857C85.4312 4.65118 85.6795 4.49087 85.9173 4.50207C85.7073 4.30344 85.469 4.18144 85.2271 4.06592C84.9175 4.13134 84.6697 4.35236 84.3654 4.43547Z" fill="white"/>
<path fill-rule="evenodd" clip-rule="evenodd" d="M86.5242 4.95289C86.8167 4.98059 87.0273 5.23993 87.2249 5.45505C87.4732 5.49277 87.6608 5.67018 87.8094 5.85171L87.7168 5.55996C87.6508 5.26704 87.4673 5.04071 87.2804 4.80908C87.0155 4.82617 86.7554 4.84916 86.5242 4.95289Z" fill="white"/>
<path fill-rule="evenodd" clip-rule="evenodd" d="M65.9191 2.53418L66.0796 2.55127C66.5091 2.7664 67.2047 2.87662 67.2448 3.4996C66.8076 3.67111 66.3881 3.90215 66.04 4.2552C65.7757 3.98526 65.24 4.13378 65.1509 3.65991C65.2347 3.21198 65.394 2.64911 65.9191 2.53418Z" fill="black"/>
<path fill-rule="evenodd" clip-rule="evenodd" d="M66.3338 5.3313C66.8365 5.28651 67.3221 5.35782 67.8413 5.31421C67.9676 5.36902 68.0997 5.47865 68.1611 5.60596C68.144 6.20183 67.9623 6.77059 67.9351 7.38238C67.7085 7.4755 67.4873 7.6641 67.4318 7.91165C67.2277 7.97236 67.0448 8.09318 66.8459 8.18689C66.7592 8.00006 66.7745 7.71833 66.9297 7.56332C67.1451 7.26037 67.7032 7.3311 67.659 6.85134C67.8024 6.6203 67.6649 6.32206 67.669 6.07983C67.6141 5.89712 67.5587 6.14053 67.4708 6.13464C67.2944 6.17236 67.1126 6.18356 66.9574 6.09515C66.8412 5.97374 66.699 5.87413 66.6648 5.70969C66.5096 5.63248 66.3285 5.51165 66.2506 5.35134L66.3338 5.3313Z" fill="black"/>
<path fill-rule="evenodd" clip-rule="evenodd" d="M66.941 8.92596C67.1769 8.96014 67.4264 8.85405 67.6305 8.97075C67.5875 9.04855 67.4707 9.08097 67.3769 9.10337L67.0065 9.2737C66.869 9.24128 66.9463 9.02026 66.941 8.92596Z" fill="black"/>
<path fill-rule="evenodd" clip-rule="evenodd" d="M67.9067 4.32124C68.1433 4.24403 68.3981 4.0849 68.6517 4.16093C68.47 4.34364 68.3267 4.57998 68.1887 4.80101L67.4325 4.7845C67.5157 4.58529 67.7251 4.42085 67.9067 4.32124Z" fill="black"/>
<path fill-rule="evenodd" clip-rule="evenodd" d="M70.1211 4.13965C70.4354 4.08483 70.4183 4.49269 70.7056 4.50801C70.7563 4.57403 70.8283 4.63473 70.8 4.73434C70.6336 4.80035 70.3912 4.76852 70.2036 4.81155C69.9547 4.67363 70.1157 4.24338 69.7235 4.27108C69.7017 4.23748 69.658 4.17147 69.7123 4.14967C69.8338 4.10605 69.9948 4.12255 70.1211 4.13965Z" fill="black"/>
<path fill-rule="evenodd" clip-rule="evenodd" d="M69.9223 5.61668C70.0604 5.42336 70.2704 5.40745 70.4693 5.36914L71.8995 5.39566C71.9602 5.45165 71.844 5.50116 71.844 5.56718C71.7561 5.65028 71.6286 5.67268 71.5514 5.7493C71.3637 5.7546 71.3803 5.97562 71.2481 6.06992C71.0434 6.27385 70.7448 6.17955 70.5076 6.14713C70.425 6.08584 70.3312 6.00332 70.2917 5.90961L70.2256 5.97562C70.3088 6.28505 70.287 6.6269 70.3483 6.94104L70.6905 7.16737C70.6958 7.67424 71.2923 7.53633 71.5514 7.81805C71.4906 8.00076 71.369 8.1546 71.2369 8.30902C71.0274 8.10509 70.7891 7.97306 70.5359 7.88407C70.5135 7.5876 70.1878 7.4102 70.0067 7.26167C69.956 6.72061 69.9453 6.16894 69.8574 5.64497L69.9223 5.61668Z" fill="black"/>
<path fill-rule="evenodd" clip-rule="evenodd" d="M70.4416 9.02023H71.1045L71.0214 9.36738L70.3578 9.08624C70.3425 9.03143 70.4026 9.01492 70.4416 9.02023Z" fill="black"/>
<path fill-rule="evenodd" clip-rule="evenodd" d="M71.634 2.77161L72.1255 2.61719C72.4075 2.74921 72.6719 2.91424 72.9315 3.10226C73.1356 3.47711 73.1032 3.98457 73.0088 4.40363C72.8595 4.56866 72.5338 4.40363 72.4128 4.66826H72.3898C72.2081 4.15019 71.6889 3.68575 71.2086 3.44999C71.2859 3.18477 71.3691 2.92544 71.634 2.77161Z" fill="black"/>
</g>
<defs>
<clipPath id="clip0_3831_34006">
<rect width="94.5455" height="24" fill="white" transform="translate(0 0.333252)"/>
</clipPath>
</defs>
</svg>
