<svg width="174" height="174" viewBox="0 0 174 174" fill="none" xmlns="http://www.w3.org/2000/svg">
<rect x="0.626465" y="1.5" width="171.747" height="171.748" rx="85.8735" stroke="#9E9EA7"/>
<path opacity="0.7" d="M86.4 2.46568L105.317 60.685L105.429 61.0305H105.792H167.007L117.483 97.012L117.189 97.2255L117.301 97.571L136.218 155.79L86.6939 119.809L86.4 119.595L86.1061 119.809L36.582 155.79L55.4985 97.571L55.6107 97.2255L55.3169 97.012L5.79272 61.0305H67.0079H67.3712L67.4834 60.685L86.4 2.46568Z" stroke="#9E9EA7"/>
<path opacity="0.6" d="M135.941 18.8552L116.731 76.9783L116.617 77.3232L116.909 77.5382L166.251 113.769L105.037 113.46L104.674 113.458L104.56 113.803L85.3494 171.926L66.727 113.612L66.6165 113.266L66.2532 113.264L5.03881 112.955L54.744 77.2244L55.0389 77.0124L54.9284 76.6663L36.3061 18.3523L85.6479 54.5833L85.9407 54.7983L86.2357 54.5863L135.941 18.8552Z" stroke="#9E9EA7"/>
<path opacity="0.6" d="M112.709 6.4743L112.912 67.6894L112.913 68.0526L113.259 68.1638L171.541 86.8869L113.385 105.997L113.04 106.11L113.041 106.473L113.244 167.688L77.0985 118.284L76.884 117.991L76.5389 118.104L18.3829 137.214L54.1996 87.5706L54.4122 87.276L54.1977 86.9828L18.052 37.5783L76.3336 56.3014L76.6795 56.4125L76.892 56.1179L112.709 6.4743Z" stroke="#9E9EA7"/>
<path opacity="0.6" d="M154.598 36.5563L118.979 86.3418L118.767 86.6372L118.983 86.9295L155.325 136.19L96.9693 117.699L96.623 117.589L96.4116 117.884L60.7924 167.67L60.3459 106.456L60.3432 106.093L59.9969 105.983L1.64135 87.4918L59.7209 68.1509L60.0656 68.0362L60.0629 67.6729L59.6164 6.45912L95.9581 55.7196L96.1737 56.0119L96.5184 55.8971L154.598 36.5563Z" stroke="#9E9EA7"/>
</svg>
