<svg shape-rendering="geometricPrecision" width="96" height="16" viewBox="0 0 96 16" fill="none" xmlns="http://www.w3.org/2000/svg">
<path d="M68.5292 12.4894V15.1408H57.4473V0.857422H68.2624V3.50889H60.74V6.61135H67.3831V9.18109H60.74V12.4894H68.5292Z" fill="black"/>
<path d="M49.1057 15.387C47.9748 15.387 46.8802 15.2327 45.8251 14.927C44.77 14.6213 43.921 14.2217 43.2812 13.7344L44.4061 11.2434C45.0186 11.6913 45.7493 12.0515 46.5922 12.3239C47.4381 12.5963 48.281 12.7325 49.1269 12.7325C50.0668 12.7325 50.7612 12.5933 51.2129 12.3148C51.6617 12.0364 51.886 11.6641 51.886 11.204C51.886 10.865 51.7526 10.5805 51.4858 10.3565C51.219 10.1325 50.8794 9.95092 50.464 9.81471C50.0486 9.67851 49.4847 9.5302 48.7782 9.36675C47.6867 9.10947 46.7953 8.84917 46.101 8.59189C45.4067 8.33462 44.8094 7.91692 44.3121 7.34788C43.8149 6.77582 43.5663 6.01307 43.5663 5.06266C43.5663 4.23332 43.7906 3.47965 44.2394 2.8077C44.6881 2.13273 45.3673 1.60002 46.2738 1.20653C47.1804 0.813051 48.2871 0.613281 49.5969 0.613281C50.5095 0.613281 51.4039 0.722246 52.2741 0.940175C53.1473 1.1581 53.9084 1.46986 54.5633 1.87848L53.5415 4.38769C52.2195 3.64007 50.8976 3.26475 49.5757 3.26475C48.6479 3.26475 47.9626 3.41306 47.52 3.71271C47.0773 4.01237 46.856 4.40584 46.856 4.89618C46.856 5.38652 47.1106 5.74974 47.6231 5.98885C48.1355 6.22797 48.9147 6.46103 49.9637 6.6941C51.0553 6.95137 51.9467 7.21168 52.641 7.46895C53.3353 7.72623 53.9326 8.13485 54.4299 8.6948C54.9271 9.25173 55.1757 10.0084 55.1757 10.9588C55.1757 11.7761 54.9483 12.5207 54.4905 13.1926C54.0327 13.8646 53.3505 14.4003 52.4348 14.7938C51.5222 15.1873 50.4095 15.387 49.1027 15.387H49.1057Z" fill="black"/>
<path d="M41.0101 0.858398V15.1418H38.2904L31.1562 6.47007V15.1418H27.8877V0.858398H30.6256L37.7386 9.53015V0.858398H41.0101Z" fill="black"/>
<path d="M25.2499 12.4903V15.1418H14.168V0.858398H24.9831V3.50987H17.4607V6.61233H24.1038V9.18207H17.4607V12.4903H25.2499Z" fill="black"/>
<path d="M5.82748 15.387C4.69655 15.387 3.602 15.2327 2.54687 14.927C1.49174 14.6213 0.642781 14.2217 0 13.7344L1.12487 11.2434C1.73733 11.6913 2.46804 12.0515 3.31093 12.3239C4.15685 12.5963 4.99975 12.7325 5.84567 12.7325C6.78559 12.7325 7.47991 12.5933 7.93168 12.3148C8.38041 12.0364 8.60478 11.6641 8.60478 11.204C8.60478 10.865 8.47137 10.5805 8.20456 10.3565C7.93774 10.1325 7.59816 9.95092 7.18278 9.81471C6.7674 9.67851 6.20345 9.5302 5.49699 9.36675C4.40548 9.10947 3.51407 8.84917 2.81975 8.59189C2.12542 8.33462 1.52812 7.91692 1.03088 7.34788C0.53363 6.77582 0.285007 6.01307 0.285007 5.06266C0.285007 4.23332 0.509374 3.47965 0.958108 2.8077C1.40684 2.13273 2.08601 1.60002 2.99257 1.20653C3.89914 0.813051 5.00581 0.613281 6.31563 0.613281C7.22826 0.613281 8.12269 0.722246 8.99287 0.940175C9.86609 1.1581 10.6271 1.46986 11.282 1.87848L10.2602 4.38769C8.9383 3.64007 7.61635 3.26475 6.2944 3.26475C5.36662 3.26475 4.68139 3.41306 4.23872 3.71271C3.79605 4.01237 3.57471 4.40584 3.57471 4.89618C3.57471 5.38652 3.8294 5.74974 4.34181 5.98885C4.85421 6.22797 5.63343 6.46103 6.6825 6.6941C7.77401 6.95137 8.66542 7.21168 9.35974 7.46895C10.0541 7.72623 10.6514 8.13485 11.1486 8.6948C11.6459 9.25173 11.8945 10.0084 11.8945 10.9588C11.8945 11.7761 11.6671 12.5207 11.2093 13.1926C10.7514 13.8646 10.0692 14.4003 9.15357 14.7938C8.24094 15.1873 7.1282 15.387 5.82141 15.387H5.82748Z" fill="black"/>
<path d="M68.5292 12.4894V15.1408H57.4473V0.857422H68.2624V3.50889H60.74V6.61135H67.3831V9.18109H60.74V12.4894H68.5292Z" fill="black"/>
<path d="M49.1057 15.387C47.9748 15.387 46.8802 15.2327 45.8251 14.927C44.77 14.6213 43.921 14.2217 43.2812 13.7344L44.4061 11.2434C45.0186 11.6913 45.7493 12.0515 46.5922 12.3239C47.4381 12.5963 48.281 12.7325 49.1269 12.7325C50.0668 12.7325 50.7612 12.5933 51.2129 12.3148C51.6617 12.0364 51.886 11.6641 51.886 11.204C51.886 10.865 51.7526 10.5805 51.4858 10.3565C51.219 10.1325 50.8794 9.95092 50.464 9.81471C50.0486 9.67851 49.4847 9.5302 48.7782 9.36675C47.6867 9.10947 46.7953 8.84917 46.101 8.59189C45.4067 8.33462 44.8094 7.91692 44.3121 7.34788C43.8149 6.77582 43.5663 6.01307 43.5663 5.06266C43.5663 4.23332 43.7906 3.47965 44.2394 2.8077C44.6881 2.13273 45.3673 1.60002 46.2738 1.20653C47.1804 0.813051 48.2871 0.613281 49.5969 0.613281C50.5095 0.613281 51.4039 0.722246 52.2741 0.940175C53.1473 1.1581 53.9084 1.46986 54.5633 1.87848L53.5415 4.38769C52.2195 3.64007 50.8976 3.26475 49.5757 3.26475C48.6479 3.26475 47.9626 3.41306 47.52 3.71271C47.0773 4.01237 46.856 4.40584 46.856 4.89618C46.856 5.38652 47.1106 5.74974 47.6231 5.98885C48.1355 6.22797 48.9147 6.46103 49.9637 6.6941C51.0553 6.95137 51.9467 7.21168 52.641 7.46895C53.3353 7.72623 53.9326 8.13485 54.4299 8.6948C54.9271 9.25173 55.1757 10.0084 55.1757 10.9588C55.1757 11.7761 54.9483 12.5207 54.4905 13.1926C54.0327 13.8646 53.3505 14.4003 52.4348 14.7938C51.5222 15.1873 50.4095 15.387 49.1027 15.387H49.1057Z" fill="black"/>
<path d="M41.0101 0.858398V15.1418H38.2904L31.1562 6.47007V15.1418H27.8877V0.858398H30.6256L37.7386 9.53015V0.858398H41.0101Z" fill="black"/>
<path d="M25.2499 12.4903V15.1418H14.168V0.858398H24.9831V3.50987H17.4607V6.61233H24.1038V9.18207H17.4607V12.4903H25.2499Z" fill="black"/>
<path d="M5.82748 15.387C4.69655 15.387 3.602 15.2327 2.54687 14.927C1.49174 14.6213 0.642781 14.2217 0 13.7344L1.12487 11.2434C1.73733 11.6913 2.46804 12.0515 3.31093 12.3239C4.15685 12.5963 4.99975 12.7325 5.84567 12.7325C6.78559 12.7325 7.47991 12.5933 7.93168 12.3148C8.38041 12.0364 8.60478 11.6641 8.60478 11.204C8.60478 10.865 8.47137 10.5805 8.20456 10.3565C7.93774 10.1325 7.59816 9.95092 7.18278 9.81471C6.7674 9.67851 6.20345 9.5302 5.49699 9.36675C4.40548 9.10947 3.51407 8.84917 2.81975 8.59189C2.12542 8.33462 1.52812 7.91692 1.03088 7.34788C0.53363 6.77582 0.285007 6.01307 0.285007 5.06266C0.285007 4.23332 0.509374 3.47965 0.958108 2.8077C1.40684 2.13273 2.08601 1.60002 2.99257 1.20653C3.89914 0.813051 5.00581 0.613281 6.31563 0.613281C7.22826 0.613281 8.12269 0.722246 8.99287 0.940175C9.86609 1.1581 10.6271 1.46986 11.282 1.87848L10.2602 4.38769C8.9383 3.64007 7.61635 3.26475 6.2944 3.26475C5.36662 3.26475 4.68139 3.41306 4.23872 3.71271C3.79605 4.01237 3.57471 4.40584 3.57471 4.89618C3.57471 5.38652 3.8294 5.74974 4.34181 5.98885C4.85421 6.22797 5.63343 6.46103 6.6825 6.6941C7.77401 6.95137 8.66542 7.21168 9.35974 7.46895C10.0541 7.72623 10.6514 8.13485 11.1486 8.6948C11.6459 9.25173 11.8945 10.0084 11.8945 10.9588C11.8945 11.7761 11.6671 12.5207 11.2093 13.1926C10.7514 13.8646 10.0692 14.4003 9.15357 14.7938C8.24094 15.1873 7.1282 15.387 5.82141 15.387H5.82748Z" fill="black"/>
<path d="M90.3112 9.78915L88.0804 4.37046L85.8497 9.78915H90.3112ZM91.3376 12.2775H84.8044L83.5583 15.3107H80.2217L86.4935 1.1543H89.709L95.9998 15.3107H92.5836L91.3376 12.2775Z" fill="black"/>
<rect x="70.8535" y="3.54102" width="9.36898" height="9.36898" rx="4.68449" fill="#068392"/>
<path opacity="0.7" d="M75.6425 3.47852L76.6942 6.71542L80.0977 6.71542L77.3442 8.71593L78.396 11.9528L75.6425 9.95232L72.889 11.9528L73.9408 8.71593L71.1873 6.71542L74.5908 6.71542L75.6425 3.47852Z" fill="#1ECCC2"/>
<path opacity="0.6" d="M77.8958 4.15767L77.1881 7.48678L80.1356 9.18852L76.7508 9.54428L76.0432 12.8734L74.6589 9.76415L71.274 10.1199L73.8033 7.84254L72.419 4.73331L75.3665 6.43505L77.8958 4.15767Z" fill="#1ECCC2"/>
<path opacity="0.6" d="M76.7661 3.689L76.9442 7.08781L80.2317 7.9687L77.0543 9.1884L77.2324 12.5872L75.0905 9.94221L71.9131 11.1619L73.7668 8.30751L71.6249 5.66251L74.9124 6.5434L76.7661 3.689Z" fill="#1ECCC2"/>
<path opacity="0.6" d="M78.7909 4.88568L77.2458 7.9182L79.6524 10.3248L76.2908 9.7924L74.7457 12.8249L74.2133 9.46335L70.8517 8.93093L73.8842 7.38578L73.3518 4.0242L75.7584 6.43082L78.7909 4.88568Z" fill="#1ECCC2"/>
<path opacity="0.6" d="M79.5356 5.85571L77.2582 8.38499L78.96 11.3325L75.8507 9.94817L73.5734 12.4775L73.9291 9.09262L70.8199 7.7083L74.149 7.00067L74.5048 3.61584L76.2065 6.56334L79.5356 5.85571Z" fill="#1ECCC2"/>
<circle cx="75.5838" cy="8.17754" r="1.82695" fill="black"/>
<circle cx="76.8493" cy="6.91272" r="0.562139" fill="#FAF7F5"/>
<circle cx="78.7579" cy="5.00492" r="1.4639" fill="#FAF7F5"/>
</svg>
