<svg width="1440" height="1024" viewBox="0 0 1440 1024" fill="none" xmlns="http://www.w3.org/2000/svg">
<path opacity="0.7" d="M737.822 -0.932617L852.126 350.859H1222.02L922.77 568.277L1037.07 920.069L737.822 702.65L438.571 920.069L552.874 568.277L253.623 350.859H623.518L737.822 -0.932617Z" fill="#1ECCC2"/>
<path opacity="0.6" d="M982.736 72.8798L905.831 434.692L1226.17 619.639L858.301 658.304L781.395 1020.12L630.945 682.2L263.076 720.864L537.962 473.356L387.512 135.44L707.851 320.388L982.736 72.8798Z" fill="#1ECCC2"/>
<path opacity="0.6" d="M859.961 21.943L879.319 391.331L1236.61 487.067L891.284 619.626L910.643 989.014L677.86 701.551L332.533 834.11L533.993 523.89L301.21 236.427L658.501 332.163L859.961 21.943Z" fill="#1ECCC2"/>
<path opacity="0.6" d="M1080 152L912.071 481.579L1173.63 743.134L808.285 685.27L640.357 1014.85L582.492 649.508L217.151 591.644L546.73 423.715L488.866 58.3736L750.421 319.929L1080 152Z" fill="#1ECCC2"/>
<path opacity="0.6" d="M1160.96 257.426L913.449 532.311L1098.4 852.65L760.48 702.2L512.972 977.086L551.637 609.217L213.721 458.767L575.533 381.861L614.197 13.9927L799.145 334.331L1160.96 257.426Z" fill="#35C0B7"/>
</svg>
