<svg width="21" height="21" viewBox="0 0 21 21" fill="none" xmlns="http://www.w3.org/2000/svg">
<path d="M8.04948 0.886464C6.64792 0.439629 5.12429 1.06117 4.45404 2.35319L3.64826 3.90646C3.55252 4.09102 3.40011 4.24112 3.21271 4.33541L1.63554 5.12898C0.323638 5.78908 -0.307462 7.28962 0.146248 8.66995L0.691708 10.3294C0.756518 10.5266 0.756518 10.7389 0.691708 10.9361L0.146248 12.5956C-0.307462 13.9759 0.323638 15.4764 1.63554 16.1366L3.21271 16.9301C3.40011 17.0244 3.55252 17.1745 3.64826 17.3591L4.45404 18.9124C5.12429 20.2044 6.64792 20.8259 8.04948 20.3791L9.73448 19.8419C9.93468 19.7781 10.1503 19.7781 10.3505 19.8419L12.0355 20.3791C13.4371 20.8259 14.9607 20.2044 15.631 18.9124L16.4367 17.3591C16.5325 17.1745 16.6849 17.0244 16.8723 16.9301L18.4495 16.1366C19.7614 15.4764 20.3925 13.9759 19.9388 12.5956L19.3933 10.9361C19.3285 10.7389 19.3285 10.5266 19.3933 10.3294L19.9388 8.66995C20.3925 7.28962 19.7614 5.78908 18.4495 5.12898L16.8723 4.33541C16.6849 4.24112 16.5325 4.09102 16.4367 3.90646L15.631 2.35319C14.9607 1.06117 13.4371 0.439629 12.0355 0.886464L10.3505 1.42366C10.1503 1.48748 9.93468 1.48749 9.73448 1.42366L8.04948 0.886464ZM4.80225 10.3937L6.21647 9.00086L8.04948 10.9361L9.04488 11.7865L14.7018 6.21536L16.116 7.60814L9.04488 14.572L4.80225 10.3937Z" fill="#35C0B7"/>
</svg>
