<svg width="34" height="24" viewBox="0 0 34 24" fill="none" xmlns="http://www.w3.org/2000/svg">
<rect x="0.5" width="33" height="24" rx="2" fill="url(#paint0_linear_7327_41986)"/>
<rect x="2.5" y="13" width="4" height="1" rx="0.5" fill="white"/>
<rect x="8.5" y="13" width="4" height="1" rx="0.5" fill="white"/>
<rect x="14.5" y="13" width="4" height="1" rx="0.5" fill="white"/>
<rect x="20.5" y="13" width="4" height="1" rx="0.5" fill="white"/>
<rect x="24.5" y="2" width="2" height="1" rx="0.5" fill="white" fill-opacity="0.3"/>
<rect x="27.5" y="2" width="4" height="1" rx="0.5" fill="white" fill-opacity="0.3"/>
<rect x="14.5" y="17" width="4" height="1" rx="0.5" fill="white"/>
<rect x="2.5" y="20" width="9" height="1" rx="0.5" fill="white"/>
<rect x="12.5" y="20" width="6" height="1" rx="0.5" fill="white"/>
<rect x="26.5" y="13" width="4" height="1" rx="0.5" fill="white"/>
<rect x="3.5" y="4" width="5" height="5" rx="1" fill="url(#paint1_linear_7327_41986)"/>
<rect x="21.5" y="16" width="5" height="5" rx="2.5" fill="url(#paint2_linear_7327_41986)"/>
<rect x="25.5" y="16" width="5" height="5" rx="2.5" fill="white"/>
<defs>
<linearGradient id="paint0_linear_7327_41986" x1="17" y1="0" x2="17" y2="24" gradientUnits="userSpaceOnUse">
<stop stop-color="#258F9D"/>
<stop offset="1" stop-color="#34BDB6"/>
</linearGradient>
<linearGradient id="paint1_linear_7327_41986" x1="6" y1="4" x2="6" y2="9" gradientUnits="userSpaceOnUse">
<stop offset="0.225" stop-color="white"/>
<stop offset="1" stop-color="white" stop-opacity="0.2"/>
</linearGradient>
<linearGradient id="paint2_linear_7327_41986" x1="24" y1="16" x2="24" y2="21" gradientUnits="userSpaceOnUse">
<stop stop-color="white"/>
<stop offset="1" stop-color="white" stop-opacity="0.1"/>
</linearGradient>
</defs>
</svg>
