<svg width="24" height="24" viewBox="0 0 24 24" fill="none" xmlns="http://www.w3.org/2000/svg">
<rect x="2" y="2" width="20" height="20" rx="10" fill="#068392"/>
<path opacity="0.7" d="M12.2227 1.86719L14.4678 8.77702H21.7332L15.8554 13.0475L18.1005 19.9574L12.2227 15.6868L6.3448 19.9574L8.58994 13.0475L2.71209 8.77702H9.97752L12.2227 1.86719Z" fill="#1ECCC2"/>
<path opacity="0.6" d="M17.0333 3.31641L15.5227 10.4231L21.8148 14.0558L14.5892 14.8152L13.0786 21.9219L10.1235 15.2846L2.89785 16.044L8.29711 11.1825L5.342 4.54521L11.634 8.17792L17.0333 3.31641Z" fill="#1ECCC2"/>
<path opacity="0.6" d="M14.6212 2.31671L15.0014 9.57217L22.0193 11.4526L15.2364 14.0563L15.6167 21.3118L11.0444 15.6655L4.26152 18.2692L8.21856 12.1759L3.64628 6.52957L10.6641 8.41L14.6212 2.31671Z" fill="#1ECCC2"/>
<path opacity="0.6" d="M18.9441 4.87087L15.6457 11.3444L20.7831 16.4818L13.6071 15.3453L10.3087 21.8188L9.17214 14.6428L1.99616 13.5063L8.4697 10.2079L7.33314 3.03188L12.4706 8.16931L18.9441 4.87087Z" fill="#1ECCC2"/>
<path opacity="0.6" d="M20.5332 6.9415L15.6717 12.3408L19.3044 18.6328L12.6671 15.6777L7.80558 21.077L8.56503 13.8513L1.92773 10.8962L9.03439 9.38565L9.79383 2.16003L13.4265 8.45207L20.5332 6.9415Z" fill="#1ECCC2"/>
<circle cx="12.0973" cy="11.8971" r="3.9" fill="black"/>
<circle cx="14.7986" cy="9.19707" r="1.2" fill="#FAF7F5"/>
<circle cx="18.873" cy="5.12402" r="3.125" fill="#FAF7F5"/>
</svg>
