<svg width="68" height="40" viewBox="0 0 68 40" fill="none" xmlns="http://www.w3.org/2000/svg">
<rect x="1.40849" y="0.666667" width="65.2953" height="38.6667" rx="4.66667" fill="white" stroke="#D7D7D7" stroke-width="1.33333"/>
<path fill-rule="evenodd" clip-rule="evenodd" d="M54.2496 13.333H44.7166C45.2291 16.0886 48.3043 18.6663 51.6869 18.6663H59.2724C59.3749 18.3997 59.3749 18.0441 59.3749 17.7775C59.3749 15.2886 57.1197 13.333 54.2496 13.333Z" fill="url(#paint0_linear_1431_52566)"/>
<path fill-rule="evenodd" clip-rule="evenodd" d="M46.0492 21.333V26.6663H50.5921V23.8219H54.6302C56.8511 23.8219 58.7692 22.7552 59.3749 21.333H46.0492Z" fill="#4DB45F"/>
<path fill-rule="evenodd" clip-rule="evenodd" d="M28.7257 13.333V26.6663H32.5331C32.5331 26.6663 33.4849 26.6663 33.9608 25.714C36.5308 20.5711 37.2923 19.0473 37.2923 19.0473H37.7682V26.6663H42.0514V13.333H38.2441C38.2441 13.333 37.2923 13.4282 36.8163 14.2854C34.6271 18.6663 33.4849 20.9521 33.4849 20.9521H33.009V13.333H28.7257Z" fill="#4DB45F"/>
<path fill-rule="evenodd" clip-rule="evenodd" d="M10.0698 26.6663V13.333H14.6554C14.6554 13.333 15.9802 13.333 16.6935 15.2378C18.5277 20.2854 18.7316 20.9521 18.7316 20.9521C18.7316 20.9521 19.1392 19.714 20.7696 15.2378C21.4829 13.333 22.8077 13.333 22.8077 13.333H27.3933V26.6663H22.8077V19.5235H22.2981L19.7506 26.6663H17.7125L15.165 19.5235H14.6554V26.6663H10.0698Z" fill="#4DB45F"/>
<defs>
<linearGradient id="paint0_linear_1431_52566" x1="44.6901" y1="15.9997" x2="59.3749" y2="15.9997" gradientUnits="userSpaceOnUse">
<stop stop-color="#00B4E6"/>
<stop offset="1" stop-color="#088CCB"/>
</linearGradient>
</defs>
</svg>
