<svg width="68" height="40" viewBox="0 0 68 40" fill="none" xmlns="http://www.w3.org/2000/svg">
<rect x="0.666667" y="0.666667" width="66.5225" height="38.6667" rx="4.66667" stroke="#D7D7D7" stroke-width="1.33333"/>
<path d="M51.4121 18.9884L51.8558 17.4975L50.3161 17.5463C49.6057 17.5183 48.9191 17.2822 48.3417 16.8674C48.4126 16.8674 48.4792 16.8674 48.5502 16.8674C49.0122 16.8662 49.4647 16.736 49.8567 16.4914C50.2487 16.2468 50.5646 15.8976 50.7687 15.4831L51.4298 14.0144C50.8974 14.0189 50.3652 13.9878 49.8369 13.9212C49.3334 13.8018 48.8801 13.5271 48.5413 13.1359C48.3137 12.8928 48.0389 12.6986 47.7338 12.5651C47.4287 12.4316 47.0995 12.3616 46.7665 12.3594C46.5028 12.3606 46.2409 12.4025 45.99 12.4836C46.0275 12.3644 46.0572 12.2429 46.0788 12.1198C46.1829 11.2549 45.9404 10.3839 45.4043 9.69717L44.2507 8.264L43.5319 9.95008C43.4185 10.1893 43.2441 10.3944 43.0261 10.5446C42.9033 9.94463 42.6071 9.39385 42.1742 8.96062C41.8147 8.59223 41.3846 8.30017 40.9096 8.10194C40.4347 7.90372 39.9245 7.80339 39.4099 7.80699C39.2287 7.80607 39.0477 7.81942 38.8686 7.84692L37.4842 8.11758C37.6054 7.64779 37.7968 7.19902 38.0521 6.78647L38.8153 5.56628L36.8674 5.77482L36.2507 4.4437L35.0527 5.06045L33.9346 4L32.8386 5.09151L31.6362 4.47476L31.0194 5.77482L29.0804 5.55297L29.8525 6.76872C30.107 7.18112 30.297 7.63001 30.416 8.09983L29.0849 7.83805H29.0405C28.8555 7.81002 28.6685 7.79667 28.4814 7.79811C27.9667 7.79427 27.4565 7.89447 26.9815 8.09271C26.5065 8.29096 26.0764 8.58315 25.7171 8.95175C25.2828 9.38457 24.9851 9.93533 24.8608 10.5358C24.6456 10.3893 24.4728 10.1888 24.3594 9.95452L23.6406 8.264L22.4648 9.70605C21.9379 10.3935 21.7006 11.2598 21.8037 12.1198C21.8256 12.2428 21.8552 12.3643 21.8924 12.4836C21.6416 12.402 21.3796 12.3601 21.1159 12.3594C20.7829 12.3619 20.4539 12.432 20.1488 12.5654C19.8437 12.6989 19.5689 12.893 19.3411 13.1359C19.0043 13.5229 18.5566 13.7971 18.0588 13.9212C17.5272 14 16.9897 14.0311 16.4526 14.0144L17.1137 15.4831C17.3183 15.8972 17.6342 16.2462 18.0261 16.4907C18.418 16.7353 18.8703 16.8657 19.3322 16.8674C19.4032 16.8674 19.4698 16.8674 19.5408 16.8674C18.9648 17.287 18.2781 17.5277 17.5663 17.5596L16 17.5108L16.4748 19.0017C16.6451 19.5751 16.9788 20.0865 17.435 20.4734C17.8912 20.8603 18.4503 21.1059 19.0438 21.1803C18.9821 21.5668 18.8292 21.933 18.5977 22.2486C18.3662 22.5642 18.0628 22.8201 17.7127 22.995L16.5458 23.4742L17.1847 24.5835C17.4429 24.9859 17.7989 25.3162 18.2195 25.5436C18.6401 25.771 19.1115 25.8879 19.5896 25.8835C19.8431 25.883 20.0959 25.8562 20.3439 25.8037C20.4008 26.0822 20.4719 26.3576 20.5568 26.629C20.7765 27.2114 20.7922 27.8512 20.6012 28.4437L20.0244 29.6506L21.3111 29.9878C21.6012 30.0613 21.8993 30.0985 22.1986 30.0987C22.4156 30.0964 22.6316 30.0681 22.8419 30.0144C22.9933 29.9806 23.1417 29.9346 23.2856 29.8769C23.4506 30.174 23.6534 30.4484 23.8891 30.6933C24.7144 31.5408 25.8857 31.9712 27.3633 31.9712H28.4193L26.2363 32.8586L27.8957 33.6617C28.5621 33.992 29.2448 34.2882 29.9412 34.5491L29.7327 35.117L30.305 35.3788C31.2549 35.7539 32.2618 35.964 33.2823 36C33.2823 36 33.726 36 33.9656 36C34.2052 36 34.6445 36 34.6445 36C35.6588 35.9636 36.6596 35.7551 37.604 35.3833L38.1764 35.1215L37.9678 34.5535C38.6722 34.2828 39.3624 33.9762 40.0355 33.6351L41.6639 32.8453L39.4853 31.9578H40.5458C42.0277 31.9578 43.208 31.5141 44.0244 30.68C44.2604 30.4354 44.4633 30.1609 44.6278 29.8636C44.772 29.9208 44.9203 29.9668 45.0715 30.0011C45.2781 30.049 45.4895 30.0728 45.7016 30.0721C46.0008 30.0714 46.2988 30.0341 46.589 29.9612L47.8846 29.6195L47.3211 28.4348C47.1196 27.8354 47.1321 27.1847 47.3566 26.5935C47.4454 26.3228 47.5252 26.0477 47.5873 25.777C47.8368 25.8296 48.0911 25.8564 48.3461 25.8569C48.8282 25.8605 49.303 25.7399 49.725 25.5067C50.147 25.2736 50.5018 24.9358 50.7554 24.5258L51.3855 23.4298L50.2185 22.9506C49.868 22.7763 49.5642 22.5206 49.3326 22.2049C49.1011 21.8892 48.9484 21.5226 48.8874 21.1359C49.4798 21.0583 50.0372 20.8115 50.4929 20.4251C50.9486 20.0387 51.2831 19.5291 51.4565 18.9573L51.4121 18.9884Z" fill="white"/>
<path d="M33.9343 8.56108C32.6963 8.56108 31.769 8.96929 31.5693 9.44849L33.9343 10.3803L36.3037 9.44405C36.104 8.96485 35.1767 8.55664 33.9343 8.55664" fill="white"/>
<path d="M33.9656 33.2841H33.9346C33.1654 33.2773 32.3998 33.179 31.6539 32.9912L31.0416 34.6152C32.9376 35.1617 34.9493 35.1617 36.8453 34.6152L36.2463 32.9956C35.5003 33.1832 34.7348 33.2815 33.9656 33.2885" fill="white"/>
<path d="M38.4958 31.6787C37.8463 32.0031 37.171 32.2732 36.4769 32.4863L36.9606 33.8174C37.7347 33.6142 38.4867 33.3348 39.2057 32.9832L38.1985 32.6504L38.4958 31.6787Z" fill="white"/>
<path d="M29.391 31.6787L29.6882 32.6504L28.681 32.9832C29.3987 33.3342 30.1493 33.6136 30.9217 33.8174L31.4098 32.4863C30.7158 32.2731 30.0405 32.003 29.391 31.6787Z" fill="white"/>
<path d="M33.9343 7.01348C34.8227 7.00425 35.6995 7.2162 36.4856 7.63023C36.5613 7.37471 36.6532 7.12425 36.7607 6.88037L36.4944 6.91143L36.2149 6.94249L36.0951 6.68957L35.7401 5.93971L35.0923 6.27693L34.8394 6.4056L34.6486 6.21925L33.9343 5.50488L33.2376 6.21925L33.0469 6.40117L32.7939 6.27249L32.1417 5.93528L31.7912 6.68514L31.6714 6.93805L31.3918 6.90699L31.1256 6.87593C31.2326 7.12 31.3245 7.37043 31.4007 7.62579C32.182 7.2165 33.0522 7.00619 33.9343 7.01348Z" fill="white"/>
<path d="M48.186 15.701C48.3044 15.7424 48.4289 15.7634 48.5543 15.7631C48.8033 15.7609 49.0471 15.6918 49.2602 15.563C49.4733 15.4342 49.6479 15.2505 49.7656 15.031C48.9871 14.903 48.2769 14.5095 47.7556 13.9173C47.6321 13.7792 47.481 13.6684 47.3122 13.592C47.1433 13.5156 46.9604 13.4752 46.775 13.4736C46.4851 13.4791 46.2024 13.5651 45.9586 13.7221C47.2143 14.3921 47.4717 15.4659 48.1771 15.7055" fill="white"/>
<path d="M19.3366 15.7627C19.4605 15.763 19.5836 15.742 19.7004 15.7006C20.4192 15.461 20.6766 14.3695 21.9189 13.7172C21.6751 13.5602 21.3924 13.4742 21.1025 13.4688C20.9164 13.4697 20.7326 13.5098 20.563 13.5862C20.3933 13.6626 20.2415 13.7738 20.1175 13.9125C19.5973 14.5037 18.8888 14.8972 18.1119 15.0262C18.2297 15.2456 18.4042 15.4293 18.6173 15.5581C18.8304 15.6869 19.0743 15.756 19.3233 15.7583" fill="white"/>
<path d="M48.5233 20.0616H48.5765C49.9077 20.0616 50.3514 18.6506 50.3514 18.6506H50.3247C49.6311 18.6272 48.951 18.4526 48.3317 18.1392C47.7125 17.8257 47.1692 17.381 46.7396 16.8359C45.83 15.6778 45.0801 14.6617 43.607 14.2624L43.4606 14.2357L43.4296 14.0893C43.3896 13.863 43.5449 13.6456 43.8733 13.4238C45.9099 12.0926 44.5255 10.3933 44.5255 10.3933C44.5255 10.3933 43.9443 11.751 42.6442 11.751H42.5466C42.3977 11.7483 42.2493 11.7334 42.1029 11.7066L41.8633 11.6623C41.961 11.3227 41.9638 10.9629 41.8715 10.6219C41.7792 10.2809 41.5953 9.97161 41.3397 9.7277C41.0843 9.46584 40.7784 9.25849 40.4405 9.11817C40.1027 8.97785 39.7399 8.90747 39.3741 8.91128C39.2433 8.90974 39.1126 8.92014 38.9836 8.94234C39.4273 9.52803 39.7601 10.5042 39.241 11.1076C38.7973 11.6268 37.6969 11.6489 37.6969 12.4387C37.6969 12.7671 38.0031 13.1442 38.5488 13.4859C40.195 14.5241 41.8278 15.8996 42.5111 17.741C43.3586 20.0394 42.4046 21.5657 41.038 22.4443C41.3344 22.6942 41.6994 22.8489 42.0851 22.888C42.2138 22.888 42.3336 22.888 42.449 22.888C43.1628 22.9171 43.8648 22.6993 44.4368 22.2712C44.339 22.8743 44.0834 23.4407 43.6958 23.9129C43.3615 24.3015 42.9435 24.6091 42.4731 24.8128C42.0028 25.0165 41.4924 25.1108 40.9803 25.0888C40.9802 25.2963 41.0245 25.5015 41.1102 25.6905C41.1959 25.8795 41.3211 26.048 41.4773 26.1847C41.8309 26.4221 42.235 26.574 42.6575 26.6284C42.6575 26.6284 41.1134 26.9434 40.9404 29.2241C40.9446 29.804 40.8043 30.3759 40.5322 30.888H40.5588C44.1439 30.888 44.0508 27.8131 44.0508 27.8131C44.1437 28.0957 44.3075 28.3497 44.5265 28.5509C44.7456 28.7521 45.0126 28.8937 45.302 28.9623C45.4239 28.9927 45.5491 29.0076 45.6747 29.0067C45.8781 29.0053 46.0807 28.98 46.2781 28.9312C45.9541 28.0734 45.9541 27.1268 46.2781 26.269C46.5305 25.5572 46.6523 24.8056 46.6376 24.0505C46.8395 24.2977 47.0972 24.4934 47.3896 24.6215C47.682 24.7495 48.0006 24.8063 48.3192 24.787C48.6023 24.7921 48.882 24.7256 49.1326 24.5938C49.3831 24.4619 49.5963 24.269 49.7524 24.0327C47.3608 23.0388 47.6004 19.8397 47.6004 19.8397C47.8754 20.008 48.1921 20.0956 48.5144 20.0926L48.5233 20.0616ZM47.7956 23.4382C46.8239 22.959 46.2072 21.6855 46.0607 21.2197C45.9143 23.7222 44.6764 25.4703 43.2521 27.1564C42.8123 27.6627 42.4707 28.2465 42.2449 28.878C42.3629 28.2413 42.6339 27.6429 43.0347 27.1342C44.3658 25.5192 45.657 23.5092 45.7501 21.1886C45.8252 19.7785 45.4759 18.3783 44.7474 17.1686C44.9745 17.8242 45.0083 18.5313 44.8447 19.2055C44.681 19.8798 44.3269 20.4927 43.8245 20.9712C43.8245 20.9712 46.2693 18.0205 42.8084 14.9989C41.4329 13.8497 39.9243 13.1398 39.1478 12.634C41.9476 13.548 43.3186 12.5408 43.3186 12.5408C42.9363 12.8372 42.4951 13.0487 42.0246 13.1612C41.554 13.2737 41.0649 13.2845 40.5899 13.193C40.7851 13.2862 40.9892 13.3883 41.2066 13.5036C43.5671 14.7859 45.6925 16.898 46.0519 19.822V19.7998C46.6021 22.6706 47.8267 23.4071 47.8267 23.4071" fill="white"/>
<path d="M25.2244 26.6027C25.64 26.5544 26.0392 26.4117 26.3913 26.1856C26.551 26.0515 26.68 25.8846 26.7695 25.6963C26.8591 25.508 26.9072 25.3026 26.9104 25.0941C26.3977 25.1162 25.8867 25.0219 25.4156 24.8182C24.9445 24.6146 24.5257 24.3069 24.1905 23.9183C23.787 23.4521 23.5144 22.8871 23.4007 22.281C23.9717 22.7111 24.6744 22.9291 25.3885 22.8978C25.5083 22.8978 25.6281 22.8978 25.7568 22.8978C26.1441 22.8593 26.5106 22.7046 26.8084 22.4541C25.4418 21.5666 24.4834 20.0536 25.3309 17.7508C26.0097 15.9094 27.647 14.5295 29.2931 13.4957C29.8389 13.154 30.1451 12.7724 30.1451 12.4485C30.1451 11.6765 29.0491 11.6543 28.601 11.1174C28.0818 10.514 28.4057 9.54225 28.8539 8.95212C28.7249 8.92984 28.5942 8.91945 28.4634 8.92106C28.0976 8.91725 27.7348 8.98762 27.397 9.12795C27.0591 9.26827 26.7533 9.47562 26.4978 9.73748C26.2418 9.9811 26.0576 10.2903 25.9652 10.6315C25.8729 10.9726 25.876 11.3325 25.9742 11.672L25.7346 11.7208C25.5881 11.7472 25.4398 11.762 25.2909 11.7652H25.1977C23.8933 11.7652 23.3164 10.4075 23.3164 10.4075C23.3164 10.4075 21.9543 12.0936 23.9909 13.4291C24.3414 13.6554 24.4967 13.8728 24.4346 14.0947L24.4035 14.2411L24.2571 14.2677C22.784 14.667 22.0386 15.6831 21.1245 16.8412C20.6963 17.3813 20.1559 17.822 19.5408 18.133C18.9257 18.444 18.2504 18.6179 17.5616 18.6426H17.5172C17.5172 18.6426 17.9609 20.0536 19.292 20.0536H19.3541C19.6765 20.0566 19.9932 19.9689 20.2682 19.8007C20.2682 19.8007 20.5033 22.9998 18.1118 23.9937C18.2682 24.2296 18.4814 24.4224 18.7319 24.5542C18.9823 24.686 19.2619 24.7527 19.5449 24.748C19.8636 24.7673 20.1822 24.7105 20.4745 24.5824C20.7669 24.4544 21.0247 24.2587 21.2266 24.0115C21.2122 24.7666 21.3339 25.5181 21.586 26.23C21.9092 27.088 21.9092 28.0342 21.586 28.8922C21.782 28.9407 21.9831 28.9661 22.185 28.9676C22.3106 28.9688 22.4359 28.9539 22.5577 28.9233C22.8471 28.8547 23.1141 28.713 23.3332 28.5118C23.5522 28.3106 23.716 28.0566 23.8089 27.7741C23.8089 27.7741 23.7158 30.849 27.3009 30.849H27.3275C27.0578 30.3361 26.9191 29.7645 26.9238 29.1851C26.7551 26.9044 25.2066 26.5894 25.2066 26.5894L25.2244 26.6027ZM24.6298 27.144C23.1922 25.4579 21.9676 23.7097 21.7945 21.1851C21.6437 21.6288 21.0314 22.9155 20.0596 23.4036C20.0596 23.4036 21.2798 22.667 21.8345 19.7963V19.8185C22.1983 16.8944 24.3192 14.7824 26.6842 13.5001C26.9016 13.3803 27.1057 13.2827 27.3009 13.1895C26.8197 13.2869 26.323 13.2791 25.8451 13.1665C25.3672 13.0539 24.9193 12.8393 24.5322 12.5373C24.5322 12.5373 25.8988 13.5445 28.703 12.6304C27.9398 13.1407 26.4357 13.8506 25.0602 14.9998C21.617 18.0214 24.0796 20.9721 24.0796 20.9721C23.5772 20.4936 23.2231 19.8807 23.0594 19.2064C22.8958 18.5322 22.9295 17.8251 23.1567 17.1695C22.4269 18.3786 22.0775 19.7793 22.1539 21.1895C22.2471 23.5145 23.525 25.5201 24.865 27.1351C25.2673 27.6433 25.5399 28.2418 25.6592 28.8789C25.4309 28.2476 25.0879 27.664 24.6475 27.1573" fill="white"/>
<path d="M31.2722 15.3591C31.3299 15.4212 31.3876 15.4922 31.4453 15.5587L31.4852 15.6075L31.6405 15.8205L31.676 15.8693C31.7337 15.9581 31.7914 16.0557 31.849 16.1489C32.0468 16.5448 32.342 16.884 32.7067 17.1347C33.0715 17.3853 33.4939 17.5393 33.9344 17.582C34.3737 17.539 34.795 17.3854 35.1589 17.1356C35.5228 16.8857 35.8174 16.5478 36.0154 16.1533C36.0731 16.0557 36.1308 15.9581 36.1929 15.8693L36.2195 15.8294C36.2728 15.754 36.326 15.6785 36.3793 15.6075L36.4148 15.5632C36.4724 15.4922 36.5301 15.4212 36.5922 15.3591L36.6189 15.3324C36.8886 15.0491 37.2308 14.845 37.6083 14.7423L37.4308 14.6491L36.7032 14.2054L35.9577 13.7617L33.9344 14.871L31.9378 13.7839L31.1924 14.2276L30.4647 14.6713L30.2783 14.7778C30.6531 14.8685 30.9964 15.0585 31.2722 15.328L31.3033 15.3591H31.2722ZM33.1447 15.2703H34.8219V15.8516C34.745 15.7773 34.6526 15.7212 34.5512 15.6874C34.4498 15.6536 34.3422 15.643 34.2362 15.6563V16.4905C34.2342 16.6973 34.2829 16.9015 34.3782 17.0851H33.5617C33.6633 16.9047 33.7182 16.7019 33.7215 16.4949V15.6608C33.6155 15.6474 33.5078 15.6581 33.4064 15.6919C33.3051 15.7256 33.2126 15.7817 33.1358 15.856L33.1447 15.2703Z" fill="white"/>
<path d="M33.7702 14.147V10.7526L31.6094 10.0205L32.1596 13.3172L33.7702 14.147ZM33.3265 11.5868V12.1325L33.22 12.0837C33.0572 12.0289 32.9065 11.943 32.7763 11.8308C32.6604 11.7576 32.5611 11.6609 32.4847 11.5471C32.4083 11.4333 32.3565 11.3047 32.3326 11.1697L33.3265 11.5868Z" fill="white"/>
<path d="M35.7091 13.3181L36.2771 10.0303L34.1162 10.7624V14.1567L35.7091 13.3181ZM34.5821 11.5877L35.5627 11.175C35.5388 11.31 35.487 11.4386 35.4106 11.5524C35.3342 11.6663 35.2349 11.7629 35.119 11.8362C34.9888 11.9483 34.8381 12.0342 34.6753 12.0891L34.5732 12.1379L34.5821 11.5877Z" fill="white"/>
<path d="M30.7133 22.0187C30.9053 22.0811 31.106 22.1125 31.3079 22.1119V22.0498C31.3203 22.0104 31.3306 21.9704 31.3389 21.93C31.3708 21.7527 31.3886 21.5732 31.3922 21.3931C31.2712 21.321 31.1728 21.2165 31.1082 21.0914C31.0812 21.017 31.0316 20.9531 30.9663 20.9085C30.901 20.8639 30.8234 20.8409 30.7444 20.8429C30.5479 20.8593 30.3587 20.925 30.1942 21.0337C30.167 21.2283 30.2001 21.4266 30.2889 21.6019C30.3778 21.7772 30.5181 21.9211 30.6911 22.0143" fill="white"/>
<path d="M35.4918 20.2178C35.0925 20.6615 34.3027 21.4158 34.2672 21.4513L34.2184 21.5001L31.7381 21.4601C31.7359 21.6652 31.7091 21.8693 31.6582 22.068V22.1479L34.6088 22.6803C34.915 22.4674 35.7625 21.8462 36.0908 21.6066C35.8883 21.296 35.8136 20.9193 35.8823 20.555C35.7401 20.466 35.6141 20.3534 35.5096 20.2222" fill="white"/>
<path d="M35.8289 17.2314C35.5904 17.4977 35.2983 17.7104 34.9718 17.8557C34.6453 18.001 34.2917 18.0755 33.9343 18.0745C33.8441 18.0792 33.7538 18.0792 33.6636 18.0745C33.5741 18.0672 33.4851 18.0539 33.3974 18.0346C33.3505 18.2374 33.3675 18.4497 33.4462 18.6424C33.5095 18.7658 33.5973 18.875 33.704 18.9635C33.8108 19.0519 33.9344 19.1178 34.0674 19.1571L34.1694 19.1971V19.308C34.1817 19.5339 34.2678 19.7496 34.4145 19.922C34.5612 20.0943 34.7603 20.2137 34.9814 20.262C35.1101 20.1288 35.2255 20.009 35.3142 19.9114C35.2352 19.7566 35.2076 19.5806 35.2355 19.409C35.2634 19.2374 35.3454 19.0792 35.4695 18.9575C35.4336 19.2185 35.476 19.4844 35.5913 19.7214C35.7066 19.9583 35.8897 20.1557 36.1173 20.2886L36.2415 20.3463L36.2061 20.4794C36.1252 20.7383 36.148 21.0186 36.2696 21.2611C36.3913 21.5036 36.6023 21.6894 36.8583 21.7794L37.0225 21.8415L36.9515 22.0013C36.8447 22.2417 36.8344 22.514 36.9228 22.7617C37.0111 23.0095 37.1914 23.2138 37.4262 23.3324H39.2587V21.8682C39.0079 21.8355 38.7745 21.7222 38.5936 21.5453C38.4127 21.3685 38.2942 21.1376 38.256 20.8876C37.9789 20.8516 37.7272 20.7081 37.5549 20.4882C37.4564 20.3495 37.3999 20.1855 37.392 20.0156C37.3842 19.8456 37.4253 19.677 37.5105 19.5298C37.5147 19.8266 37.623 20.1125 37.8167 20.3374C37.9762 20.5035 38.1907 20.606 38.4201 20.6258H38.5533V20.7633C38.5648 20.958 38.6401 21.1435 38.7677 21.2911C38.8952 21.4387 39.0678 21.5401 39.2587 21.5798V18.5892C39.2761 18.1225 39.3768 17.6627 39.556 17.2314H35.8289Z" fill="white"/>
<path d="M30.8729 18.602L30.8197 20.5055L31.0371 20.5365L31.5651 18.7129L31.2989 18.1494L30.8729 18.602Z" fill="white"/>
<path d="M36.7032 27.3297H36.7564C37.0848 27.4229 37.1691 28.6076 37.7459 28.7141C37.7975 28.7195 37.8496 28.7195 37.9012 28.7141C37.975 28.7144 38.0478 28.6964 38.1129 28.6615C38.1779 28.6266 38.2333 28.5761 38.2739 28.5144C38.2739 28.5144 37.9855 28.0707 37.7681 27.7513C37.4797 27.3475 37.2578 26.8638 36.7165 26.8638H36.6766C36.575 26.8676 36.4766 26.8999 36.3926 26.957C36.2132 26.8395 36.0036 26.7764 35.7892 26.7751C35.5425 26.8052 35.299 26.8572 35.0615 26.9304L33.8635 26.8106C33.7017 26.7722 33.5615 26.6718 33.473 26.5311V26.5C33.473 26.4689 33.473 26.4334 33.473 26.4024C33.4807 26.0814 33.3791 25.7674 33.1848 25.5118C32.9905 25.2562 32.715 25.0743 32.4037 24.9958C32.4037 24.9958 32.4347 24.8095 32.3637 24.7385L32.0975 25.058L31.2101 24.6143L31.8313 25.3375L31.2722 25.9587C31.2466 25.9834 31.2296 26.0159 31.224 26.0511C31.2184 26.0863 31.2244 26.1224 31.2412 26.1539L31.4675 26.3536L31.7559 26.1805C31.7791 26.1741 31.8036 26.1741 31.8269 26.1805C31.9067 26.1805 32.0265 26.1805 32.133 26.1805C32.2395 26.1805 32.3504 26.1539 32.3637 26.0474C32.3283 26.4113 31.991 27.0413 32.2129 27.5383L32.3771 27.9154L31.3166 27.7646L30.8285 28.6032C30.7553 28.7137 30.7162 28.8433 30.7162 28.9759C30.7162 29.1085 30.7553 29.2381 30.8285 29.3486L31.0149 29.5793C31.144 29.4491 31.2518 29.2994 31.3344 29.1356L31.25 29.0424C31.2193 29.013 31.2002 28.9735 31.1961 28.9312C31.192 28.8888 31.2033 28.8464 31.2279 28.8117L31.5385 28.297L32.7897 28.5899L32.8563 28.4789C32.8903 28.4195 32.9405 28.3709 33.0009 28.3388C33.0613 28.3066 33.1296 28.2921 33.1979 28.297C33.254 28.2927 33.3104 28.2927 33.3665 28.297C33.6953 28.3635 34.0295 28.3991 34.3649 28.4035C34.5536 28.4223 34.7441 28.4033 34.9254 28.3477C35.1067 28.2921 35.2752 28.201 35.4209 28.0796C35.8646 28.754 36.7919 28.8605 36.7209 29.2022L36.4769 30.3514C36.6366 30.3514 36.7919 30.3514 36.9206 30.3159L37.1513 29.1179C37.1779 28.9892 37.2001 28.8117 37.2001 28.8117C37.027 28.6653 36.8774 28.4932 36.7564 28.3014C36.5923 27.9909 36.681 27.8267 36.5301 27.414C36.5449 27.3866 36.5666 27.3636 36.5931 27.3473C36.6196 27.3309 36.6499 27.3218 36.681 27.3209L36.7032 27.3297ZM31.9955 25.6348C31.9811 25.6342 31.967 25.6308 31.954 25.6246C31.9409 25.6184 31.9293 25.6097 31.9198 25.5989C31.9102 25.5881 31.903 25.5755 31.8985 25.5619C31.8939 25.5482 31.8922 25.5338 31.8934 25.5194C31.894 25.505 31.8974 25.4909 31.9036 25.4779C31.9098 25.4649 31.9185 25.4533 31.9293 25.4437C31.9401 25.4342 31.9527 25.4269 31.9663 25.4224C31.98 25.4179 31.9944 25.4162 32.0088 25.4174C32.0376 25.4174 32.0653 25.4288 32.0857 25.4492C32.106 25.4696 32.1175 25.4972 32.1175 25.5261C32.1175 25.5549 32.106 25.5826 32.0857 25.6029C32.0653 25.6233 32.0376 25.6348 32.0088 25.6348" fill="white"/>
<path d="M30.3095 28.4039C30.3095 28.4039 30.7266 28.2308 30.7532 28.111L30.7 27.9735C30.6769 27.9354 30.6682 27.8903 30.6756 27.8463C30.6829 27.8023 30.7057 27.7625 30.7399 27.7339L31.1836 27.4233L31.9335 27.5653C31.8491 27.4512 31.8053 27.3122 31.8092 27.1704L31.0949 27.0195L30.4205 27.4277C30.3032 27.5147 30.2185 27.6384 30.1798 27.7792C30.1412 27.92 30.151 28.0696 30.2075 28.2042L30.3095 28.4039Z" fill="white"/>
<path d="M35.6029 30.3689H36.0466C36.0466 30.3689 36.4326 29.2419 36.4548 29.2064C36.168 29.0727 35.8881 28.9246 35.6162 28.7627C35.7316 28.9357 36.0067 29.1265 35.9534 29.2774L35.6029 30.3689Z" fill="white"/>
<path d="M39.2589 23.6924H28.61V27.6857C28.61 29.323 29.7947 30.348 31.5429 30.348C33.0027 30.348 33.3887 30.4056 33.9344 30.9425C34.1044 30.7605 34.3107 30.6162 34.54 30.5191C34.7694 30.422 35.0166 30.3743 35.2656 30.379V30.3169L35.6161 29.2919L35.0481 28.6441C34.8197 28.713 34.5809 28.7415 34.3427 28.7284C33.988 28.724 33.6345 28.6869 33.2866 28.6175C33.2498 28.6133 33.2126 28.6133 33.1757 28.6175C33.1269 28.6175 33.1269 28.6175 33.1136 28.6441L33.047 28.7551L32.9272 28.9547L32.6965 28.9015L31.676 28.6619L31.534 28.8926V28.9192L31.6582 29.0568L31.605 29.2343C31.5119 29.4516 31.3778 29.6489 31.2101 29.8155L30.9527 30.0906L30.722 29.7978L30.549 29.5803C30.4577 29.4606 30.3984 29.3195 30.3766 29.1705C30.3549 29.0214 30.3714 28.8693 30.4247 28.7284L30.1363 28.8482L30.0077 28.5687L29.9189 28.369C29.8306 28.1655 29.8145 27.9379 29.8734 27.724C29.9324 27.5101 30.0627 27.3228 30.2428 27.1932L31.0637 26.7495L31.8446 26.9048C31.8446 26.8294 31.8934 26.5632 31.9156 26.4922H31.8712L31.4275 26.6608L30.9838 26.359C30.9621 26.3376 30.9448 26.312 30.933 26.2838C30.9213 26.2557 30.9152 26.2254 30.9152 26.1949C30.9152 26.1643 30.9213 26.1341 30.933 26.1059C30.9448 26.0777 30.9621 26.0522 30.9838 26.0307L31.4053 25.3918L30.336 24.0607L31.9777 24.7351L32.0886 24.602L32.3105 24.3358L32.5634 24.5754C32.6294 24.6394 32.6756 24.721 32.6965 24.8105C33.1402 24.988 33.9566 25.5071 34.0276 26.3502L33.7747 26.4522C33.8058 26.4943 33.847 26.5279 33.8945 26.5498L35.0659 26.6652L35.1724 26.6341C35.3713 26.5597 35.5813 26.5192 35.7936 26.5143C36.0057 26.5158 36.2148 26.5643 36.4059 26.6563C36.4901 26.626 36.5783 26.608 36.6677 26.6031H36.7253C36.9804 26.6258 37.2249 26.7158 37.4339 26.8639C37.6428 27.012 37.8086 27.2129 37.9145 27.4461L38.0432 27.6325C38.2606 27.9431 38.549 28.3912 38.5578 28.4134L38.6865 28.6131L38.5268 28.795C38.4542 28.8898 38.3609 28.9666 38.254 29.0197C38.1471 29.0728 38.0294 29.1006 37.91 29.1011C37.8392 29.1078 37.7679 29.1078 37.6971 29.1011C37.6211 29.0708 37.5495 29.0305 37.4841 28.9813C37.4841 29.0435 37.4841 29.1189 37.4486 29.181L37.2445 30.2503C37.8298 30.1345 38.3545 29.8132 38.7238 29.3446C39.0932 28.876 39.283 28.2908 39.2589 27.6946V23.6924Z" fill="#FCE527"/>
<path d="M28.6098 23.368H36.9026C36.7369 23.194 36.6213 22.9784 36.5682 22.744C36.515 22.5097 36.5264 22.2653 36.6009 22.0369C36.4886 21.9831 36.3842 21.9145 36.2903 21.8327C35.9664 22.0724 34.9592 22.7912 34.7196 22.9731L34.6663 23.0086L31.4184 22.4229H31.3519C31.247 22.429 31.1418 22.429 31.0368 22.4229C31.0217 22.4929 30.9831 22.5558 30.9274 22.6009C30.8718 22.6461 30.8024 22.671 30.7307 22.6714H30.6774C30.5936 22.6572 30.5187 22.6106 30.4689 22.5417C30.4191 22.4728 30.3984 22.3871 30.4112 22.3031V22.2321C30.2066 22.0835 30.0497 21.8784 29.9599 21.6419C29.87 21.4055 29.8511 21.148 29.9054 20.901L29.9409 20.861L29.9897 20.8255C29.9897 20.8255 30.0518 20.7812 30.1361 20.7368L29.901 20.7013C29.8589 20.6937 29.8214 20.67 29.7965 20.6352C29.7717 20.6004 29.7614 20.5572 29.7678 20.5149C29.7711 20.4938 29.7785 20.4736 29.7897 20.4554C29.8008 20.4372 29.8155 20.4214 29.8329 20.409C29.8503 20.3966 29.87 20.3878 29.8908 20.3832C29.9116 20.3785 29.9332 20.378 29.9542 20.3818L30.5177 20.4706L30.571 18.4917L31.4096 17.6042L31.9331 18.7046L31.3607 20.5904L31.8577 20.6702C31.8998 20.6778 31.9373 20.7016 31.9621 20.7364C31.987 20.7712 31.9973 20.8143 31.9908 20.8566C31.9845 20.8942 31.9649 20.9283 31.9356 20.9527C31.9063 20.9771 31.8692 20.9902 31.8311 20.9897H31.8045L31.4007 20.9232V20.9542C31.4455 21.0335 31.5137 21.097 31.5959 21.1361L34.0718 21.1761L34.7063 20.5504C34.4693 20.4685 34.2603 20.3214 34.1033 20.1259C33.9463 19.9305 33.8477 19.6947 33.8189 19.4456C33.5106 19.3284 33.2584 19.0984 33.1134 18.8022C32.993 18.5218 32.9726 18.2085 33.0557 17.9148C32.665 17.7618 32.3122 17.5256 32.0219 17.2227H28.3258C28.5 17.658 28.5961 18.1206 28.6098 18.5893V23.368Z" fill="#FCE527"/>
<path d="M32.0311 25.4271C32.0168 25.4259 32.0024 25.4276 31.9887 25.4322C31.975 25.4367 31.9624 25.4439 31.9516 25.4535C31.9409 25.463 31.9321 25.4747 31.926 25.4877C31.9198 25.5007 31.9163 25.5148 31.9158 25.5292C31.9146 25.5435 31.9163 25.558 31.9208 25.5716C31.9253 25.5853 31.9326 25.5979 31.9421 25.6087C31.9517 25.6195 31.9633 25.6282 31.9763 25.6344C31.9893 25.6405 32.0034 25.644 32.0178 25.6445C32.0467 25.6445 32.0743 25.6331 32.0947 25.6127C32.1151 25.5923 32.1265 25.5647 32.1265 25.5358C32.1265 25.507 32.1151 25.4794 32.0947 25.459C32.0743 25.4386 32.0467 25.4271 32.0178 25.4271" fill="#222220"/>
<path d="M39.259 32.6898L38.6467 32.4546L38.8153 31.8201L39.0017 31.1279C38.1647 31.5567 37.2879 31.903 36.3838 32.1618C35.9401 32.286 35.6206 32.3437 35.6206 32.3437V32.814C35.0762 32.9025 34.526 32.9499 33.9745 32.956H33.9345C33.383 32.95 32.8328 32.9026 32.2884 32.814V32.3437C32.2884 32.3437 31.9601 32.286 31.5252 32.1618C30.6211 31.9032 29.7443 31.5569 28.9074 31.1279L29.0893 31.8201L29.2623 32.4546L28.6456 32.6898L27.9623 32.9427C28.881 33.426 29.8401 33.8283 30.8286 34.1451L30.5935 34.7841C31.6594 35.1906 32.794 35.3865 33.9345 35.3609H33.9612C35.1062 35.3883 36.2455 35.1924 37.3156 34.7841L37.0804 34.1451C38.066 33.83 39.0222 33.4291 39.9379 32.9471L39.259 32.6898ZM28.6855 32.9871L29.6927 32.6543L29.3954 31.6826C30.045 32.0069 30.7202 32.277 31.4143 32.4901L30.9262 33.8212C30.1538 33.6172 29.4033 33.3378 28.6855 32.9871ZM33.9345 35.0281C32.9563 35.0176 31.9837 34.8789 31.0416 34.6155L31.6406 32.9959C32.391 33.1831 33.1611 33.28 33.9345 33.2843H33.9834C34.7525 33.2772 35.518 33.1789 36.264 32.9915L36.8453 34.6155C35.9001 34.8782 34.9244 35.0155 33.9434 35.0237L33.9345 35.0281ZM36.9606 33.8212L36.4725 32.4901C37.1666 32.2771 37.8419 32.007 38.4914 31.6826L38.1941 32.6543L39.2013 32.9871C38.4822 33.3384 37.7302 33.6178 36.9562 33.8212" fill="#222220"/>
<path d="M33.9344 7.40779C34.9385 7.37755 35.925 7.67674 36.7431 8.2597C36.8761 7.60181 37.1271 6.97345 37.4841 6.40502L36.4769 6.52038L35.9355 5.40224L34.9239 5.92138L33.9344 4.9541L32.9583 5.92138L31.9511 5.40224L31.4275 6.52038L30.4203 6.40502C30.7713 6.97457 31.0163 7.60292 31.1435 8.2597C31.957 7.68103 32.9364 7.38208 33.9344 7.40779ZM31.3831 6.91084L31.6627 6.9419L31.7825 6.68899L32.133 5.93913L32.7852 6.27634L33.0381 6.40502L33.2378 6.21866L33.9344 5.5043L34.6488 6.21866L34.8485 6.41833L35.1014 6.28965L35.7492 5.95244L36.1041 6.7023L36.2239 6.95521L36.5035 6.92415L36.7697 6.89309C36.6622 7.13698 36.5704 7.38743 36.4946 7.64295C35.7057 7.23878 34.832 7.028 33.9455 7.028C33.0591 7.028 32.1854 7.23878 31.3964 7.64295C31.3202 7.38759 31.2283 7.13716 31.1213 6.89309L31.3831 6.91084Z" fill="#222220"/>
<path d="M48.5765 20.4971C50.1916 20.4971 50.7329 18.8554 50.7551 18.7844L50.937 18.2076H50.3335C49.7032 18.1862 49.0852 18.0274 48.5227 17.7423C47.9601 17.4572 47.4667 17.0527 47.0767 16.557L46.9569 16.4061C46.1317 15.359 45.3507 14.3606 43.9486 13.9036C44.0042 13.8547 44.0636 13.8102 44.1261 13.7705C44.4547 13.5841 44.7394 13.3291 44.9606 13.0228C45.1819 12.7166 45.3346 12.3663 45.4084 11.9957C45.4836 11.319 45.2927 10.6395 44.876 10.1011L44.4323 9.54645L44.1394 10.212C44.1394 10.2519 43.6469 11.308 42.653 11.308H42.5776H42.3823C42.4074 10.9617 42.3569 10.6141 42.2343 10.2892C42.1117 9.96438 41.92 9.67007 41.6724 9.42665C41.376 9.12422 41.0217 8.88465 40.6306 8.72227C40.2395 8.55988 39.8197 8.47802 39.3962 8.48156C39.2373 8.48085 39.0785 8.49271 38.9214 8.51705L38.2426 8.65016L38.6597 9.20036C38.988 9.64406 39.2853 10.4117 38.9348 10.8199C38.7668 10.966 38.5746 11.0817 38.3668 11.1615C37.9231 11.3701 37.2842 11.6674 37.2842 12.4128C37.2842 12.8964 37.6613 13.4022 38.3402 13.8282C40.3502 15.0928 41.5881 16.4106 42.125 17.8659C42.9547 20.0844 41.8721 21.3845 40.8205 22.0545L40.3502 22.3562L40.7628 22.7334C41.1309 23.047 41.5861 23.2406 42.0673 23.288C42.2093 23.288 42.3424 23.288 42.4711 23.288C42.8829 23.2896 43.2927 23.2298 43.6868 23.1105C43.5886 23.2822 43.4742 23.4442 43.3452 23.5941C43.0501 23.9374 42.6803 24.2086 42.2643 24.387C41.8482 24.5655 41.3969 24.6464 40.9447 24.6235H40.5498L40.5188 25.0184C40.5171 25.2918 40.5754 25.5623 40.6896 25.8107C40.8038 26.0591 40.9712 26.2794 41.1799 26.456C41.2905 26.5532 41.4146 26.6338 41.5482 26.6956C40.8926 27.3344 40.5175 28.2074 40.5055 29.1227C40.5165 29.6406 40.4072 30.154 40.186 30.6224L39.7423 31.288H40.5321C41.8336 31.288 42.8305 30.9315 43.5227 30.2187C43.882 29.841 44.1492 29.3855 44.3036 28.8875C44.5601 29.1037 44.8642 29.2557 45.191 29.3312C45.3467 29.3672 45.506 29.3851 45.6658 29.3845C45.9049 29.3838 46.1431 29.3555 46.3757 29.3002L46.8771 29.1671L46.6552 28.6968C46.3773 27.9467 46.3773 27.1218 46.6552 26.3717C46.8198 25.8817 46.9342 25.3763 46.9969 24.8631C47.3965 25.0668 47.8396 25.1704 48.2881 25.1649C48.6483 25.1703 49.004 25.0844 49.3221 24.9153C49.6402 24.7462 49.9103 24.4993 50.1072 24.1976L50.3513 23.7539L49.9076 23.5675C48.4212 22.9508 48.0928 21.2958 48.0307 20.3995C48.1769 20.4291 48.3253 20.447 48.4744 20.4527L48.5765 20.4971ZM49.7523 24.0024C49.5962 24.2386 49.383 24.4315 49.1325 24.5634C48.882 24.6953 48.6022 24.7617 48.3191 24.7567C48.0006 24.7755 47.682 24.7186 47.3897 24.5906C47.0974 24.4626 46.8396 24.267 46.6375 24.0201C46.6507 24.7755 46.5274 25.527 46.2736 26.2386C45.9496 27.0965 45.9496 28.043 46.2736 28.9009C46.0762 28.9497 45.8736 28.975 45.6702 28.9763C45.5446 28.9772 45.4194 28.9623 45.2975 28.9319C45.0081 28.8633 44.7411 28.7217 44.522 28.5205C44.3029 28.3193 44.1391 28.0653 44.0462 27.7827C44.0462 27.7827 44.1394 30.8576 40.5543 30.8576H40.5277C40.7996 30.3454 40.9399 29.7736 40.9359 29.1937C41.1045 26.9131 42.6486 26.598 42.6486 26.598C42.2317 26.5519 41.831 26.4107 41.4772 26.1854C41.3175 26.0513 41.1885 25.8844 41.099 25.6961C41.0094 25.5077 40.9613 25.3024 40.9581 25.0939C41.4742 25.1191 41.9893 25.0259 42.4638 24.8213C42.9383 24.6167 43.3597 24.3062 43.6957 23.9136C44.1018 23.4485 44.376 22.8832 44.4899 22.2763C43.919 22.7064 43.2162 22.9244 42.5021 22.8931C42.3868 22.8931 42.2625 22.8931 42.1383 22.8931C41.7526 22.854 41.3876 22.6993 41.0912 22.4494C42.4578 21.562 43.4117 20.0489 42.5643 17.7461C41.8854 15.9047 40.2481 14.5248 38.602 13.491C38.0562 13.1493 37.7501 12.7677 37.7501 12.4438C37.7501 11.6718 38.846 11.6496 39.2942 11.1127C39.8133 10.5093 39.4894 9.53757 39.0368 8.94745C39.1658 8.92524 39.2964 8.91485 39.4273 8.91639C39.7931 8.91257 40.1559 8.98295 40.4937 9.12327C40.8315 9.26359 41.1374 9.47095 41.3929 9.7328C41.6485 9.97671 41.8324 10.286 41.9247 10.627C42.017 10.968 42.0142 11.3278 41.9165 11.6674L42.1561 11.7162C42.3025 11.7427 42.4509 11.7576 42.5998 11.7605H42.6974C43.9974 11.7605 44.5787 10.4028 44.5787 10.4028C44.5787 10.4028 45.9586 12.1022 43.9264 13.4333C43.5759 13.6596 43.4206 13.877 43.4827 14.0989L43.5138 14.2453L43.6602 14.2719C45.1333 14.6712 45.8787 15.6873 46.7928 16.8454C47.2183 17.3806 47.7539 17.818 48.3633 18.128C48.9726 18.4381 49.6416 18.6135 50.3247 18.6424H50.3513C50.3513 18.6424 49.9076 20.0534 48.5765 20.0534H48.5143C48.192 20.0563 47.8753 19.9687 47.6003 19.8005C47.6003 19.8005 47.3652 22.9996 49.7523 23.9935" fill="#222220"/>
<path d="M45.7502 14.0994C46.2463 14.3822 46.676 14.768 47.0103 15.2309C47.262 15.622 47.623 15.9306 48.0486 16.1183C48.2101 16.1724 48.3796 16.1994 48.55 16.1982C48.8823 16.1972 49.208 16.1048 49.4913 15.9311C49.7746 15.7573 50.0046 15.5089 50.1562 15.2131L50.4135 14.6408L49.7879 14.6053C49.117 14.4836 48.5079 14.136 48.0619 13.6202C47.8973 13.4415 47.6978 13.2985 47.4757 13.2001C47.2536 13.1016 47.0136 13.0498 46.7707 13.0479C46.3925 13.0544 46.0236 13.1666 45.7058 13.3718L45.1334 13.7755L45.7502 14.0994ZM46.7707 13.4694C46.956 13.471 47.139 13.5113 47.3078 13.5877C47.4767 13.6641 47.6277 13.7749 47.7513 13.9131C48.2726 14.5052 48.9828 14.8987 49.7613 15.0268C49.6432 15.2459 49.4685 15.4294 49.2555 15.5581C49.0425 15.6869 48.7988 15.7562 48.55 15.7589C48.4246 15.7591 48.3 15.7381 48.1817 15.6968C47.4673 15.4572 47.21 14.3657 45.9632 13.7134C46.2068 13.5562 46.4896 13.4701 46.7796 13.4649" fill="#222220"/>
<path d="M46.0345 19.8007C45.6706 16.8767 43.5497 14.7647 41.1892 13.4824C40.9718 13.367 40.7677 13.265 40.5725 13.1718C41.0544 13.2696 41.5518 13.2619 42.0305 13.1494C42.5092 13.0368 42.9578 12.8219 43.3456 12.5195C43.3456 12.5195 41.979 13.5267 39.1748 12.6127C39.9513 13.1141 41.4554 13.824 42.8354 14.9777C46.2741 17.9993 43.816 20.9499 43.816 20.9499C44.3184 20.4714 44.6725 19.8585 44.8362 19.1843C44.9998 18.51 44.966 17.8029 44.7389 17.1474C45.4672 18.3571 45.8164 19.7573 45.7416 21.1673C45.6485 23.4924 44.3706 25.4979 43.0262 27.113C42.6254 27.6216 42.3544 28.2201 42.2364 28.8567C42.4673 28.2325 42.8118 27.6563 43.2525 27.1574C44.6901 25.4713 45.9147 23.7231 46.0833 21.1984C46.2341 21.6421 46.8465 22.9288 47.8182 23.4169C47.8182 23.4169 46.5936 22.6804 46.0434 19.8096" fill="#222220"/>
<path d="M27.7225 30.6222C27.5072 30.1686 27.3936 29.6734 27.3897 29.1713C27.3776 28.256 27.0026 27.383 26.347 26.7442C26.4807 26.6827 26.6048 26.602 26.7152 26.5046C26.9244 26.3284 27.0921 26.1082 27.2064 25.8597C27.3207 25.6112 27.3787 25.3405 27.3764 25.067L27.3497 24.6721H26.9504C26.499 24.6942 26.0485 24.613 25.6333 24.4346C25.2181 24.2562 24.8491 23.9854 24.5544 23.6427C24.4112 23.4884 24.2834 23.3205 24.1728 23.1413C24.5655 23.2605 24.9738 23.3203 25.3841 23.3188C25.5128 23.3188 25.6459 23.3188 25.7879 23.3188C26.2695 23.2696 26.7246 23.0745 27.0924 22.7597L27.505 22.3826L27.0347 22.0809C25.9831 21.4064 24.9049 20.1286 25.7302 17.8923C26.2671 16.4369 27.505 15.1191 29.515 13.8546C30.1939 13.4109 30.5666 12.9184 30.5666 12.4392C30.5666 11.6937 29.9454 11.4009 29.4884 11.1879C29.2805 11.1083 29.0882 10.9926 28.9205 10.8463C28.5655 10.4381 28.8628 9.6527 29.1911 9.22674L29.6126 8.67655L28.9293 8.54344C28.7737 8.5192 28.6165 8.50733 28.459 8.50794C28.0355 8.50415 27.6156 8.5859 27.2245 8.7483C26.8334 8.9107 26.4791 9.1504 26.1828 9.45303C25.944 9.69685 25.7599 9.98878 25.6428 10.3094C25.5258 10.63 25.4784 10.9718 25.5039 11.3122H25.3087H25.2377C24.2394 11.3122 23.769 10.2561 23.7513 10.2162L23.4718 9.55508L23.0281 10.1097C22.6142 10.6495 22.425 11.3283 22.5001 12.0043C22.5736 12.375 22.7262 12.7254 22.9475 13.0317C23.1688 13.338 23.4535 13.593 23.7824 13.7792C23.8451 13.8185 23.9045 13.863 23.9598 13.9123C22.5577 14.356 21.7768 15.3676 20.9515 16.4148L20.8317 16.5656C20.4413 17.0619 19.9471 17.4667 19.3838 17.7518C18.8204 18.037 18.2015 18.1955 17.5705 18.2162L16.9404 18.1985L17.1268 18.7753C17.1268 18.8463 17.6859 20.488 19.3009 20.488H19.3808C19.5299 20.4819 19.6782 20.4641 19.8245 20.4347C19.758 21.3221 19.4296 22.986 17.9432 23.6028L17.4995 23.7891L17.7435 24.2328C17.9404 24.536 18.2109 24.7842 18.5299 24.9541C18.8489 25.1241 19.2058 25.2103 19.5672 25.2046C20.0141 25.2092 20.4556 25.1056 20.8539 24.9028C20.9163 25.416 21.0307 25.9215 21.1956 26.4114C21.4735 27.1615 21.4735 27.9864 21.1956 28.7364L20.9737 29.2068L21.4795 29.3399C21.7121 29.3952 21.9504 29.4235 22.1895 29.4242C22.3492 29.425 22.5086 29.4071 22.6642 29.3709C22.9911 29.2958 23.2954 29.1437 23.5516 28.9272C23.7047 29.4247 23.9704 29.8802 24.3281 30.2584C25.0203 30.9712 26.0172 31.3277 27.3187 31.3277H28.1085L27.7225 30.6222ZM27.3409 30.8662C23.7557 30.8662 23.8489 27.7914 23.8489 27.7914C23.756 28.0739 23.5922 28.3279 23.3731 28.5291C23.1541 28.7303 22.8871 28.872 22.5977 28.9405C22.4758 28.9712 22.3506 28.9861 22.225 28.9849C22.023 28.9834 21.822 28.9581 21.626 28.9095C21.9492 28.0515 21.9492 27.1052 21.626 26.2473C21.3739 25.5353 21.2521 24.7838 21.2666 24.0287C21.0647 24.276 20.8069 24.4717 20.5145 24.5997C20.2221 24.7278 19.9035 24.7845 19.5849 24.7653C19.3019 24.77 19.0223 24.7033 18.7718 24.5715C18.5214 24.4397 18.3081 24.2469 18.1517 24.011C20.5389 23.0171 20.3082 19.818 20.3082 19.818C20.0332 19.9862 19.7165 20.0738 19.3941 20.0709H19.2921C17.961 20.0709 17.5172 18.6599 17.5172 18.6599H17.5439C18.2368 18.6361 18.9162 18.4614 19.5346 18.148C20.1531 17.8345 20.6957 17.3899 21.1246 16.8452C22.0342 15.6871 22.784 14.671 24.2571 14.2717L24.4035 14.245L24.4346 14.0986C24.4745 13.8723 24.3192 13.6549 23.9909 13.4331C21.9587 12.1019 23.3387 10.4026 23.3387 10.4026C23.3387 10.4026 23.9155 11.7603 25.22 11.7603H25.3131C25.462 11.7571 25.6103 11.7423 25.7568 11.7159L25.9964 11.6671C25.8982 11.3276 25.8951 10.9677 25.9875 10.6266C26.0798 10.2854 26.264 9.97619 26.52 9.73256C26.7755 9.47071 27.0814 9.26336 27.4192 9.12303C27.757 8.98271 28.1198 8.91233 28.4856 8.91615C28.6165 8.91451 28.7472 8.92491 28.8761 8.94721C28.4324 9.5329 28.104 10.509 28.6232 11.1125C29.0669 11.6316 30.1673 11.6538 30.1673 12.4436C30.1673 12.7719 29.8611 13.1491 29.3154 13.4907C27.6692 14.529 26.0364 15.9045 25.3531 17.7459C24.5056 20.0443 25.464 21.5706 26.8306 22.4491C26.5328 22.6997 26.1663 22.8543 25.779 22.8929C25.6504 22.8929 25.5306 22.8929 25.4108 22.8929C24.6967 22.9242 23.9939 22.7062 23.423 22.2761C23.5367 22.8821 23.8092 23.4471 24.2128 23.9134C24.5479 24.302 24.9668 24.6097 25.4378 24.8133C25.9089 25.0169 26.4199 25.1113 26.9327 25.0892C26.9273 25.3002 26.8761 25.5075 26.7826 25.6968C26.6892 25.886 26.5556 26.0526 26.3913 26.1851C26.0364 26.4232 25.6307 26.5751 25.2067 26.6288C25.2067 26.6288 26.7507 26.9439 26.9238 29.2245C26.9191 29.804 27.0578 30.3756 27.3276 30.8884L27.3409 30.8662Z" fill="#222220"/>
<path d="M19.3366 16.1885C19.507 16.1897 19.6764 16.1627 19.838 16.1086C20.2637 15.9211 20.6248 15.6125 20.8762 15.2212C21.2106 14.7583 21.6403 14.3725 22.1364 14.0898L22.7575 13.757L22.1807 13.3532C21.863 13.1478 21.4941 13.0356 21.1158 13.0293C20.8729 13.0313 20.633 13.0831 20.4109 13.1815C20.1888 13.28 19.9892 13.423 19.8247 13.6017C19.3787 14.1174 18.7696 14.4651 18.0986 14.5867L17.473 14.6488L17.7304 15.2212C17.8825 15.5162 18.1128 15.7637 18.396 15.9366C18.6793 16.1095 19.0047 16.2013 19.3366 16.2018V16.1885ZM20.1308 13.9256C20.2549 13.7869 20.4066 13.6757 20.5763 13.5993C20.746 13.5229 20.9298 13.4829 21.1158 13.4819C21.412 13.4792 21.7029 13.5607 21.9544 13.717C20.6988 14.387 20.4414 15.4608 19.7359 15.7004C19.6191 15.7418 19.496 15.7628 19.3721 15.7625C19.1231 15.7603 18.8793 15.6912 18.6662 15.5624C18.4531 15.4335 18.2785 15.2498 18.1608 15.0304C18.9377 14.9014 19.6461 14.508 20.1663 13.9167" fill="#222220"/>
<path d="M22.1542 21.1888C22.0778 19.7786 22.4272 18.378 23.157 17.1689C22.9298 17.8244 22.8961 18.5315 23.0597 19.2057C23.2233 19.88 23.5775 20.4929 24.0799 20.9714C24.0799 20.9714 21.6173 18.0208 25.0605 14.9991C26.436 13.8499 27.9401 13.14 28.7166 12.6342C25.9168 13.5482 24.5458 12.541 24.5458 12.541C24.9329 12.843 25.3808 13.0577 25.8587 13.1703C26.3367 13.2829 26.8333 13.2907 27.3145 13.1933C27.1193 13.2864 26.9152 13.3885 26.6978 13.5039C24.3328 14.7862 22.2119 16.8982 21.8481 19.8222V19.8C21.2979 22.6708 20.0732 23.4073 20.0732 23.4073C21.045 22.9281 21.6573 21.6547 21.8081 21.1888C21.9723 23.7135 23.2014 25.4617 24.6434 27.1478C25.0839 27.6544 25.4269 28.238 25.6551 28.8694C25.5357 28.2323 25.2632 27.6338 24.8608 27.1256C23.5297 25.5105 22.243 23.5005 22.1498 21.1799" fill="#222220"/>
<path d="M33.1357 15.2744V15.8557C33.2126 15.7814 33.305 15.7253 33.4064 15.6915C33.5078 15.6577 33.6154 15.6471 33.7214 15.6604V16.4946C33.7182 16.7015 33.6633 16.9044 33.5617 17.0847H34.3781C34.2774 16.904 34.2226 16.7014 34.2184 16.4946V15.6604C34.3244 15.6471 34.432 15.6577 34.5334 15.6915C34.6348 15.7253 34.7273 15.7814 34.8041 15.8557V15.2744H33.1357Z" fill="#222220"/>
<path d="M32.7765 11.8359C32.9067 11.9481 33.0573 12.034 33.2202 12.0888L33.3267 12.1376V11.5875L32.3461 11.1748C32.3699 11.3098 32.4217 11.4384 32.4981 11.5522C32.5746 11.666 32.6739 11.7627 32.7898 11.8359" fill="#222220"/>
<path d="M35.1101 11.8359C35.2262 11.7629 35.3257 11.6663 35.4021 11.5524C35.4785 11.4385 35.5302 11.3099 35.5538 11.1748L34.5732 11.5875V12.1332L34.6753 12.0844C34.8384 12.0302 34.9892 11.9442 35.119 11.8315" fill="#222220"/>
<path d="M36.8809 9.61324C36.8809 8.78351 35.4876 8.03809 33.948 8.03809C32.4083 8.03809 31.0151 8.78351 31.0151 9.61324L31.0462 9.81734L31.6629 13.367L31.0462 13.7264L29.4355 14.6493C29.4355 14.6493 29.0761 14.8356 28.9075 14.9466C28.2996 15.3903 28.171 15.9848 28.5215 16.2378C28.5639 15.945 28.7127 15.6782 28.9394 15.4883C29.1662 15.2984 29.4549 15.1988 29.7505 15.2084C30.0023 15.2152 30.249 15.2814 30.4703 15.4017C30.6916 15.522 30.8813 15.6929 31.024 15.9005C31.1109 16.0078 31.1909 16.1204 31.2636 16.2378C31.3568 16.3886 31.4499 16.5217 31.5387 16.6504H27.4388C27.7845 17.2465 27.9865 17.9149 28.029 18.6027V27.6942C28.029 29.9127 29.7239 30.951 31.5786 30.951C32.994 30.951 33.1848 30.8845 33.9702 31.6654C34.7467 30.8845 34.9375 30.951 36.3573 30.951C38.1898 30.951 39.8848 29.8994 39.8848 27.6942V18.5894C39.9272 17.9016 40.1293 17.2332 40.4749 16.6371H36.3351C36.4283 16.5084 36.5215 16.3753 36.6102 16.2244C36.6839 16.1078 36.7639 15.9952 36.8498 15.8872C36.9927 15.6799 37.1825 15.5091 37.4038 15.3889C37.625 15.2686 37.8715 15.2022 38.1233 15.195C38.4186 15.1864 38.7069 15.2865 38.9334 15.4762C39.1599 15.6659 39.309 15.9321 39.3523 16.2244C39.7073 15.9715 39.5786 15.337 38.9663 14.9333C38.8154 14.8179 38.4472 14.6493 38.4472 14.6493L36.8498 13.7175L36.2331 13.3581L36.8498 9.80847L36.8809 9.61324ZM31.6097 10.0214L33.7705 10.7536V14.1479L32.1599 13.3182L31.6097 10.0214ZM32.0534 17.2317C32.3436 17.5347 32.6964 17.7709 33.0872 17.9238C33.0041 18.2175 33.0245 18.5308 33.1449 18.8112C33.2896 19.1077 33.5419 19.3378 33.8504 19.4546C33.8792 19.7036 33.9778 19.9395 34.1348 20.1349C34.2918 20.3304 34.5008 20.4775 34.7378 20.5594L34.09 21.1718L31.6141 21.1318C31.5319 21.0926 31.4637 21.0291 31.4189 20.9499V20.9188L31.8226 20.9854H31.8493C31.8874 20.9859 31.9245 20.9728 31.9538 20.9484C31.9831 20.924 32.0027 20.8899 32.009 20.8523C32.0155 20.81 32.0052 20.7669 31.9803 20.7321C31.9554 20.6973 31.918 20.6735 31.8759 20.6659L31.3789 20.5861L31.9291 18.6826L31.4056 17.5822L30.567 18.4696L30.5137 20.4485L29.9413 20.3598C29.9203 20.356 29.8988 20.3564 29.8779 20.3611C29.8571 20.3658 29.8374 20.3746 29.82 20.387C29.8027 20.3994 29.788 20.4151 29.7768 20.4333C29.7656 20.4515 29.7582 20.4718 29.755 20.4929C29.7485 20.5352 29.7588 20.5783 29.7837 20.6131C29.8085 20.6479 29.846 20.6716 29.8881 20.6792L30.1233 20.7147C30.039 20.7635 29.9813 20.799 29.9768 20.8079L29.9413 20.8612V20.9188C29.887 21.1659 29.906 21.4234 29.9958 21.6598C30.0856 21.8962 30.2425 22.1013 30.4472 22.25V22.3209C30.4343 22.405 30.455 22.4907 30.5049 22.5596C30.5547 22.6285 30.6296 22.6751 30.7134 22.6892H30.7666C30.8383 22.6888 30.9077 22.664 30.9634 22.6188C31.0191 22.5736 31.0576 22.5108 31.0728 22.4407C31.1777 22.4469 31.2829 22.4469 31.3878 22.4407H31.4544L34.7023 23.0264L34.7555 22.9909C35.0129 22.809 36.0023 22.1035 36.3263 21.8506C36.4201 21.9323 36.5246 22.001 36.6368 22.0547C36.5623 22.2832 36.551 22.5275 36.6041 22.7619C36.6572 22.9963 36.7728 23.2119 36.9386 23.3858H28.6102V18.5894C28.5918 18.1228 28.4912 17.6632 28.3129 17.2317H32.0534ZM36.0467 21.6021C35.7184 21.8462 34.8709 22.4629 34.5647 22.6759L31.6141 22.1435V22.0636C31.6649 21.8649 31.6917 21.6608 31.694 21.4557L34.1743 21.4957L34.2231 21.4468C34.2586 21.4114 35.0484 20.6482 35.4477 20.2133C35.5524 20.3444 35.6784 20.4569 35.8204 20.5461C35.7518 20.9104 35.8265 21.2872 36.029 21.5977L36.0467 21.6021ZM31.1305 21.0919C31.1951 21.217 31.2935 21.3215 31.4144 21.3936C31.4107 21.5737 31.3929 21.7532 31.3612 21.9305C31.3612 21.9704 31.3612 22.0104 31.3301 22.0503V22.1124C31.1283 22.1131 30.9276 22.0816 30.7356 22.0192C30.5626 21.926 30.4222 21.7821 30.3334 21.6068C30.2446 21.4315 30.2115 21.2333 30.2386 21.0386C30.3979 20.938 30.579 20.8772 30.7666 20.8612C30.8451 20.8595 30.922 20.8826 30.9866 20.9272C31.0511 20.9718 31.0999 21.0357 31.126 21.1096L31.1305 21.0919ZM30.8287 20.5018L30.8776 18.5983L31.3213 18.1546L31.5875 18.7136L31.0595 20.5373L30.8287 20.5018ZM36.0467 30.3609H35.603L35.9535 29.2916C36.0068 29.1407 35.7317 28.9455 35.6163 28.7724C35.8881 28.9346 36.168 29.0826 36.4549 29.2161C36.4549 29.2516 36.0467 30.3786 36.0467 30.3786V30.3609ZM37.1515 29.1363L36.9208 30.3343C36.7744 30.3343 36.6191 30.3653 36.4771 30.3698L36.7211 29.2206C36.7921 28.8789 35.8737 28.7769 35.4211 28.098C35.2755 28.2196 35.1071 28.3109 34.9258 28.3665C34.7444 28.4221 34.5538 28.4409 34.3651 28.4219C34.0297 28.4174 33.6955 28.3818 33.3667 28.3154C33.3106 28.311 33.2542 28.311 33.1981 28.3154C33.1298 28.3105 33.0615 28.325 33.0011 28.3572C32.9407 28.3893 32.8905 28.4379 32.8565 28.4973L32.7899 28.6082L31.5387 28.3154L31.2281 28.8301C31.2044 28.8651 31.1936 28.9073 31.1977 28.9495C31.2017 28.9916 31.2203 29.0309 31.2503 29.0608L31.3346 29.154C31.252 29.3177 31.1442 29.4675 31.0151 29.5977L30.8287 29.3492C30.7555 29.2387 30.7164 29.1091 30.7164 28.9765C30.7164 28.8439 30.7555 28.7143 30.8287 28.6038L31.3257 27.7652L32.3862 27.9161L32.222 27.5389C32.0001 27.042 32.3373 26.4119 32.3728 26.0481C32.3728 26.159 32.2575 26.1812 32.1421 26.1812C32.0268 26.1812 31.9158 26.1812 31.836 26.1812C31.8128 26.1745 31.7882 26.1745 31.765 26.1812L31.4766 26.3542L31.2725 26.1546C31.2557 26.1231 31.2497 26.087 31.2553 26.0517C31.2609 26.0165 31.2778 25.9841 31.3035 25.9593L31.8271 25.3692L31.2059 24.646L32.0933 25.0897L32.3595 24.7702C32.4305 24.8412 32.3995 25.0275 32.3995 25.0275C32.7108 25.106 32.9862 25.2879 33.1805 25.5435C33.3749 25.7991 33.4765 26.1131 33.4688 26.4341C33.4688 26.4652 33.4688 26.4962 33.4688 26.5317V26.5628C33.5573 26.7035 33.6975 26.8039 33.8593 26.8423L35.0573 26.9621C35.2947 26.8889 35.5383 26.837 35.7849 26.8068C35.9994 26.8078 36.209 26.871 36.3884 26.9887C36.4723 26.9314 36.5708 26.8991 36.6723 26.8955H36.7123C37.2492 26.8955 37.4754 27.3836 37.7639 27.783C37.9813 28.0891 38.2697 28.5461 38.2697 28.5461C38.2291 28.6078 38.1737 28.6583 38.1086 28.6932C38.0436 28.7281 37.9708 28.7462 37.897 28.7458C37.8453 28.751 37.7933 28.751 37.7417 28.7458C37.1649 28.6393 37.0805 27.4546 36.7522 27.3614H36.699C36.6679 27.3624 36.6375 27.3715 36.6111 27.3878C36.5846 27.4042 36.5629 27.4272 36.5481 27.4546C36.699 27.8584 36.6102 28.0226 36.7744 28.342C36.8954 28.5338 37.045 28.7059 37.2181 28.8523C37.2181 28.8523 37.1959 29.0253 37.1693 29.1584L37.1515 29.1363ZM30.7045 27.9871L30.7578 28.1246C30.7223 28.2444 30.314 28.4175 30.314 28.4175L30.2253 28.2222C30.1688 28.0876 30.1591 27.938 30.1977 27.7972C30.2363 27.6564 30.321 27.5327 30.4383 27.4457L31.1127 27.0375L31.8271 27.1884C31.8232 27.3302 31.8669 27.4692 31.9513 27.5833L31.2015 27.4413L30.7578 27.7519C30.7235 27.7805 30.7007 27.8203 30.6934 27.8643C30.6861 27.9083 30.6947 27.9534 30.7178 27.9915L30.7045 27.9871ZM37.2758 30.2544L37.4843 29.1806C37.4843 29.1185 37.5065 29.0431 37.5154 28.981C37.5753 29.0067 37.6377 29.0261 37.7017 29.0386C37.7726 29.0453 37.8439 29.0453 37.9147 29.0386C38.0341 29.0381 38.1517 29.0103 38.2587 28.9572C38.3656 28.9041 38.4589 28.8273 38.5315 28.7325L38.6912 28.5506L38.5625 28.3509C38.5625 28.3509 38.2652 27.8806 38.0478 27.57L37.9236 27.3836C37.8178 27.1504 37.6519 26.9495 37.443 26.8014C37.2341 26.6532 36.9896 26.5633 36.7345 26.5406H36.6768C36.5874 26.5453 36.4992 26.5633 36.415 26.5938C36.224 26.5016 36.0148 26.4531 35.8027 26.4518C35.5904 26.4568 35.3804 26.4973 35.1815 26.5716L35.075 26.6027L33.9036 26.4873C33.8557 26.464 33.8145 26.4289 33.7838 26.3853L34.0367 26.2832C33.9657 25.4402 33.1493 24.9211 32.7056 24.7436C32.6855 24.6525 32.6393 24.5692 32.5725 24.504L32.3196 24.2644L32.0977 24.5306L31.9868 24.6637L30.3451 23.9893L31.41 25.3204L30.9885 25.9593C30.9667 25.9808 30.9495 26.0064 30.9377 26.0345C30.9259 26.0627 30.9199 26.093 30.9199 26.1235C30.9199 26.154 30.9259 26.1843 30.9377 26.2125C30.9495 26.2406 30.9667 26.2662 30.9885 26.2877L31.4322 26.5894L31.8759 26.4208H31.9203C31.9203 26.4873 31.8715 26.758 31.8493 26.8334L31.0683 26.6781L30.2475 27.1218C30.0569 27.2564 29.921 27.4551 29.8648 27.6816C29.8086 27.9081 29.8358 28.1472 29.9413 28.3553L30.0345 28.555L30.1632 28.8345L30.4516 28.7147C30.3983 28.8556 30.3818 29.0077 30.4035 29.1568C30.4252 29.3058 30.4845 29.4469 30.5758 29.5666L30.7489 29.7841L30.9796 30.0769L31.237 29.8018C31.405 29.6355 31.5391 29.4381 31.6319 29.2206L31.6851 29.0431L31.5609 28.9055V28.8789L31.7028 28.6482L32.7234 28.8878L32.9541 28.941L33.0783 28.7369L33.1449 28.626C33.1449 28.6038 33.1449 28.5994 33.207 28.5994H33.3179C33.6658 28.6687 34.0193 28.7059 34.3739 28.7103C34.6122 28.7234 34.851 28.6949 35.0794 28.626L35.6163 29.2916L35.2658 30.3254V30.3875C35.0168 30.3828 34.7696 30.4305 34.5403 30.5276C34.3109 30.6247 34.1046 30.7689 33.9347 30.951C33.3889 30.4097 33.0073 30.3564 31.5431 30.3564C29.7949 30.3564 28.6102 29.3315 28.6102 27.6942V23.7009H39.2591V27.6942C39.2836 28.2892 39.0951 28.8733 38.7275 29.3418C38.3599 29.8102 37.8373 30.1322 37.2536 30.25L37.2758 30.2544ZM39.5564 17.2317C39.377 17.6628 39.2763 18.1227 39.2591 18.5894V21.5755C39.0704 21.5354 38.8998 21.4349 38.7733 21.2892C38.6468 21.1435 38.5712 20.9605 38.5581 20.768V20.6304H38.425C38.1955 20.6107 37.981 20.5082 37.8215 20.342C37.6253 20.1166 37.5153 19.8289 37.5109 19.53C37.4179 19.6821 37.3727 19.8587 37.3814 20.0367C37.3901 20.2148 37.4523 20.3861 37.5598 20.5284C37.732 20.7483 37.9838 20.8917 38.2608 20.9277C38.2989 21.1771 38.4167 21.4075 38.5967 21.5843C38.7767 21.761 39.0091 21.8747 39.2591 21.9083V23.3725H37.4266C37.1918 23.254 37.0115 23.0497 36.9232 22.8019C36.8348 22.5541 36.8451 22.2818 36.9519 22.0414L37.0229 21.8817L36.8587 21.8196C36.6027 21.7296 36.3917 21.5438 36.27 21.3013C36.1484 21.0587 36.1256 20.7785 36.2065 20.5195L36.2419 20.3864L36.1177 20.3287C35.8901 20.1959 35.707 19.9985 35.5917 19.7615C35.4764 19.5245 35.434 19.2587 35.4699 18.9976C35.3458 19.1194 35.2638 19.2775 35.2359 19.4491C35.208 19.6207 35.2356 19.7967 35.3146 19.9516C35.2259 20.0492 35.1105 20.1734 34.9818 20.3021C34.76 20.2537 34.5603 20.1336 34.4136 19.9603C34.2668 19.7871 34.1812 19.5704 34.1698 19.3437V19.2194L34.0678 19.1795C33.933 19.1374 33.8082 19.0681 33.7014 18.9757C33.5945 18.8833 33.5078 18.77 33.4466 18.6426C33.3607 18.4375 33.3451 18.2097 33.4022 17.9948C33.4899 18.0144 33.5789 18.0278 33.6685 18.0348C33.7586 18.0394 33.849 18.0394 33.9391 18.0348C34.2943 18.0339 34.6453 17.9585 34.9694 17.8132C35.2935 17.668 35.5835 17.4563 35.8204 17.1917L39.5564 17.2317ZM36.6945 14.2056L37.4222 14.6493L37.6041 14.7558C37.2267 14.8587 36.8846 15.0627 36.6147 15.3459L36.5969 15.3592C36.5348 15.4258 36.4771 15.4923 36.4194 15.5633L36.3839 15.6077C36.3277 15.6787 36.2745 15.7526 36.2242 15.8295L36.1976 15.8695C36.1355 15.9582 36.0778 16.0558 36.0201 16.1534C35.8217 16.5485 35.5263 16.8869 35.1616 17.1367C34.7969 17.3866 34.3748 17.5399 33.9347 17.5822C33.4962 17.5384 33.0758 17.3845 32.7128 17.1347C32.3497 16.8849 32.0557 16.5474 31.8581 16.1534C31.8005 16.0558 31.7428 15.9627 31.6851 15.8739L31.6496 15.8251L31.4943 15.6121L31.4544 15.5633C31.3967 15.4923 31.339 15.4258 31.2813 15.3637L31.2725 15.3282C31.0021 15.0464 30.66 14.8439 30.283 14.7425L30.4693 14.636L31.197 14.1923L31.9424 13.7486L33.9347 14.8711L35.9314 13.7841L36.6945 14.2056ZM35.7095 13.3182L34.1166 14.1568V10.7536L36.2774 10.0214L35.7095 13.3182ZM33.9347 10.3897L31.5697 9.4535C31.7694 8.97874 32.7012 8.56609 33.9347 8.56609C35.1682 8.56609 36.1 8.9743 36.3041 9.4535L33.9347 10.3897Z" fill="#222220"/>
</svg>
