<svg width="67" height="40" viewBox="0 0 67 40" fill="none" xmlns="http://www.w3.org/2000/svg">
<rect x="0.779826" y="0.666667" width="65.2953" height="38.6667" rx="4.66667" fill="white" stroke="#D7D7D7" stroke-width="1.33333"/>
<path d="M27.6126 13.5369H24.2206L20.8286 22.749L18.1962 14.4082C18.1029 13.9997 17.8739 13.5369 17.226 13.5369H12.1063L15.4983 14.9914L18.8903 26.6278H22.2823L27.6126 13.5369Z" fill="#3D4656"/>
<path d="M31.9925 13.5369H28.626L26.2031 26.6278L29.6802 26.6312L31.9925 13.5369Z" fill="#3D4656"/>
<path d="M41.7044 14.1374L41.2419 16.4511C39.392 15.5256 37.6458 15.781 37.0797 16.9138C36.578 17.9177 37.9217 18.6134 38.4443 18.8701C40.3825 19.6782 41.7265 20.483 41.2419 23.3921C40.2728 26.786 36.7021 27.1951 32.455 26.1685V22.9293C34.3049 24.3175 37.5422 24.3175 38.0046 22.9293C38.0046 21.0784 33.8645 21.2332 33.3799 17.8393C33.3799 13.6747 38.4671 12.2865 41.7044 14.1374Z" fill="#3D4656"/>
<path d="M51.3567 13.5369H48.4492L42.1498 26.6278H45.5418L46.511 24.6884H50.8721L51.3567 26.6278H54.7487L51.3567 13.5369Z" fill="#3D4656"/>
<path d="M47.48 22.2645L49.4183 17.416L50.3874 22.2645H47.48Z" fill="white"/>
</svg>
