<svg width="22" height="22" viewBox="0 0 22 22" fill="none" xmlns="http://www.w3.org/2000/svg">
<path d="M9.007 1.10377C7.60544 0.650058 6.08181 1.28116 5.41156 2.59306L4.60578 4.17023C4.51004 4.35763 4.35763 4.51004 4.17023 4.60578L2.59306 5.41156C1.28116 6.08181 0.650058 7.60544 1.10377 9.007L1.64923 10.692C1.71404 10.8922 1.71404 11.1078 1.64923 11.308L1.10377 12.993C0.650058 14.3946 1.28116 15.9182 2.59306 16.5885L4.17023 17.3942C4.35763 17.49 4.51004 17.6424 4.60578 17.8298L5.41156 19.407C6.08181 20.7189 7.60544 21.35 9.007 20.8963L10.692 20.3508C10.8922 20.286 11.1078 20.286 11.308 20.3508L12.993 20.8963C14.3946 21.35 15.9182 20.7189 16.5885 19.407L17.3942 17.8298C17.49 17.6424 17.6424 17.49 17.8298 17.3942L19.407 16.5885C20.7189 15.9182 21.35 14.3946 20.8963 12.993L20.3508 11.308C20.286 11.1078 20.286 10.8922 20.3508 10.692L20.8963 9.007C21.35 7.60544 20.7189 6.08181 19.407 5.41156L17.8298 4.60578C17.6424 4.51004 17.49 4.35763 17.3942 4.17023L16.5885 2.59306C15.9182 1.28116 14.3946 0.650058 12.993 1.10377L11.308 1.64923C11.1078 1.71403 10.8922 1.71404 10.692 1.64923L9.007 1.10377ZM5.75977 10.7573L7.17399 9.343L10.0024 12.1715L15.6593 6.51465L17.0735 7.92886L10.0024 14.9999L5.75977 10.7573Z" fill="url(#paint0_linear_6212_1091)" fill-opacity="0.7"/>
<defs>
<linearGradient id="paint0_linear_6212_1091" x1="11" y1="0.95752" x2="11" y2="21.0425" gradientUnits="userSpaceOnUse">
<stop stop-color="#FF6422"/>
<stop offset="1" stop-color="#35C0B7"/>
</linearGradient>
</defs>
</svg>
